<?xml version="1.0" encoding="utf-8" standalone="no"?>
<!DOCTYPE svg PUBLIC "-//W3C//DTD SVG 1.1//EN"
  "http://www.w3.org/Graphics/SVG/1.1/DTD/svg11.dtd">
<!-- Created with matplotlib (http://matplotlib.org/) -->
<svg height="179pt" version="1.1" viewBox="0 0 538 179" width="538pt" xmlns="http://www.w3.org/2000/svg" xmlns:xlink="http://www.w3.org/1999/xlink">
 <defs>
  <style type="text/css">
*{stroke-linecap:butt;stroke-linejoin:round;stroke-miterlimit:100000;}
  </style>
 </defs>
 <g id="figure_1">
  <g id="patch_1">
   <path d="M 0 179.527559 
L 538.582677 179.527559 
L 538.582677 0 
L 0 0 
z
" style="fill:#ffffff;"/>
  </g>
  <g id="axes_1">
   <g id="patch_2">
    <path d="M 67.322835 141.938976 
L 484.724409 141.938976 
L 484.724409 37.588583 
L 67.322835 37.588583 
z
" style="fill:#ffffff;"/>
   </g>
   <g id="patch_3">
    <path clip-path="url(#p35bffb4795)" d="M 99.430648 102.606905 
C 99.643525 102.606905 99.847712 102.522328 99.998239 102.371801 
C 100.148766 102.221274 100.233343 102.017087 100.233343 101.804209 
C 100.233343 101.591332 100.148766 101.387145 99.998239 101.236618 
C 99.847712 101.086091 99.643525 101.001514 99.430648 101.001514 
C 99.217771 101.001514 99.013584 101.086091 98.863057 101.236618 
C 98.71253 101.387145 98.627953 101.591332 98.627953 101.804209 
C 98.627953 102.017087 98.71253 102.221274 98.863057 102.371801 
C 99.013584 102.522328 99.217771 102.606905 99.430648 102.606905 
z
" style="stroke:#000000;stroke-linejoin:miter;"/>
   </g>
   <g id="patch_4">
    <path clip-path="url(#p35bffb4795)" d="M 420.508782 102.606905 
C 420.721659 102.606905 420.925846 102.522328 421.076373 102.371801 
C 421.2269 102.221274 421.311477 102.017087 421.311477 101.804209 
C 421.311477 101.591332 421.2269 101.387145 421.076373 101.236618 
C 420.925846 101.086091 420.721659 101.001514 420.508782 101.001514 
C 420.295905 101.001514 420.091718 101.086091 419.941191 101.236618 
C 419.790664 101.387145 419.706087 101.591332 419.706087 101.804209 
C 419.706087 102.017087 419.790664 102.221274 419.941191 102.371801 
C 420.091718 102.522328 420.295905 102.606905 420.508782 102.606905 
z
" style="stroke:#000000;stroke-linejoin:miter;"/>
   </g>
   <g id="patch_5">
    <path clip-path="url(#p35bffb4795)" d="M 261.591322 102.606905 
C 261.804199 102.606905 262.008386 102.522328 262.158913 102.371801 
C 262.30944 102.221274 262.394017 102.017087 262.394017 101.804209 
C 262.394017 101.591332 262.30944 101.387145 262.158913 101.236618 
C 262.008386 101.086091 261.804199 101.001514 261.591322 101.001514 
C 261.378445 101.001514 261.174257 101.086091 261.02373 101.236618 
C 260.873204 101.387145 260.788626 101.591332 260.788626 101.804209 
C 260.788626 102.017087 260.873204 102.221274 261.02373 102.371801 
C 261.174257 102.522328 261.378445 102.606905 261.591322 102.606905 
z
" style="stroke:#000000;stroke-linejoin:miter;"/>
   </g>
   <g id="line2d_1">
    <path clip-path="url(#p35bffb4795)" d="M 99.430648 101.804209 
L 102.673861 101.804209 
L 105.917075 101.804209 
L 109.160288 101.804209 
L 112.403502 101.804209 
L 115.646715 101.804209 
L 118.889929 101.804209 
L 122.133142 101.804209 
L 125.376356 101.804209 
L 128.619569 101.804209 
L 131.862783 101.804209 
L 135.105996 101.804209 
L 138.34921 101.804209 
L 141.592423 101.804209 
L 144.835637 101.804209 
L 148.07885 101.804209 
L 151.322064 101.804209 
L 154.565277 101.804209 
L 157.808491 101.804209 
L 161.051704 101.804209 
L 164.294918 101.804209 
L 167.538131 101.804209 
L 170.781344 101.804209 
L 174.024558 101.804209 
L 177.267771 101.804209 
L 180.510985 101.804209 
L 183.754198 101.804209 
L 186.997412 101.804209 
L 190.240625 101.804209 
L 193.483839 101.804209 
L 196.727052 101.804209 
L 199.970266 101.804209 
L 203.213479 101.804209 
L 206.456693 101.804209 
L 209.699906 101.804209 
L 212.94312 101.804209 
L 216.186333 101.804209 
L 219.429547 101.804209 
L 222.67276 101.804209 
L 225.915974 101.804209 
L 229.159187 101.804209 
L 232.402401 101.804209 
L 235.645614 101.804209 
L 238.888827 101.804209 
L 242.132041 101.804209 
L 245.375254 101.804209 
L 248.618468 101.804209 
L 251.861681 101.804209 
L 255.104895 101.804209 
L 258.348108 101.804209 
L 261.591322 101.804209 
L 264.834535 101.804209 
L 268.077749 101.804209 
L 271.320962 101.804209 
L 274.564176 101.804209 
L 277.807389 101.804209 
L 281.050603 101.804209 
L 284.293816 101.804209 
L 287.53703 101.804209 
L 290.780243 101.804209 
L 294.023457 101.804209 
L 297.26667 101.804209 
L 300.509884 101.804209 
L 303.753097 101.804209 
L 306.99631 101.804209 
L 310.239524 101.804209 
L 313.482737 101.804209 
L 316.725951 101.804209 
L 319.969164 101.804209 
L 323.212378 101.804209 
L 326.455591 101.804209 
L 329.698805 101.804209 
L 332.942018 101.804209 
L 336.185232 101.804209 
L 339.428445 101.804209 
L 342.671659 101.804209 
L 345.914872 101.804209 
L 349.158086 101.804209 
L 352.401299 101.804209 
L 355.644513 101.804209 
L 358.887726 101.804209 
L 362.13094 101.804209 
L 365.374153 101.804209 
L 368.617367 101.804209 
L 371.86058 101.804209 
L 375.103793 101.804209 
L 378.347007 101.804209 
L 381.59022 101.804209 
L 384.833434 101.804209 
L 388.076647 101.804209 
L 391.319861 101.804209 
L 394.563074 101.804209 
L 397.806288 101.804209 
L 401.049501 101.804209 
L 404.292715 101.804209 
L 407.535928 101.804209 
L 410.779142 101.804209 
L 414.022355 101.804209 
L 417.265569 101.804209 
L 420.508782 101.804209 
" style="fill:none;stroke:#000000;stroke-linecap:square;"/>
   </g>
   <g id="line2d_2">
    <path clip-path="url(#p35bffb4795)" d="M 104.728437 112.560327 
L 94.132859 123.155905 
L 94.132859 91.048092 
L 104.728437 80.452514 
L 104.728437 112.560327 
" style="fill:none;stroke:#000000;stroke-linecap:square;stroke-width:0.5;"/>
   </g>
   <g id="line2d_3">
    <path clip-path="url(#p35bffb4795)" d="M 425.806571 112.560327 
L 415.210993 123.155905 
L 415.210993 91.048092 
L 425.806571 80.452514 
L 425.806571 112.560327 
" style="fill:none;stroke:#000000;stroke-linecap:square;stroke-width:0.5;"/>
   </g>
   <g id="line2d_4">
    <path clip-path="url(#p35bffb4795)" d="M 266.889111 112.560327 
L 256.293533 123.155905 
L 256.293533 91.048092 
L 266.889111 80.452514 
L 266.889111 112.560327 
" style="fill:none;stroke:#000000;stroke-linecap:round;stroke-width:2.0;"/>
   </g>
   <g id="line2d_5">
    <path clip-path="url(#p35bffb4795)" d="M 104.728437 112.560327 
L 107.971651 112.560327 
L 111.214864 112.560327 
L 114.458078 112.560327 
L 117.701291 112.560327 
L 120.944505 112.560327 
L 124.187718 112.560327 
L 127.430932 112.560327 
L 130.674145 112.560327 
L 133.917358 112.560327 
L 137.160572 112.560327 
L 140.403785 112.560327 
L 143.646999 112.560327 
L 146.890212 112.560327 
L 150.133426 112.560327 
L 153.376639 112.560327 
L 156.619853 112.560327 
L 159.863066 112.560327 
L 163.10628 112.560327 
L 166.349493 112.560327 
L 169.592707 112.560327 
L 172.83592 112.560327 
L 176.079134 112.560327 
L 179.322347 112.560327 
L 182.565561 112.560327 
L 185.808774 112.560327 
L 189.051988 112.560327 
L 192.295201 112.560327 
L 195.538415 112.560327 
L 198.781628 112.560327 
L 202.024841 112.560327 
L 205.268055 112.560327 
L 208.511268 112.560327 
L 211.754482 112.560327 
L 214.997695 112.560327 
L 218.240909 112.560327 
L 221.484122 112.560327 
L 224.727336 112.560327 
L 227.970549 112.560327 
L 231.213763 112.560327 
L 234.456976 112.560327 
L 237.70019 112.560327 
L 240.943403 112.560327 
L 244.186617 112.560327 
L 247.42983 112.560327 
L 250.673044 112.560327 
L 253.916257 112.560327 
L 257.159471 112.560327 
L 260.402684 112.560327 
L 263.645898 112.560327 
L 266.889111 112.560327 
L 270.132324 112.560327 
L 273.375538 112.560327 
L 276.618751 112.560327 
L 279.861965 112.560327 
L 283.105178 112.560327 
L 286.348392 112.560327 
L 289.591605 112.560327 
L 292.834819 112.560327 
L 296.078032 112.560327 
L 299.321246 112.560327 
L 302.564459 112.560327 
L 305.807673 112.560327 
L 309.050886 112.560327 
L 312.2941 112.560327 
L 315.537313 112.560327 
L 318.780527 112.560327 
L 322.02374 112.560327 
L 325.266954 112.560327 
L 328.510167 112.560327 
L 331.753381 112.560327 
L 334.996594 112.560327 
L 338.239807 112.560327 
L 341.483021 112.560327 
L 344.726234 112.560327 
L 347.969448 112.560327 
L 351.212661 112.560327 
L 354.455875 112.560327 
L 357.699088 112.560327 
L 360.942302 112.560327 
L 364.185515 112.560327 
L 367.428729 112.560327 
L 370.671942 112.560327 
L 373.915156 112.560327 
L 377.158369 112.560327 
L 380.401583 112.560327 
L 383.644796 112.560327 
L 386.88801 112.560327 
L 390.131223 112.560327 
L 393.374437 112.560327 
L 396.61765 112.560327 
L 399.860864 112.560327 
L 403.104077 112.560327 
L 406.34729 112.560327 
L 409.590504 112.560327 
L 412.833717 112.560327 
L 416.076931 112.560327 
L 419.320144 112.560327 
L 422.563358 112.560327 
L 425.806571 112.560327 
" style="fill:none;stroke:#000000;stroke-linecap:square;stroke-width:0.5;"/>
   </g>
   <g id="line2d_6">
    <path clip-path="url(#p35bffb4795)" d="M 94.132859 123.155905 
L 97.376072 123.155905 
L 100.619286 123.155905 
L 103.862499 123.155905 
L 107.105713 123.155905 
L 110.348926 123.155905 
L 113.59214 123.155905 
L 116.835353 123.155905 
L 120.078567 123.155905 
L 123.32178 123.155905 
L 126.564994 123.155905 
L 129.808207 123.155905 
L 133.05142 123.155905 
L 136.294634 123.155905 
L 139.537847 123.155905 
L 142.781061 123.155905 
L 146.024274 123.155905 
L 149.267488 123.155905 
L 152.510701 123.155905 
L 155.753915 123.155905 
L 158.997128 123.155905 
L 162.240342 123.155905 
L 165.483555 123.155905 
L 168.726769 123.155905 
L 171.969982 123.155905 
L 175.213196 123.155905 
L 178.456409 123.155905 
L 181.699623 123.155905 
L 184.942836 123.155905 
L 188.18605 123.155905 
L 191.429263 123.155905 
L 194.672477 123.155905 
L 197.91569 123.155905 
L 201.158903 123.155905 
L 204.402117 123.155905 
L 207.64533 123.155905 
L 210.888544 123.155905 
L 214.131757 123.155905 
L 217.374971 123.155905 
L 220.618184 123.155905 
L 223.861398 123.155905 
L 227.104611 123.155905 
L 230.347825 123.155905 
L 233.591038 123.155905 
L 236.834252 123.155905 
L 240.077465 123.155905 
L 243.320679 123.155905 
L 246.563892 123.155905 
L 249.807106 123.155905 
L 253.050319 123.155905 
L 256.293533 123.155905 
L 259.536746 123.155905 
L 262.77996 123.155905 
L 266.023173 123.155905 
L 269.266386 123.155905 
L 272.5096 123.155905 
L 275.752813 123.155905 
L 278.996027 123.155905 
L 282.23924 123.155905 
L 285.482454 123.155905 
L 288.725667 123.155905 
L 291.968881 123.155905 
L 295.212094 123.155905 
L 298.455308 123.155905 
L 301.698521 123.155905 
L 304.941735 123.155905 
L 308.184948 123.155905 
L 311.428162 123.155905 
L 314.671375 123.155905 
L 317.914589 123.155905 
L 321.157802 123.155905 
L 324.401016 123.155905 
L 327.644229 123.155905 
L 330.887443 123.155905 
L 334.130656 123.155905 
L 337.373869 123.155905 
L 340.617083 123.155905 
L 343.860296 123.155905 
L 347.10351 123.155905 
L 350.346723 123.155905 
L 353.589937 123.155905 
L 356.83315 123.155905 
L 360.076364 123.155905 
L 363.319577 123.155905 
L 366.562791 123.155905 
L 369.806004 123.155905 
L 373.049218 123.155905 
L 376.292431 123.155905 
L 379.535645 123.155905 
L 382.778858 123.155905 
L 386.022072 123.155905 
L 389.265285 123.155905 
L 392.508499 123.155905 
L 395.751712 123.155905 
L 398.994926 123.155905 
L 402.238139 123.155905 
L 405.481352 123.155905 
L 408.724566 123.155905 
L 411.967779 123.155905 
L 415.210993 123.155905 
" style="fill:none;stroke:#000000;stroke-linecap:square;stroke-width:0.5;"/>
   </g>
   <g id="line2d_7">
    <path clip-path="url(#p35bffb4795)" d="M 94.132859 91.048092 
L 97.376072 91.048092 
L 100.619286 91.048092 
L 103.862499 91.048092 
L 107.105713 91.048092 
L 110.348926 91.048092 
L 113.59214 91.048092 
L 116.835353 91.048092 
L 120.078567 91.048092 
L 123.32178 91.048092 
L 126.564994 91.048092 
L 129.808207 91.048092 
L 133.05142 91.048092 
L 136.294634 91.048092 
L 139.537847 91.048092 
L 142.781061 91.048092 
L 146.024274 91.048092 
L 149.267488 91.048092 
L 152.510701 91.048092 
L 155.753915 91.048092 
L 158.997128 91.048092 
L 162.240342 91.048092 
L 165.483555 91.048092 
L 168.726769 91.048092 
L 171.969982 91.048092 
L 175.213196 91.048092 
L 178.456409 91.048092 
L 181.699623 91.048092 
L 184.942836 91.048092 
L 188.18605 91.048092 
L 191.429263 91.048092 
L 194.672477 91.048092 
L 197.91569 91.048092 
L 201.158903 91.048092 
L 204.402117 91.048092 
L 207.64533 91.048092 
L 210.888544 91.048092 
L 214.131757 91.048092 
L 217.374971 91.048092 
L 220.618184 91.048092 
L 223.861398 91.048092 
L 227.104611 91.048092 
L 230.347825 91.048092 
L 233.591038 91.048092 
L 236.834252 91.048092 
L 240.077465 91.048092 
L 243.320679 91.048092 
L 246.563892 91.048092 
L 249.807106 91.048092 
L 253.050319 91.048092 
L 256.293533 91.048092 
L 259.536746 91.048092 
L 262.77996 91.048092 
L 266.023173 91.048092 
L 269.266386 91.048092 
L 272.5096 91.048092 
L 275.752813 91.048092 
L 278.996027 91.048092 
L 282.23924 91.048092 
L 285.482454 91.048092 
L 288.725667 91.048092 
L 291.968881 91.048092 
L 295.212094 91.048092 
L 298.455308 91.048092 
L 301.698521 91.048092 
L 304.941735 91.048092 
L 308.184948 91.048092 
L 311.428162 91.048092 
L 314.671375 91.048092 
L 317.914589 91.048092 
L 321.157802 91.048092 
L 324.401016 91.048092 
L 327.644229 91.048092 
L 330.887443 91.048092 
L 334.130656 91.048092 
L 337.373869 91.048092 
L 340.617083 91.048092 
L 343.860296 91.048092 
L 347.10351 91.048092 
L 350.346723 91.048092 
L 353.589937 91.048092 
L 356.83315 91.048092 
L 360.076364 91.048092 
L 363.319577 91.048092 
L 366.562791 91.048092 
L 369.806004 91.048092 
L 373.049218 91.048092 
L 376.292431 91.048092 
L 379.535645 91.048092 
L 382.778858 91.048092 
L 386.022072 91.048092 
L 389.265285 91.048092 
L 392.508499 91.048092 
L 395.751712 91.048092 
L 398.994926 91.048092 
L 402.238139 91.048092 
L 405.481352 91.048092 
L 408.724566 91.048092 
L 411.967779 91.048092 
L 415.210993 91.048092 
" style="fill:none;stroke:#000000;stroke-linecap:square;stroke-width:0.5;"/>
   </g>
   <g id="line2d_8">
    <path clip-path="url(#p35bffb4795)" d="M 104.728437 80.452514 
L 107.971651 80.452514 
L 111.214864 80.452514 
L 114.458078 80.452514 
L 117.701291 80.452514 
L 120.944505 80.452514 
L 124.187718 80.452514 
L 127.430932 80.452514 
L 130.674145 80.452514 
L 133.917358 80.452514 
L 137.160572 80.452514 
L 140.403785 80.452514 
L 143.646999 80.452514 
L 146.890212 80.452514 
L 150.133426 80.452514 
L 153.376639 80.452514 
L 156.619853 80.452514 
L 159.863066 80.452514 
L 163.10628 80.452514 
L 166.349493 80.452514 
L 169.592707 80.452514 
L 172.83592 80.452514 
L 176.079134 80.452514 
L 179.322347 80.452514 
L 182.565561 80.452514 
L 185.808774 80.452514 
L 189.051988 80.452514 
L 192.295201 80.452514 
L 195.538415 80.452514 
L 198.781628 80.452514 
L 202.024841 80.452514 
L 205.268055 80.452514 
L 208.511268 80.452514 
L 211.754482 80.452514 
L 214.997695 80.452514 
L 218.240909 80.452514 
L 221.484122 80.452514 
L 224.727336 80.452514 
L 227.970549 80.452514 
L 231.213763 80.452514 
L 234.456976 80.452514 
L 237.70019 80.452514 
L 240.943403 80.452514 
L 244.186617 80.452514 
L 247.42983 80.452514 
L 250.673044 80.452514 
L 253.916257 80.452514 
L 257.159471 80.452514 
L 260.402684 80.452514 
L 263.645898 80.452514 
L 266.889111 80.452514 
L 270.132324 80.452514 
L 273.375538 80.452514 
L 276.618751 80.452514 
L 279.861965 80.452514 
L 283.105178 80.452514 
L 286.348392 80.452514 
L 289.591605 80.452514 
L 292.834819 80.452514 
L 296.078032 80.452514 
L 299.321246 80.452514 
L 302.564459 80.452514 
L 305.807673 80.452514 
L 309.050886 80.452514 
L 312.2941 80.452514 
L 315.537313 80.452514 
L 318.780527 80.452514 
L 322.02374 80.452514 
L 325.266954 80.452514 
L 328.510167 80.452514 
L 331.753381 80.452514 
L 334.996594 80.452514 
L 338.239807 80.452514 
L 341.483021 80.452514 
L 344.726234 80.452514 
L 347.969448 80.452514 
L 351.212661 80.452514 
L 354.455875 80.452514 
L 357.699088 80.452514 
L 360.942302 80.452514 
L 364.185515 80.452514 
L 367.428729 80.452514 
L 370.671942 80.452514 
L 373.915156 80.452514 
L 377.158369 80.452514 
L 380.401583 80.452514 
L 383.644796 80.452514 
L 386.88801 80.452514 
L 390.131223 80.452514 
L 393.374437 80.452514 
L 396.61765 80.452514 
L 399.860864 80.452514 
L 403.104077 80.452514 
L 406.34729 80.452514 
L 409.590504 80.452514 
L 412.833717 80.452514 
L 416.076931 80.452514 
L 419.320144 80.452514 
L 422.563358 80.452514 
L 425.806571 80.452514 
" style="fill:none;stroke:#000000;stroke-linecap:square;stroke-width:0.5;"/>
   </g>
   <g id="line2d_9">
    <path clip-path="url(#p35bffb4795)" d="M 104.728437 112.560327 
L 107.971651 112.560327 
L 111.214864 112.560327 
L 114.458078 112.560327 
L 117.701291 112.560327 
L 120.944505 112.560327 
L 124.187718 112.560327 
L 127.430932 112.560327 
L 130.674145 112.560327 
L 133.917358 112.560327 
L 137.160572 112.560327 
L 140.403785 112.560327 
L 143.646999 112.560327 
L 146.890212 112.560327 
L 150.133426 112.560327 
L 153.376639 112.560327 
L 156.619853 112.560327 
L 159.863066 112.560327 
L 163.10628 112.560327 
L 166.349493 112.560327 
L 169.592707 112.560327 
L 172.83592 112.560327 
L 176.079134 112.560327 
L 179.322347 112.560327 
L 182.565561 112.560327 
L 185.808774 112.560327 
L 189.051988 112.560327 
L 192.295201 112.560327 
L 195.538415 112.560327 
L 198.781628 112.560327 
L 202.024841 112.560327 
L 205.268055 112.560327 
L 208.511268 112.560327 
L 211.754482 112.560327 
L 214.997695 112.560327 
L 218.240909 112.560327 
L 221.484122 112.560327 
L 224.727336 112.560327 
L 227.970549 112.560327 
L 231.213763 112.560327 
L 234.456976 112.560327 
L 237.70019 112.560327 
L 240.943403 112.560327 
L 244.186617 112.560327 
L 247.42983 112.560327 
L 250.673044 112.560327 
L 253.916257 112.560327 
L 257.159471 112.560327 
L 260.402684 112.560327 
L 263.645898 112.560327 
L 266.889111 112.560327 
L 270.132324 112.560327 
L 273.375538 112.560327 
L 276.618751 112.560327 
L 279.861965 112.560327 
L 283.105178 112.560327 
L 286.348392 112.560327 
L 289.591605 112.560327 
L 292.834819 112.560327 
L 296.078032 112.560327 
L 299.321246 112.560327 
L 302.564459 112.560327 
L 305.807673 112.560327 
L 309.050886 112.560327 
L 312.2941 112.560327 
L 315.537313 112.560327 
L 318.780527 112.560327 
L 322.02374 112.560327 
L 325.266954 112.560327 
L 328.510167 112.560327 
L 331.753381 112.560327 
L 334.996594 112.560327 
L 338.239807 112.560327 
L 341.483021 112.560327 
L 344.726234 112.560327 
L 347.969448 112.560327 
L 351.212661 112.560327 
L 354.455875 112.560327 
L 357.699088 112.560327 
L 360.942302 112.560327 
L 364.185515 112.560327 
L 367.428729 112.560327 
L 370.671942 112.560327 
L 373.915156 112.560327 
L 377.158369 112.560327 
L 380.401583 112.560327 
L 383.644796 112.560327 
L 386.88801 112.560327 
L 390.131223 112.560327 
L 393.374437 112.560327 
L 396.61765 112.560327 
L 399.860864 112.560327 
L 403.104077 112.560327 
L 406.34729 112.560327 
L 409.590504 112.560327 
L 412.833717 112.560327 
L 416.076931 112.560327 
L 419.320144 112.560327 
L 422.563358 112.560327 
L 425.806571 112.560327 
" style="fill:none;stroke:#000000;stroke-linecap:square;stroke-width:0.5;"/>
   </g>
   <g id="line2d_10">
    <path clip-path="url(#p35bffb4795)" d="M 99.430648 109.831163 
L 99.430648 93.777256 
" style="fill:none;stroke:#000000;stroke-linecap:round;"/>
   </g>
   <g id="line2d_11">
    <path clip-path="url(#p35bffb4795)" d="M 99.430648 93.777256 
L 95.417171 89.763779 
" style="fill:none;stroke:#000000;stroke-linecap:round;"/>
   </g>
   <g id="line2d_12">
    <path clip-path="url(#p35bffb4795)" d="M 99.430648 97.790733 
L 95.417171 93.777256 
" style="fill:none;stroke:#000000;stroke-linecap:round;"/>
   </g>
   <g id="line2d_13">
    <path clip-path="url(#p35bffb4795)" d="M 99.430648 101.804209 
L 95.417171 97.790733 
" style="fill:none;stroke:#000000;stroke-linecap:round;"/>
   </g>
   <g id="line2d_14">
    <path clip-path="url(#p35bffb4795)" d="M 99.430648 105.817686 
L 95.417171 101.804209 
" style="fill:none;stroke:#000000;stroke-linecap:round;"/>
   </g>
   <g id="line2d_15">
    <path clip-path="url(#p35bffb4795)" d="M 99.430648 109.831163 
L 95.417171 105.817686 
" style="fill:none;stroke:#000000;stroke-linecap:round;"/>
   </g>
   <g id="matplotlib.axis_1">
    <g id="xtick_1">
     <g id="line2d_16">
      <path clip-path="url(#p35bffb4795)" d="M 99.430648 141.938976 
L 99.430648 37.588583 
" style="fill:none;stroke:#000000;stroke-dasharray:1.000000,3.000000;stroke-dashoffset:0.0;stroke-width:0.5;"/>
     </g>
     <g id="line2d_17">
      <defs>
       <path d="M 0 0 
L 0 -4 
" id="m3cd6ab3d6c" style="stroke:#000000;stroke-width:0.5;"/>
      </defs>
      <g>
       <use style="stroke:#000000;stroke-width:0.5;" x="99.4306479906" xlink:href="#m3cd6ab3d6c" y="141.938976233"/>
      </g>
     </g>
     <g id="text_1">
      <!-- $x = 0$ -->
      <defs>
       <path d="M 27.796875 68.6875 
C 13.5 68.6875 4.09375 56.046875 4.09375 33.890625 
C 4.09375 11.75 13.5 -1 27.796875 -1 
C 42.09375 -1 51.5 11.75 51.5 33.890625 
C 51.5 56.046875 42.09375 68.6875 27.796875 68.6875 
M 27.796875 64 
C 37 64 42 53.765625 42 33.890625 
C 42 14.03125 37 3.796875 27.796875 3.796875 
C 18.59375 3.796875 13.5 13.921875 13.5 33.796875 
C 13.5 53.765625 18.59375 64 27.796875 64 
" id="Bitstream_Charter-48"/>
       <path d="M 5.59375 37 
L 72.796875 37 
L 72.796875 43 
L 5.59375 43 
z
M 5.59375 15 
L 72.796875 15 
L 72.796875 21 
L 5.59375 21 
z
" id="MathDesign_CH_Regular_OT1_10-61"/>
       <path d="M 12.90625 48.90625 
L 2.796875 45.4375 
L 2.796875 43 
L 11.09375 41.875 
C 13.796875 39.34375 16.09375 33.4375 18.703125 24.15625 
C 14.59375 14.078125 9.296875 7.5625 4.796875 5.125 
L 0.203125 9.5 
C -2.90625 8.90625 -4.703125 7.140625 -4.703125 4.5 
C -4.703125 1.34375 -2.296875 -0.8125 1.5 -0.8125 
C 8.09375 -0.8125 14.09375 5.890625 20.59375 19.46875 
C 23.90625 5.140625 25.203125 -0.8125 32.203125 -0.8125 
C 34.90625 -0.8125 38.703125 0.171875 43.40625 2.03125 
L 43.40625 5.125 
C 41 4.40625 39.203125 4 38.09375 4 
C 32.09375 4 30.703125 10.40625 26.796875 24.15625 
C 31.203125 34.546875 35.59375 40.328125 40.203125 41.5625 
L 44.5 37.59375 
C 47.703125 38.921875 49.40625 40.859375 49.40625 43.3125 
C 49.40625 46.453125 46.90625 49 43.703125 49 
C 37.40625 49 31.203125 42.1875 24.59375 28.53125 
C 21.09375 42.3125 19.90625 49 14 49 
C 13.59375 49 13.296875 48.90625 12.90625 48.90625 
" id="Bitstream_Charter_Italic-120"/>
      </defs>
      <g transform="translate(88.0636444322 153.11211967)scale(0.1 -0.1)">
       <use transform="scale(0.956420138348)" xlink:href="#Bitstream_Charter_Italic-120"/>
       <use transform="translate(76.6570246828 0.0)scale(0.956420138348)" xlink:href="#MathDesign_CH_Regular_OT1_10-61"/>
       <use transform="translate(174.163962776 0.0)scale(0.956420138348)" xlink:href="#Bitstream_Charter-48"/>
      </g>
     </g>
    </g>
    <g id="xtick_2">
     <g id="line2d_18">
      <path clip-path="url(#p35bffb4795)" d="M 261.591322 141.938976 
L 261.591322 37.588583 
" style="fill:none;stroke:#000000;stroke-dasharray:1.000000,3.000000;stroke-dashoffset:0.0;stroke-width:0.5;"/>
     </g>
     <g id="line2d_19">
      <g>
       <use style="stroke:#000000;stroke-width:0.5;" x="261.591321797" xlink:href="#m3cd6ab3d6c" y="141.938976233"/>
      </g>
     </g>
     <g id="text_2">
      <!-- $x$ -->
      <g transform="translate(259.310263947 153.11211967)scale(0.1 -0.1)">
       <use transform="scale(0.956420138348)" xlink:href="#Bitstream_Charter_Italic-120"/>
      </g>
     </g>
    </g>
    <g id="xtick_3">
     <g id="line2d_20">
      <path clip-path="url(#p35bffb4795)" d="M 420.508782 141.938976 
L 420.508782 37.588583 
" style="fill:none;stroke:#000000;stroke-dasharray:1.000000,3.000000;stroke-dashoffset:0.0;stroke-width:0.5;"/>
     </g>
     <g id="line2d_21">
      <g>
       <use style="stroke:#000000;stroke-width:0.5;" x="420.508782127" xlink:href="#m3cd6ab3d6c" y="141.938976233"/>
      </g>
     </g>
     <g id="text_3">
      <!-- $x = L$ -->
      <defs>
       <path d="M 8.40625 67.5 
L 8.40625 63.6875 
L 14.90625 63.1875 
L 15.90625 61.6875 
L 5.203125 5.84375 
L 3.59375 4.34375 
L -2.796875 3.828125 
L -2.796875 0 
L 41.796875 0 
L 45.296875 18.5 
L 40.5 18.5 
L 36.59375 6.265625 
L 34.796875 4.640625 
L 13.59375 4.640625 
L 24.59375 61.671875 
L 26.203125 63.1875 
L 32.703125 63.6875 
L 32.703125 67.5 
z
" id="Bitstream_Charter_Italic-76"/>
      </defs>
      <g transform="translate(409.060487037 153.11211967)scale(0.1 -0.1)">
       <use transform="scale(0.956420138348)" xlink:href="#Bitstream_Charter_Italic-120"/>
       <use transform="translate(76.6570246828 0.0)scale(0.956420138348)" xlink:href="#MathDesign_CH_Regular_OT1_10-61"/>
       <use transform="translate(181.337091011 0.0)scale(0.956420138348)" xlink:href="#Bitstream_Charter_Italic-76"/>
      </g>
     </g>
    </g>
   </g>
   <g id="matplotlib.axis_2">
    <g id="ytick_1">
     <g id="line2d_22">
      <path clip-path="url(#p35bffb4795)" d="M 67.322835 101.804209 
L 484.724409 101.804209 
" style="fill:none;stroke:#000000;stroke-dasharray:1.000000,3.000000;stroke-dashoffset:0.0;stroke-width:0.5;"/>
     </g>
     <g id="line2d_23">
      <defs>
       <path d="M 0 0 
L 4 0 
" id="m99c036e194" style="stroke:#000000;stroke-width:0.5;"/>
      </defs>
      <g>
       <use style="stroke:#000000;stroke-width:0.5;" x="67.322834577" xlink:href="#m99c036e194" y="101.804209466"/>
      </g>
     </g>
     <g id="text_4">
      <!-- $0$ -->
      <g transform="translate(58.0051446885 104.310033269)scale(0.1 -0.1)">
       <use transform="scale(0.956420138348)" xlink:href="#Bitstream_Charter-48"/>
      </g>
     </g>
    </g>
   </g>
   <g id="patch_6">
    <path d="M 452.616596 101.804209 
Q 468.670502 101.804209 483.606375 101.804209 
" style="fill:none;stroke:#008000;stroke-linecap:round;"/>
    <path d="M 478.806375 99.404209 
L 483.606375 101.804209 
L 478.806375 104.204209 
" style="fill:none;stroke:#008000;stroke-linecap:round;"/>
   </g>
   <g id="text_5">
    <!-- $\vec x$ -->
    <defs>
     <path d="M 2.8125 63.046875 
L 36.8125 63.046875 
L 30.421875 59.15625 
L 33.609375 54.859375 
L 47.609375 65.25 
L 47.609375 66.75 
L 33.609375 77.25 
L 30.421875 72.953125 
L 36.8125 69.046875 
L 2.8125 69.046875 
z
" id="MathDesign_CH_Regular_Italic_MathItalic_10-126"/>
    </defs>
    <g style="fill:#008000;" transform="translate(468.670502248 97.8042094661)scale(0.12 -0.12)">
     <use transform="translate(1.81720586375 0.0)scale(0.956420138348)" xlink:href="#MathDesign_CH_Regular_Italic_MathItalic_10-126"/>
     <use transform="scale(0.956420138348)" xlink:href="#Bitstream_Charter_Italic-120"/>
    </g>
   </g>
   <g id="patch_7">
    <path d="M 99.430648 69.696396 
Q 99.430648 53.642489 99.430648 38.706617 
" style="fill:none;stroke:#008000;stroke-linecap:round;"/>
    <path d="M 97.030648 43.506617 
L 99.430648 38.706617 
L 101.830648 43.506617 
" style="fill:none;stroke:#008000;stroke-linecap:round;"/>
   </g>
   <g id="text_6">
    <!-- $\vec y$ -->
    <defs>
     <path d="M 8.296875 48.921875 
L -1.5 46.046875 
L -1.5 43.8125 
L 7 43.109375 
C 8.796875 40.65625 10.09375 37.21875 11 32.53125 
L 17.203125 1.9375 
L 17.5 2.140625 
C 11.59375 -9.484375 6.09375 -15.546875 0 -15.546875 
L -5.90625 -9.75 
C -9.203125 -10.25 -11.296875 -12.578125 -11.296875 -15.3125 
C -11.296875 -18.96875 -7.796875 -22 -2.90625 -22 
C 5.40625 -22 14.5 -13.46875 23.703125 3.484375 
C 32 18.71875 36 32.84375 43.296875 41.1875 
L 48.40625 44.21875 
L 48.40625 46.359375 
L 40.5 49 
L 38.59375 49 
C 32.296875 34.0625 27.09375 21.25 22.90625 10.375 
L 19.59375 27.375 
C 16.703125 42.0625 16 49 9.59375 49 
C 9.203125 49 8.703125 49 8.296875 48.921875 
" id="Bitstream_Charter_Italic-121"/>
    </defs>
    <g style="fill:#008000;" transform="translate(102.430647991 53.6424893456)scale(0.12 -0.12)">
     <use transform="scale(0.956420138348)" xlink:href="#MathDesign_CH_Regular_Italic_MathItalic_10-126"/>
     <use transform="translate(1.05206975307 0.0)scale(0.956420138348)" xlink:href="#Bitstream_Charter_Italic-121"/>
    </g>
   </g>
   <g id="patch_8">
    <path d="M 88.83507 112.399788 
Q 83.53728 117.697577 79.030061 122.204797 
" style="fill:none;stroke:#008000;stroke-linecap:round;"/>
    <path d="M 84.121229 120.507741 
L 79.030061 122.204797 
L 80.727117 117.113628 
" style="fill:none;stroke:#008000;stroke-linecap:round;"/>
   </g>
   <g id="text_7">
    <!-- $\vec z$ -->
    <defs>
     <path d="M 37.296875 49.703125 
L 35.40625 44.765625 
C 34.296875 44.265625 33.296875 43.953125 32.40625 43.953125 
C 30.296875 43.953125 28.203125 44.96875 25.59375 46.28125 
C 22.90625 47.6875 20.40625 49 17.40625 49 
C 10.5 49 3.90625 41.921875 3.90625 34.875 
C 3.90625 31.125 5.796875 28.90625 8.59375 28.90625 
C 10.59375 28.90625 12.09375 30.015625 13.296875 32.140625 
L 8 38.609375 
C 9.5 40.734375 11.703125 41.84375 14.296875 41.84375 
C 16.40625 41.84375 19.40625 40.828125 23.09375 38.90625 
L 33 41.140625 
L -1.40625 2.125 
L 4.09375 -0.90625 
L 6.5 3.4375 
C 7.59375 4.03125 8.59375 4.34375 9.703125 4.34375 
C 14.5 4.34375 19.59375 0 25.296875 0 
C 32.59375 0 39.203125 7.171875 39.203125 14.140625 
C 39.203125 17.78125 37.09375 20.203125 34.296875 20.203125 
C 32.59375 20.203125 30.90625 18.984375 29.5 16.5625 
L 35 10.390625 
C 33.40625 7.96875 31.296875 6.75 28.796875 6.75 
C 26.90625 6.75 23.5 7.859375 18.59375 10.09375 
L 8.90625 7.5625 
L 43.40625 46.484375 
z
" id="Bitstream_Charter_Italic-122"/>
    </defs>
    <g style="fill:#008000;" transform="translate(82.5372803509 129.697577106)scale(0.12 -0.12)">
     <use transform="translate(1.62589143252 0.143474422089)scale(0.956420138348)" xlink:href="#MathDesign_CH_Regular_Italic_MathItalic_10-126"/>
     <use transform="scale(0.956420138348)" xlink:href="#Bitstream_Charter_Italic-122"/>
    </g>
   </g>
   <g id="text_8">
    <!-- $A$ -->
    <defs>
     <path d="M 34.5 68.5 
L -2.40625 4.4375 
L -7.90625 3.828125 
L -7.90625 0 
L 11.90625 0 
L 11.90625 3.828125 
L 5.796875 4.34375 
L 5 5.75 
L 15.703125 25 
L 40 25 
L 43.09375 5.75 
L 42.40625 4.34375 
L 36.5 3.828125 
L 36.5 0 
L 58.40625 0 
L 58.40625 3.828125 
L 53.5 4.34375 
L 51.796875 6.171875 
L 41.09375 68.5 
z
M 34.5 58.390625 
L 39.09375 29.34375 
L 18.203125 29.34375 
z
" id="Bitstream_Charter_Italic-65"/>
    </defs>
    <g transform="translate(105.430647991 97.8042094661)scale(0.12 -0.12)">
     <use transform="scale(0.956420138348)" xlink:href="#Bitstream_Charter_Italic-65"/>
    </g>
   </g>
   <g id="text_9">
    <!-- $B$ -->
    <defs>
     <path d="M 8.40625 68 
L 8.40625 64.171875 
L 14.796875 63.671875 
L 15.796875 62.125 
L 5.203125 5.875 
L 3.5 4.453125 
L -2.796875 3.84375 
L -2.796875 0 
L 22.203125 0 
C 42.40625 0 52.40625 7.40625 52.40625 22.640625 
C 52.40625 30.953125 47 35.625 36.59375 35.625 
C 48.203125 38.625 54.296875 45.40625 54.296875 55.171875 
C 54.296875 64.09375 47.59375 68 34.09375 68 
z
M 19.90625 37.140625 
L 24.703125 63.765625 
C 27.09375 63.96875 28.90625 63.96875 30.203125 63.96875 
C 39.796875 63.96875 44.40625 60.921875 44.40625 54.203125 
C 44.40625 43.84375 37.203125 36.9375 25 36.9375 
C 23.703125 36.9375 22.09375 36.9375 19.90625 37.140625 
M 13.703125 4.34375 
L 19.09375 32.5 
C 22.40625 32.796875 25 33 26.796875 33 
C 37.5 33 42.59375 29.671875 42.59375 21.796875 
C 42.59375 10.078125 35.09375 4.140625 20.296875 4.140625 
C 18.203125 4.140625 16 4.140625 13.703125 4.34375 
" id="Bitstream_Charter_Italic-66"/>
    </defs>
    <g transform="translate(426.508782127 97.8042094661)scale(0.12 -0.12)">
     <use transform="scale(0.956420138348)" xlink:href="#Bitstream_Charter_Italic-66"/>
    </g>
   </g>
   <g id="text_10">
    <!-- $G(x)$ -->
    <defs>
     <path d="M 63.90625 65.984375 
C 59.296875 67.796875 53.203125 69 45.90625 69 
C 36.296875 69 27.5 65.875 20.09375 60.140625 
C 9.796875 52.109375 3.90625 39.9375 3.90625 26.96875 
C 3.90625 10.15625 14.703125 -1 31.203125 -1 
C 36.703125 -1 43.796875 0.109375 52.296875 2.515625 
L 57 26.765625 
L 58.59375 28.171875 
L 65 28.671875 
L 65 32.59375 
L 40.40625 32.59375 
L 40.40625 28.671875 
L 46.90625 28.171875 
L 47.90625 26.765625 
L 44.09375 5.34375 
C 39.796875 4.4375 36.296875 3.9375 33.59375 3.9375 
C 21.796875 3.9375 13.59375 12.578125 13.59375 25.546875 
C 13.59375 38.734375 18.59375 50.09375 26.703125 57.015625 
C 32 61.546875 38.40625 64.0625 45 64.0625 
C 48.5 64.0625 51.90625 63.15625 55.09375 61.5625 
L 56 59.4375 
L 55.703125 49.984375 
L 61 49.984375 
z
" id="Bitstream_Charter_Italic-71"/>
     <path d="M 25.09375 28.796875 
C 25.09375 1.40625 17.09375 -12.203125 5.59375 -14.203125 
L 5.59375 -18.796875 
C 22.203125 -16.796875 33.59375 -1.40625 33.59375 28.796875 
C 33.59375 59 22.203125 74.40625 5.59375 76.40625 
L 5.59375 71.796875 
C 17.09375 69.796875 25.09375 56.203125 25.09375 28.796875 
" id="MathDesign_CH_Regular_OT1_10-41"/>
     <path d="M 14.09375 28.796875 
C 14.09375 56.203125 22.09375 69.796875 33.59375 71.796875 
L 33.59375 76.40625 
C 17 74.40625 5.59375 59 5.59375 28.796875 
C 5.59375 -1.40625 17 -16.796875 33.59375 -18.796875 
L 33.59375 -14.203125 
C 22.09375 -12.203125 14.09375 1.40625 14.09375 28.796875 
" id="MathDesign_CH_Regular_OT1_10-40"/>
    </defs>
    <g transform="translate(267.591321797 97.8042094661)scale(0.12 -0.12)">
     <use transform="scale(0.956420138348)" xlink:href="#Bitstream_Charter_Italic-71"/>
     <use transform="translate(68.2884586852 0.0)scale(0.956420138348)" xlink:href="#MathDesign_CH_Regular_OT1_10-40"/>
     <use transform="translate(113.048860353 0.0)scale(0.956420138348)" xlink:href="#Bitstream_Charter_Italic-120"/>
     <use transform="translate(167.469173826 0.0)scale(0.956420138348)" xlink:href="#MathDesign_CH_Regular_OT1_10-41"/>
    </g>
   </g>
   <g id="patch_9">
    <path d="M 420.508782 53.642489 
Q 420.508782 75.223255 420.508782 95.685987 
" style="fill:none;stroke:#ff0000;stroke-linecap:round;"/>
    <path d="M 422.908782 90.885987 
L 420.508782 95.685987 
L 418.108782 90.885987 
" style="fill:none;stroke:#ff0000;stroke-linecap:round;"/>
   </g>
   <g id="text_11">
    <!-- $\vec F$ -->
    <defs>
     <path d="M 8.59375 68 
L 8.59375 64.171875 
L 15 63.5625 
L 16 62.140625 
L 5.296875 5.796875 
L 3.703125 4.375 
L -2.59375 3.859375 
L -2.59375 0 
L 22.5 0 
L 22.5 4.0625 
L 15.5 4.5625 
L 14.09375 6.09375 
L 19 32 
L 33.09375 32 
L 34.296875 30.46875 
L 33.90625 23.15625 
L 38.203125 23.15625 
L 42.5 45.4375 
L 38.09375 45.4375 
L 35.796875 38.15625 
L 34 36.640625 
L 19.90625 36.640625 
L 24.90625 63.359375 
L 45.09375 63.359375 
L 46.09375 61.734375 
L 46.09375 52.125 
L 50.90625 52.125 
L 54 68 
z
" id="Bitstream_Charter_Italic-70"/>
    </defs>
    <g style="fill:#ff0000;" transform="translate(405.508782127 74.7233494059)scale(0.12 -0.12)">
     <use transform="translate(7.60355150121 17.7893993715)scale(0.956420138348)" xlink:href="#MathDesign_CH_Regular_Italic_MathItalic_10-126"/>
     <use transform="scale(0.956420138348)" xlink:href="#Bitstream_Charter_Italic-70"/>
    </g>
   </g>
  </g>
 </g>
 <defs>
  <clipPath id="p35bffb4795">
   <rect height="104.350393594" width="417.401574377" x="67.322834577" y="37.5885826388"/>
  </clipPath>
 </defs>
</svg>
