<?xml version="1.0" encoding="utf-8" standalone="no"?>
<!DOCTYPE svg PUBLIC "-//W3C//DTD SVG 1.1//EN"
  "http://www.w3.org/Graphics/SVG/1.1/DTD/svg11.dtd">
<!-- Created with matplotlib (http://matplotlib.org/) -->
<svg height="179pt" version="1.1" viewBox="0 0 538 179" width="538pt" xmlns="http://www.w3.org/2000/svg" xmlns:xlink="http://www.w3.org/1999/xlink">
 <defs>
  <style type="text/css">
*{stroke-linecap:butt;stroke-linejoin:round;stroke-miterlimit:100000;}
  </style>
 </defs>
 <g id="figure_1">
  <g id="patch_1">
   <path d="M 0 179.527559 
L 538.582677 179.527559 
L 538.582677 0 
L 0 0 
z
" style="fill:#ffffff;"/>
  </g>
  <g id="axes_1">
   <g id="patch_2">
    <path d="M 67.322835 141.938976 
L 484.724409 141.938976 
L 484.724409 37.588583 
L 67.322835 37.588583 
z
" style="fill:#ffffff;"/>
   </g>
   <g id="PolyCollection_1">
    <path clip-path="url(#p306d9b4d9d)" d="M 99.430648 85.750303 
L 99.430648 101.804209 
L 99.752048 101.804209 
L 100.073447 101.804209 
L 100.394847 101.804209 
L 100.716246 101.804209 
L 101.037646 101.804209 
L 101.359045 101.804209 
L 101.680445 101.804209 
L 102.001844 101.804209 
L 102.323244 101.804209 
L 102.644643 101.804209 
L 102.966043 101.804209 
L 103.287442 101.804209 
L 103.608842 101.804209 
L 103.930241 101.804209 
L 104.251641 101.804209 
L 104.573041 101.804209 
L 104.89444 101.804209 
L 105.21584 101.804209 
L 105.537239 101.804209 
L 105.858639 101.804209 
L 106.180038 101.804209 
L 106.501438 101.804209 
L 106.822837 101.804209 
L 107.144237 101.804209 
L 107.465636 101.804209 
L 107.787036 101.804209 
L 108.108435 101.804209 
L 108.429835 101.804209 
L 108.751234 101.804209 
L 109.072634 101.804209 
L 109.394034 101.804209 
L 109.715433 101.804209 
L 110.036833 101.804209 
L 110.358232 101.804209 
L 110.679632 101.804209 
L 111.001031 101.804209 
L 111.322431 101.804209 
L 111.64383 101.804209 
L 111.96523 101.804209 
L 112.286629 101.804209 
L 112.608029 101.804209 
L 112.929428 101.804209 
L 113.250828 101.804209 
L 113.572227 101.804209 
L 113.893627 101.804209 
L 114.215027 101.804209 
L 114.536426 101.804209 
L 114.857826 101.804209 
L 115.179225 101.804209 
L 115.500625 101.804209 
L 115.822024 101.804209 
L 116.143424 101.804209 
L 116.464823 101.804209 
L 116.786223 101.804209 
L 117.107622 101.804209 
L 117.429022 101.804209 
L 117.750421 101.804209 
L 118.071821 101.804209 
L 118.39322 101.804209 
L 118.71462 101.804209 
L 119.03602 101.804209 
L 119.357419 101.804209 
L 119.678819 101.804209 
L 120.000218 101.804209 
L 120.321618 101.804209 
L 120.643017 101.804209 
L 120.964417 101.804209 
L 121.285816 101.804209 
L 121.607216 101.804209 
L 121.928615 101.804209 
L 122.250015 101.804209 
L 122.571414 101.804209 
L 122.892814 101.804209 
L 123.214213 101.804209 
L 123.535613 101.804209 
L 123.857013 101.804209 
L 124.178412 101.804209 
L 124.499812 101.804209 
L 124.821211 101.804209 
L 125.142611 101.804209 
L 125.46401 101.804209 
L 125.78541 101.804209 
L 126.106809 101.804209 
L 126.428209 101.804209 
L 126.749608 101.804209 
L 127.071008 101.804209 
L 127.392407 101.804209 
L 127.713807 101.804209 
L 128.035206 101.804209 
L 128.356606 101.804209 
L 128.678006 101.804209 
L 128.999405 101.804209 
L 129.320805 101.804209 
L 129.642204 101.804209 
L 129.963604 101.804209 
L 130.285003 101.804209 
L 130.606403 101.804209 
L 130.927802 101.804209 
L 131.249202 101.804209 
L 131.570601 101.804209 
L 131.892001 101.804209 
L 132.2134 101.804209 
L 132.5348 101.804209 
L 132.856199 101.804209 
L 133.177599 101.804209 
L 133.498999 101.804209 
L 133.820398 101.804209 
L 134.141798 101.804209 
L 134.463197 101.804209 
L 134.784597 101.804209 
L 135.105996 101.804209 
L 135.427396 101.804209 
L 135.748795 101.804209 
L 136.070195 101.804209 
L 136.391594 101.804209 
L 136.712994 101.804209 
L 137.034393 101.804209 
L 137.355793 101.804209 
L 137.677192 101.804209 
L 137.998592 101.804209 
L 138.319992 101.804209 
L 138.641391 101.804209 
L 138.962791 101.804209 
L 139.28419 101.804209 
L 139.60559 101.804209 
L 139.926989 101.804209 
L 140.248389 101.804209 
L 140.569788 101.804209 
L 140.891188 101.804209 
L 141.212587 101.804209 
L 141.533987 101.804209 
L 141.855386 101.804209 
L 142.176786 101.804209 
L 142.498186 101.804209 
L 142.819585 101.804209 
L 143.140985 101.804209 
L 143.462384 101.804209 
L 143.783784 101.804209 
L 144.105183 101.804209 
L 144.426583 101.804209 
L 144.747982 101.804209 
L 145.069382 101.804209 
L 145.390781 101.804209 
L 145.712181 101.804209 
L 146.03358 101.804209 
L 146.35498 101.804209 
L 146.676379 101.804209 
L 146.997779 101.804209 
L 147.319179 101.804209 
L 147.640578 101.804209 
L 147.961978 101.804209 
L 148.283377 101.804209 
L 148.604777 101.804209 
L 148.926176 101.804209 
L 149.247576 101.804209 
L 149.568975 101.804209 
L 149.890375 101.804209 
L 150.211774 101.804209 
L 150.533174 101.804209 
L 150.854573 101.804209 
L 151.175973 101.804209 
L 151.497372 101.804209 
L 151.818772 101.804209 
L 152.140172 101.804209 
L 152.461571 101.804209 
L 152.782971 101.804209 
L 153.10437 101.804209 
L 153.42577 101.804209 
L 153.747169 101.804209 
L 154.068569 101.804209 
L 154.389968 101.804209 
L 154.711368 101.804209 
L 155.032767 101.804209 
L 155.354167 101.804209 
L 155.675566 101.804209 
L 155.996966 101.804209 
L 156.318365 101.804209 
L 156.639765 101.804209 
L 156.961165 101.804209 
L 157.282564 101.804209 
L 157.603964 101.804209 
L 157.925363 101.804209 
L 158.246763 101.804209 
L 158.568162 101.804209 
L 158.889562 101.804209 
L 159.210961 101.804209 
L 159.532361 101.804209 
L 159.85376 101.804209 
L 160.17516 101.804209 
L 160.496559 101.804209 
L 160.817959 101.804209 
L 161.139358 101.804209 
L 161.460758 101.804209 
L 161.782158 101.804209 
L 162.103557 101.804209 
L 162.424957 101.804209 
L 162.746356 101.804209 
L 163.067756 101.804209 
L 163.389155 101.804209 
L 163.710555 101.804209 
L 164.031954 101.804209 
L 164.353354 101.804209 
L 164.674753 101.804209 
L 164.996153 101.804209 
L 165.317552 101.804209 
L 165.638952 101.804209 
L 165.960351 101.804209 
L 166.281751 101.804209 
L 166.603151 101.804209 
L 166.92455 101.804209 
L 167.24595 101.804209 
L 167.567349 101.804209 
L 167.888749 101.804209 
L 168.210148 101.804209 
L 168.531548 101.804209 
L 168.852947 101.804209 
L 169.174347 101.804209 
L 169.495746 101.804209 
L 169.817146 101.804209 
L 170.138545 101.804209 
L 170.459945 101.804209 
L 170.781344 101.804209 
L 171.102744 101.804209 
L 171.424144 101.804209 
L 171.745543 101.804209 
L 172.066943 101.804209 
L 172.388342 101.804209 
L 172.709742 101.804209 
L 173.031141 101.804209 
L 173.352541 101.804209 
L 173.67394 101.804209 
L 173.99534 101.804209 
L 174.316739 101.804209 
L 174.638139 101.804209 
L 174.959538 101.804209 
L 175.280938 101.804209 
L 175.602337 101.804209 
L 175.923737 101.804209 
L 176.245137 101.804209 
L 176.566536 101.804209 
L 176.887936 101.804209 
L 177.209335 101.804209 
L 177.530735 101.804209 
L 177.852134 101.804209 
L 178.173534 101.804209 
L 178.494933 101.804209 
L 178.816333 101.804209 
L 179.137732 101.804209 
L 179.459132 101.804209 
L 179.780531 101.804209 
L 180.101931 101.804209 
L 180.42333 101.804209 
L 180.74473 101.804209 
L 181.06613 101.804209 
L 181.387529 101.804209 
L 181.708929 101.804209 
L 182.030328 101.804209 
L 182.351728 101.804209 
L 182.673127 101.804209 
L 182.994527 101.804209 
L 183.315926 101.804209 
L 183.637326 101.804209 
L 183.958725 101.804209 
L 184.280125 101.804209 
L 184.601524 101.804209 
L 184.922924 101.804209 
L 185.244323 101.804209 
L 185.565723 101.804209 
L 185.887123 101.804209 
L 186.208522 101.804209 
L 186.529922 101.804209 
L 186.851321 101.804209 
L 187.172721 101.804209 
L 187.49412 101.804209 
L 187.81552 101.804209 
L 188.136919 101.804209 
L 188.458319 101.804209 
L 188.779718 101.804209 
L 189.101118 101.804209 
L 189.422517 101.804209 
L 189.743917 101.804209 
L 190.065316 101.804209 
L 190.386716 101.804209 
L 190.708116 101.804209 
L 191.029515 101.804209 
L 191.350915 101.804209 
L 191.672314 101.804209 
L 191.993714 101.804209 
L 192.315113 101.804209 
L 192.636513 101.804209 
L 192.957912 101.804209 
L 193.279312 101.804209 
L 193.600711 101.804209 
L 193.922111 101.804209 
L 194.24351 101.804209 
L 194.56491 101.804209 
L 194.886309 101.804209 
L 195.207709 101.804209 
L 195.529109 101.804209 
L 195.850508 101.804209 
L 196.171908 101.804209 
L 196.493307 101.804209 
L 196.814707 101.804209 
L 197.136106 101.804209 
L 197.457506 101.804209 
L 197.778905 101.804209 
L 198.100305 101.804209 
L 198.421704 101.804209 
L 198.743104 101.804209 
L 199.064503 101.804209 
L 199.385903 101.804209 
L 199.707302 101.804209 
L 200.028702 101.804209 
L 200.350102 101.804209 
L 200.671501 101.804209 
L 200.992901 101.804209 
L 201.3143 101.804209 
L 201.6357 101.804209 
L 201.957099 101.804209 
L 202.278499 101.804209 
L 202.599898 101.804209 
L 202.921298 101.804209 
L 203.242697 101.804209 
L 203.564097 101.804209 
L 203.885496 101.804209 
L 204.206896 101.804209 
L 204.528296 101.804209 
L 204.849695 101.804209 
L 205.171095 101.804209 
L 205.492494 101.804209 
L 205.813894 101.804209 
L 206.135293 101.804209 
L 206.456693 101.804209 
L 206.778092 101.804209 
L 207.099492 101.804209 
L 207.420891 101.804209 
L 207.742291 101.804209 
L 208.06369 101.804209 
L 208.38509 101.804209 
L 208.706489 101.804209 
L 209.027889 101.804209 
L 209.349289 101.804209 
L 209.670688 101.804209 
L 209.992088 101.804209 
L 210.313487 101.804209 
L 210.634887 101.804209 
L 210.956286 101.804209 
L 211.277686 101.804209 
L 211.599085 101.804209 
L 211.920485 101.804209 
L 212.241884 101.804209 
L 212.563284 101.804209 
L 212.884683 101.804209 
L 213.206083 101.804209 
L 213.527482 101.804209 
L 213.848882 101.804209 
L 214.170282 101.804209 
L 214.491681 101.804209 
L 214.813081 101.804209 
L 215.13448 101.804209 
L 215.45588 101.804209 
L 215.777279 101.804209 
L 216.098679 101.804209 
L 216.420078 101.804209 
L 216.741478 101.804209 
L 217.062877 101.804209 
L 217.384277 101.804209 
L 217.705676 101.804209 
L 218.027076 101.804209 
L 218.348475 101.804209 
L 218.669875 101.804209 
L 218.991275 101.804209 
L 219.312674 101.804209 
L 219.634074 101.804209 
L 219.955473 101.804209 
L 220.276873 101.804209 
L 220.598272 101.804209 
L 220.919672 101.804209 
L 221.241071 101.804209 
L 221.562471 101.804209 
L 221.88387 101.804209 
L 222.20527 101.804209 
L 222.526669 101.804209 
L 222.848069 101.804209 
L 223.169468 101.804209 
L 223.490868 101.804209 
L 223.812268 101.804209 
L 224.133667 101.804209 
L 224.455067 101.804209 
L 224.776466 101.804209 
L 225.097866 101.804209 
L 225.419265 101.804209 
L 225.740665 101.804209 
L 226.062064 101.804209 
L 226.383464 101.804209 
L 226.704863 101.804209 
L 227.026263 101.804209 
L 227.347662 101.804209 
L 227.669062 101.804209 
L 227.990461 101.804209 
L 228.311861 101.804209 
L 228.633261 101.804209 
L 228.95466 101.804209 
L 229.27606 101.804209 
L 229.597459 101.804209 
L 229.918859 101.804209 
L 230.240258 101.804209 
L 230.561658 101.804209 
L 230.883057 101.804209 
L 231.204457 101.804209 
L 231.525856 101.804209 
L 231.847256 101.804209 
L 232.168655 101.804209 
L 232.490055 101.804209 
L 232.811454 101.804209 
L 233.132854 101.804209 
L 233.454254 101.804209 
L 233.775653 101.804209 
L 234.097053 101.804209 
L 234.418452 101.804209 
L 234.739852 101.804209 
L 235.061251 101.804209 
L 235.382651 101.804209 
L 235.70405 101.804209 
L 236.02545 101.804209 
L 236.346849 101.804209 
L 236.668249 101.804209 
L 236.989648 101.804209 
L 237.311048 101.804209 
L 237.632447 101.804209 
L 237.953847 101.804209 
L 238.275247 101.804209 
L 238.596646 101.804209 
L 238.918046 101.804209 
L 239.239445 101.804209 
L 239.560845 101.804209 
L 239.882244 101.804209 
L 240.203644 101.804209 
L 240.525043 101.804209 
L 240.846443 101.804209 
L 241.167842 101.804209 
L 241.489242 101.804209 
L 241.810641 101.804209 
L 242.132041 101.804209 
L 242.45344 101.804209 
L 242.77484 101.804209 
L 243.09624 101.804209 
L 243.417639 101.804209 
L 243.739039 101.804209 
L 244.060438 101.804209 
L 244.381838 101.804209 
L 244.703237 101.804209 
L 245.024637 101.804209 
L 245.346036 101.804209 
L 245.667436 101.804209 
L 245.988835 101.804209 
L 246.310235 101.804209 
L 246.631634 101.804209 
L 246.953034 101.804209 
L 247.274433 101.804209 
L 247.595833 101.804209 
L 247.917233 101.804209 
L 248.238632 101.804209 
L 248.560032 101.804209 
L 248.881431 101.804209 
L 249.202831 101.804209 
L 249.52423 101.804209 
L 249.84563 101.804209 
L 250.167029 101.804209 
L 250.488429 101.804209 
L 250.809828 101.804209 
L 251.131228 101.804209 
L 251.452627 101.804209 
L 251.774027 101.804209 
L 252.095426 101.804209 
L 252.416826 101.804209 
L 252.738226 101.804209 
L 253.059625 101.804209 
L 253.381025 101.804209 
L 253.702424 101.804209 
L 254.023824 101.804209 
L 254.345223 101.804209 
L 254.666623 101.804209 
L 254.988022 101.804209 
L 255.309422 101.804209 
L 255.630821 101.804209 
L 255.952221 101.804209 
L 256.27362 101.804209 
L 256.59502 101.804209 
L 256.916419 101.804209 
L 257.237819 101.804209 
L 257.559219 101.804209 
L 257.880618 101.804209 
L 258.202018 101.804209 
L 258.523417 101.804209 
L 258.844817 101.804209 
L 259.166216 101.804209 
L 259.487616 101.804209 
L 259.809015 101.804209 
L 260.130415 101.804209 
L 260.451814 101.804209 
L 260.773214 101.804209 
L 261.094613 101.804209 
L 261.416013 101.804209 
L 261.737412 101.804209 
L 262.058812 101.804209 
L 262.380212 101.804209 
L 262.701611 101.804209 
L 263.023011 101.804209 
L 263.34441 101.804209 
L 263.66581 101.804209 
L 263.987209 101.804209 
L 264.308609 101.804209 
L 264.630008 101.804209 
L 264.951408 101.804209 
L 265.272807 101.804209 
L 265.594207 101.804209 
L 265.915606 101.804209 
L 266.237006 101.804209 
L 266.558405 101.804209 
L 266.879805 101.804209 
L 267.201205 101.804209 
L 267.522604 101.804209 
L 267.844004 101.804209 
L 268.165403 101.804209 
L 268.486803 101.804209 
L 268.808202 101.804209 
L 269.129602 101.804209 
L 269.451001 101.804209 
L 269.772401 101.804209 
L 270.0938 101.804209 
L 270.4152 101.804209 
L 270.736599 101.804209 
L 271.057999 101.804209 
L 271.379399 101.804209 
L 271.700798 101.804209 
L 272.022198 101.804209 
L 272.343597 101.804209 
L 272.664997 101.804209 
L 272.986396 101.804209 
L 273.307796 101.804209 
L 273.629195 101.804209 
L 273.950595 101.804209 
L 274.271994 101.804209 
L 274.593394 101.804209 
L 274.914793 101.804209 
L 275.236193 101.804209 
L 275.557592 101.804209 
L 275.878992 101.804209 
L 276.200392 101.804209 
L 276.521791 101.804209 
L 276.843191 101.804209 
L 277.16459 101.804209 
L 277.48599 101.804209 
L 277.807389 101.804209 
L 278.128789 101.804209 
L 278.450188 101.804209 
L 278.771588 101.804209 
L 279.092987 101.804209 
L 279.414387 101.804209 
L 279.735786 101.804209 
L 280.057186 101.804209 
L 280.378585 101.804209 
L 280.699985 101.804209 
L 281.021385 101.804209 
L 281.342784 101.804209 
L 281.664184 101.804209 
L 281.985583 101.804209 
L 282.306983 101.804209 
L 282.628382 101.804209 
L 282.949782 101.804209 
L 283.271181 101.804209 
L 283.592581 101.804209 
L 283.91398 101.804209 
L 284.23538 101.804209 
L 284.556779 101.804209 
L 284.878179 101.804209 
L 285.199578 101.804209 
L 285.520978 101.804209 
L 285.842378 101.804209 
L 286.163777 101.804209 
L 286.485177 101.804209 
L 286.806576 101.804209 
L 287.127976 101.804209 
L 287.449375 101.804209 
L 287.770775 101.804209 
L 288.092174 101.804209 
L 288.413574 101.804209 
L 288.734973 101.804209 
L 289.056373 101.804209 
L 289.377772 101.804209 
L 289.699172 101.804209 
L 290.020571 101.804209 
L 290.341971 101.804209 
L 290.663371 101.804209 
L 290.98477 101.804209 
L 291.30617 101.804209 
L 291.627569 101.804209 
L 291.948969 101.804209 
L 292.270368 101.804209 
L 292.591768 101.804209 
L 292.913167 101.804209 
L 293.234567 101.804209 
L 293.555966 101.804209 
L 293.877366 101.804209 
L 294.198765 101.804209 
L 294.520165 101.804209 
L 294.841564 101.804209 
L 295.162964 101.804209 
L 295.484364 101.804209 
L 295.805763 101.804209 
L 296.127163 101.804209 
L 296.448562 101.804209 
L 296.769962 101.804209 
L 297.091361 101.804209 
L 297.412761 101.804209 
L 297.73416 101.804209 
L 298.05556 101.804209 
L 298.376959 101.804209 
L 298.698359 101.804209 
L 299.019758 101.804209 
L 299.341158 101.804209 
L 299.662557 101.804209 
L 299.983957 101.804209 
L 300.305357 101.804209 
L 300.626756 101.804209 
L 300.948156 101.804209 
L 301.269555 101.804209 
L 301.590955 101.804209 
L 301.912354 101.804209 
L 302.233754 101.804209 
L 302.555153 101.804209 
L 302.876553 101.804209 
L 303.197952 101.804209 
L 303.519352 101.804209 
L 303.840751 101.804209 
L 304.162151 101.804209 
L 304.48355 101.804209 
L 304.80495 101.804209 
L 305.12635 101.804209 
L 305.447749 101.804209 
L 305.769149 101.804209 
L 306.090548 101.804209 
L 306.411948 101.804209 
L 306.733347 101.804209 
L 307.054747 101.804209 
L 307.376146 101.804209 
L 307.697546 101.804209 
L 308.018945 101.804209 
L 308.340345 101.804209 
L 308.661744 101.804209 
L 308.983144 101.804209 
L 309.304543 101.804209 
L 309.625943 101.804209 
L 309.947343 101.804209 
L 310.268742 101.804209 
L 310.590142 101.804209 
L 310.911541 101.804209 
L 311.232941 101.804209 
L 311.55434 101.804209 
L 311.87574 101.804209 
L 312.197139 101.804209 
L 312.518539 101.804209 
L 312.839938 101.804209 
L 313.161338 101.804209 
L 313.482737 101.804209 
L 313.804137 101.804209 
L 314.125536 101.804209 
L 314.446936 101.804209 
L 314.768336 101.804209 
L 315.089735 101.804209 
L 315.411135 101.804209 
L 315.732534 101.804209 
L 316.053934 101.804209 
L 316.375333 101.804209 
L 316.696733 101.804209 
L 317.018132 101.804209 
L 317.339532 101.804209 
L 317.660931 101.804209 
L 317.982331 101.804209 
L 318.30373 101.804209 
L 318.62513 101.804209 
L 318.946529 101.804209 
L 319.267929 101.804209 
L 319.589329 101.804209 
L 319.910728 101.804209 
L 320.232128 101.804209 
L 320.553527 101.804209 
L 320.874927 101.804209 
L 321.196326 101.804209 
L 321.517726 101.804209 
L 321.839125 101.804209 
L 322.160525 101.804209 
L 322.481924 101.804209 
L 322.803324 101.804209 
L 323.124723 101.804209 
L 323.446123 101.804209 
L 323.767522 101.804209 
L 324.088922 101.804209 
L 324.410322 101.804209 
L 324.731721 101.804209 
L 325.053121 101.804209 
L 325.37452 101.804209 
L 325.69592 101.804209 
L 326.017319 101.804209 
L 326.338719 101.804209 
L 326.660118 101.804209 
L 326.981518 101.804209 
L 327.302917 101.804209 
L 327.624317 101.804209 
L 327.945716 101.804209 
L 328.267116 101.804209 
L 328.588515 101.804209 
L 328.909915 101.804209 
L 329.231315 101.804209 
L 329.552714 101.804209 
L 329.874114 101.804209 
L 330.195513 101.804209 
L 330.516913 101.804209 
L 330.838312 101.804209 
L 331.159712 101.804209 
L 331.481111 101.804209 
L 331.802511 101.804209 
L 332.12391 101.804209 
L 332.44531 101.804209 
L 332.766709 101.804209 
L 333.088109 101.804209 
L 333.409509 101.804209 
L 333.730908 101.804209 
L 334.052308 101.804209 
L 334.373707 101.804209 
L 334.695107 101.804209 
L 335.016506 101.804209 
L 335.337906 101.804209 
L 335.659305 101.804209 
L 335.980705 101.804209 
L 336.302104 101.804209 
L 336.623504 101.804209 
L 336.944903 101.804209 
L 337.266303 101.804209 
L 337.587702 101.804209 
L 337.909102 101.804209 
L 338.230502 101.804209 
L 338.551901 101.804209 
L 338.873301 101.804209 
L 339.1947 101.804209 
L 339.5161 101.804209 
L 339.837499 101.804209 
L 340.158899 101.804209 
L 340.480298 101.804209 
L 340.801698 101.804209 
L 341.123097 101.804209 
L 341.444497 101.804209 
L 341.765896 101.804209 
L 342.087296 101.804209 
L 342.408695 101.804209 
L 342.730095 101.804209 
L 343.051495 101.804209 
L 343.372894 101.804209 
L 343.694294 101.804209 
L 344.015693 101.804209 
L 344.337093 101.804209 
L 344.658492 101.804209 
L 344.979892 101.804209 
L 345.301291 101.804209 
L 345.622691 101.804209 
L 345.94409 101.804209 
L 346.26549 101.804209 
L 346.586889 101.804209 
L 346.908289 101.804209 
L 347.229688 101.804209 
L 347.551088 101.804209 
L 347.872488 101.804209 
L 348.193887 101.804209 
L 348.515287 101.804209 
L 348.836686 101.804209 
L 349.158086 101.804209 
L 349.479485 101.804209 
L 349.800885 101.804209 
L 350.122284 101.804209 
L 350.443684 101.804209 
L 350.765083 101.804209 
L 351.086483 101.804209 
L 351.407882 101.804209 
L 351.729282 101.804209 
L 352.050681 101.804209 
L 352.372081 101.804209 
L 352.693481 101.804209 
L 353.01488 101.804209 
L 353.33628 101.804209 
L 353.657679 101.804209 
L 353.979079 101.804209 
L 354.300478 101.804209 
L 354.621878 101.804209 
L 354.943277 101.804209 
L 355.264677 101.804209 
L 355.586076 101.804209 
L 355.907476 101.804209 
L 356.228875 101.804209 
L 356.550275 101.804209 
L 356.871674 101.804209 
L 357.193074 101.804209 
L 357.514474 101.804209 
L 357.835873 101.804209 
L 358.157273 101.804209 
L 358.478672 101.804209 
L 358.800072 101.804209 
L 359.121471 101.804209 
L 359.442871 101.804209 
L 359.76427 101.804209 
L 360.08567 101.804209 
L 360.407069 101.804209 
L 360.728469 101.804209 
L 361.049868 101.804209 
L 361.371268 101.804209 
L 361.692667 101.804209 
L 362.014067 101.804209 
L 362.335467 101.804209 
L 362.656866 101.804209 
L 362.978266 101.804209 
L 363.299665 101.804209 
L 363.621065 101.804209 
L 363.942464 101.804209 
L 364.263864 101.804209 
L 364.585263 101.804209 
L 364.906663 101.804209 
L 365.228062 101.804209 
L 365.549462 101.804209 
L 365.870861 101.804209 
L 366.192261 101.804209 
L 366.51366 101.804209 
L 366.83506 101.804209 
L 367.15646 101.804209 
L 367.477859 101.804209 
L 367.799259 101.804209 
L 368.120658 101.804209 
L 368.442058 101.804209 
L 368.763457 101.804209 
L 369.084857 101.804209 
L 369.406256 101.804209 
L 369.727656 101.804209 
L 370.049055 101.804209 
L 370.370455 101.804209 
L 370.691854 101.804209 
L 371.013254 101.804209 
L 371.334653 101.804209 
L 371.656053 101.804209 
L 371.977453 101.804209 
L 372.298852 101.804209 
L 372.620252 101.804209 
L 372.941651 101.804209 
L 373.263051 101.804209 
L 373.58445 101.804209 
L 373.90585 101.804209 
L 374.227249 101.804209 
L 374.548649 101.804209 
L 374.870048 101.804209 
L 375.191448 101.804209 
L 375.512847 101.804209 
L 375.834247 101.804209 
L 376.155646 101.804209 
L 376.477046 101.804209 
L 376.798446 101.804209 
L 377.119845 101.804209 
L 377.441245 101.804209 
L 377.762644 101.804209 
L 378.084044 101.804209 
L 378.405443 101.804209 
L 378.726843 101.804209 
L 379.048242 101.804209 
L 379.369642 101.804209 
L 379.691041 101.804209 
L 380.012441 101.804209 
L 380.33384 101.804209 
L 380.65524 101.804209 
L 380.976639 101.804209 
L 381.298039 101.804209 
L 381.619439 101.804209 
L 381.940838 101.804209 
L 382.262238 101.804209 
L 382.583637 101.804209 
L 382.905037 101.804209 
L 383.226436 101.804209 
L 383.547836 101.804209 
L 383.869235 101.804209 
L 384.190635 101.804209 
L 384.512034 101.804209 
L 384.833434 101.804209 
L 385.154833 101.804209 
L 385.476233 101.804209 
L 385.797632 101.804209 
L 386.119032 101.804209 
L 386.440432 101.804209 
L 386.761831 101.804209 
L 387.083231 101.804209 
L 387.40463 101.804209 
L 387.72603 101.804209 
L 388.047429 101.804209 
L 388.368829 101.804209 
L 388.690228 101.804209 
L 389.011628 101.804209 
L 389.333027 101.804209 
L 389.654427 101.804209 
L 389.975826 101.804209 
L 390.297226 101.804209 
L 390.618625 101.804209 
L 390.940025 101.804209 
L 391.261425 101.804209 
L 391.582824 101.804209 
L 391.904224 101.804209 
L 392.225623 101.804209 
L 392.547023 101.804209 
L 392.868422 101.804209 
L 393.189822 101.804209 
L 393.511221 101.804209 
L 393.832621 101.804209 
L 394.15402 101.804209 
L 394.47542 101.804209 
L 394.796819 101.804209 
L 395.118219 101.804209 
L 395.439619 101.804209 
L 395.761018 101.804209 
L 396.082418 101.804209 
L 396.403817 101.804209 
L 396.725217 101.804209 
L 397.046616 101.804209 
L 397.368016 101.804209 
L 397.689415 101.804209 
L 398.010815 101.804209 
L 398.332214 101.804209 
L 398.653614 101.804209 
L 398.975013 101.804209 
L 399.296413 101.804209 
L 399.617812 101.804209 
L 399.939212 101.804209 
L 400.260612 101.804209 
L 400.582011 101.804209 
L 400.903411 101.804209 
L 401.22481 101.804209 
L 401.54621 101.804209 
L 401.867609 101.804209 
L 402.189009 101.804209 
L 402.510408 101.804209 
L 402.831808 101.804209 
L 403.153207 101.804209 
L 403.474607 101.804209 
L 403.796006 101.804209 
L 404.117406 101.804209 
L 404.438805 101.804209 
L 404.760205 101.804209 
L 405.081605 101.804209 
L 405.403004 101.804209 
L 405.724404 101.804209 
L 406.045803 101.804209 
L 406.367203 101.804209 
L 406.688602 101.804209 
L 407.010002 101.804209 
L 407.331401 101.804209 
L 407.652801 101.804209 
L 407.9742 101.804209 
L 408.2956 101.804209 
L 408.616999 101.804209 
L 408.938399 101.804209 
L 409.259798 101.804209 
L 409.581198 101.804209 
L 409.902598 101.804209 
L 410.223997 101.804209 
L 410.545397 101.804209 
L 410.866796 101.804209 
L 411.188196 101.804209 
L 411.509595 101.804209 
L 411.830995 101.804209 
L 412.152394 101.804209 
L 412.473794 101.804209 
L 412.795193 101.804209 
L 413.116593 101.804209 
L 413.437992 101.804209 
L 413.759392 101.804209 
L 414.080791 101.804209 
L 414.402191 101.804209 
L 414.723591 101.804209 
L 415.04499 101.804209 
L 415.36639 101.804209 
L 415.687789 101.804209 
L 416.009189 101.804209 
L 416.330588 101.804209 
L 416.651988 101.804209 
L 416.973387 101.804209 
L 417.294787 101.804209 
L 417.616186 101.804209 
L 417.937586 101.804209 
L 418.258985 101.804209 
L 418.580385 101.804209 
L 418.901784 101.804209 
L 419.223184 101.804209 
L 419.544584 101.804209 
L 419.865983 101.804209 
L 420.187383 101.804209 
L 420.508782 101.804209 
L 420.508782 37.588583 
L 420.508782 37.588583 
L 420.187383 37.636793 
L 419.865983 37.685002 
L 419.544584 37.733212 
L 419.223184 37.781422 
L 418.901784 37.829632 
L 418.580385 37.877842 
L 418.258985 37.926052 
L 417.937586 37.974262 
L 417.616186 38.022472 
L 417.294787 38.070682 
L 416.973387 38.118892 
L 416.651988 38.167102 
L 416.330588 38.215312 
L 416.009189 38.263522 
L 415.687789 38.311732 
L 415.36639 38.359942 
L 415.04499 38.408151 
L 414.723591 38.456361 
L 414.402191 38.504571 
L 414.080791 38.552781 
L 413.759392 38.600991 
L 413.437992 38.649201 
L 413.116593 38.697411 
L 412.795193 38.745621 
L 412.473794 38.793831 
L 412.152394 38.842041 
L 411.830995 38.890251 
L 411.509595 38.938461 
L 411.188196 38.986671 
L 410.866796 39.034881 
L 410.545397 39.08309 
L 410.223997 39.1313 
L 409.902598 39.17951 
L 409.581198 39.22772 
L 409.259798 39.27593 
L 408.938399 39.32414 
L 408.616999 39.37235 
L 408.2956 39.42056 
L 407.9742 39.46877 
L 407.652801 39.51698 
L 407.331401 39.56519 
L 407.010002 39.6134 
L 406.688602 39.66161 
L 406.367203 39.70982 
L 406.045803 39.758029 
L 405.724404 39.806239 
L 405.403004 39.854449 
L 405.081605 39.902659 
L 404.760205 39.950869 
L 404.438805 39.999079 
L 404.117406 40.047289 
L 403.796006 40.095499 
L 403.474607 40.143709 
L 403.153207 40.191919 
L 402.831808 40.240129 
L 402.510408 40.288339 
L 402.189009 40.336549 
L 401.867609 40.384759 
L 401.54621 40.432969 
L 401.22481 40.481178 
L 400.903411 40.529388 
L 400.582011 40.577598 
L 400.260612 40.625808 
L 399.939212 40.674018 
L 399.617812 40.722228 
L 399.296413 40.770438 
L 398.975013 40.818648 
L 398.653614 40.866858 
L 398.332214 40.915068 
L 398.010815 40.963278 
L 397.689415 41.011488 
L 397.368016 41.059698 
L 397.046616 41.107908 
L 396.725217 41.156117 
L 396.403817 41.204327 
L 396.082418 41.252537 
L 395.761018 41.300747 
L 395.439619 41.348957 
L 395.118219 41.397167 
L 394.796819 41.445377 
L 394.47542 41.493587 
L 394.15402 41.541797 
L 393.832621 41.590007 
L 393.511221 41.638217 
L 393.189822 41.686427 
L 392.868422 41.734637 
L 392.547023 41.782847 
L 392.225623 41.831056 
L 391.904224 41.879266 
L 391.582824 41.927476 
L 391.261425 41.975686 
L 390.940025 42.023896 
L 390.618625 42.072106 
L 390.297226 42.120316 
L 389.975826 42.168526 
L 389.654427 42.216736 
L 389.333027 42.264946 
L 389.011628 42.313156 
L 388.690228 42.361366 
L 388.368829 42.409576 
L 388.047429 42.457786 
L 387.72603 42.505996 
L 387.40463 42.554205 
L 387.083231 42.602415 
L 386.761831 42.650625 
L 386.440432 42.698835 
L 386.119032 42.747045 
L 385.797632 42.795255 
L 385.476233 42.843465 
L 385.154833 42.891675 
L 384.833434 42.939885 
L 384.512034 42.988095 
L 384.190635 43.036305 
L 383.869235 43.084515 
L 383.547836 43.132725 
L 383.226436 43.180935 
L 382.905037 43.229144 
L 382.583637 43.277354 
L 382.262238 43.325564 
L 381.940838 43.373774 
L 381.619439 43.421984 
L 381.298039 43.470194 
L 380.976639 43.518404 
L 380.65524 43.566614 
L 380.33384 43.614824 
L 380.012441 43.663034 
L 379.691041 43.711244 
L 379.369642 43.759454 
L 379.048242 43.807664 
L 378.726843 43.855874 
L 378.405443 43.904083 
L 378.084044 43.952293 
L 377.762644 44.000503 
L 377.441245 44.048713 
L 377.119845 44.096923 
L 376.798446 44.145133 
L 376.477046 44.193343 
L 376.155646 44.241553 
L 375.834247 44.289763 
L 375.512847 44.337973 
L 375.191448 44.386183 
L 374.870048 44.434393 
L 374.548649 44.482603 
L 374.227249 44.530813 
L 373.90585 44.579022 
L 373.58445 44.627232 
L 373.263051 44.675442 
L 372.941651 44.723652 
L 372.620252 44.771862 
L 372.298852 44.820072 
L 371.977453 44.868282 
L 371.656053 44.916492 
L 371.334653 44.964702 
L 371.013254 45.012912 
L 370.691854 45.061122 
L 370.370455 45.109332 
L 370.049055 45.157542 
L 369.727656 45.205752 
L 369.406256 45.253962 
L 369.084857 45.302171 
L 368.763457 45.350381 
L 368.442058 45.398591 
L 368.120658 45.446801 
L 367.799259 45.495011 
L 367.477859 45.543221 
L 367.15646 45.591431 
L 366.83506 45.639641 
L 366.51366 45.687851 
L 366.192261 45.736061 
L 365.870861 45.784271 
L 365.549462 45.832481 
L 365.228062 45.880691 
L 364.906663 45.928901 
L 364.585263 45.97711 
L 364.263864 46.02532 
L 363.942464 46.07353 
L 363.621065 46.12174 
L 363.299665 46.16995 
L 362.978266 46.21816 
L 362.656866 46.26637 
L 362.335467 46.31458 
L 362.014067 46.36279 
L 361.692667 46.411 
L 361.371268 46.45921 
L 361.049868 46.50742 
L 360.728469 46.55563 
L 360.407069 46.60384 
L 360.08567 46.652049 
L 359.76427 46.700259 
L 359.442871 46.748469 
L 359.121471 46.796679 
L 358.800072 46.844889 
L 358.478672 46.893099 
L 358.157273 46.941309 
L 357.835873 46.989519 
L 357.514474 47.037729 
L 357.193074 47.085939 
L 356.871674 47.134149 
L 356.550275 47.182359 
L 356.228875 47.230569 
L 355.907476 47.278779 
L 355.586076 47.326989 
L 355.264677 47.375198 
L 354.943277 47.423408 
L 354.621878 47.471618 
L 354.300478 47.519828 
L 353.979079 47.568038 
L 353.657679 47.616248 
L 353.33628 47.664458 
L 353.01488 47.712668 
L 352.693481 47.760878 
L 352.372081 47.809088 
L 352.050681 47.857298 
L 351.729282 47.905508 
L 351.407882 47.953718 
L 351.086483 48.001928 
L 350.765083 48.050137 
L 350.443684 48.098347 
L 350.122284 48.146557 
L 349.800885 48.194767 
L 349.479485 48.242977 
L 349.158086 48.291187 
L 348.836686 48.339397 
L 348.515287 48.387607 
L 348.193887 48.435817 
L 347.872488 48.484027 
L 347.551088 48.532237 
L 347.229688 48.580447 
L 346.908289 48.628657 
L 346.586889 48.676867 
L 346.26549 48.725076 
L 345.94409 48.773286 
L 345.622691 48.821496 
L 345.301291 48.869706 
L 344.979892 48.917916 
L 344.658492 48.966126 
L 344.337093 49.014336 
L 344.015693 49.062546 
L 343.694294 49.110756 
L 343.372894 49.158966 
L 343.051495 49.207176 
L 342.730095 49.255386 
L 342.408695 49.303596 
L 342.087296 49.351806 
L 341.765896 49.400016 
L 341.444497 49.448225 
L 341.123097 49.496435 
L 340.801698 49.544645 
L 340.480298 49.592855 
L 340.158899 49.641065 
L 339.837499 49.689275 
L 339.5161 49.737485 
L 339.1947 49.785695 
L 338.873301 49.833905 
L 338.551901 49.882115 
L 338.230502 49.930325 
L 337.909102 49.978535 
L 337.587702 50.026745 
L 337.266303 50.074955 
L 336.944903 50.123164 
L 336.623504 50.171374 
L 336.302104 50.219584 
L 335.980705 50.267794 
L 335.659305 50.316004 
L 335.337906 50.364214 
L 335.016506 50.412424 
L 334.695107 50.460634 
L 334.373707 50.508844 
L 334.052308 50.557054 
L 333.730908 50.605264 
L 333.409509 50.653474 
L 333.088109 50.701684 
L 332.766709 50.749894 
L 332.44531 50.798103 
L 332.12391 50.846313 
L 331.802511 50.894523 
L 331.481111 50.942733 
L 331.159712 50.990943 
L 330.838312 51.039153 
L 330.516913 51.087363 
L 330.195513 51.135573 
L 329.874114 51.183783 
L 329.552714 51.231993 
L 329.231315 51.280203 
L 328.909915 51.328413 
L 328.588515 51.376623 
L 328.267116 51.424833 
L 327.945716 51.473042 
L 327.624317 51.521252 
L 327.302917 51.569462 
L 326.981518 51.617672 
L 326.660118 51.665882 
L 326.338719 51.714092 
L 326.017319 51.762302 
L 325.69592 51.810512 
L 325.37452 51.858722 
L 325.053121 51.906932 
L 324.731721 51.955142 
L 324.410322 52.003352 
L 324.088922 52.051562 
L 323.767522 52.099772 
L 323.446123 52.147982 
L 323.124723 52.196191 
L 322.803324 52.244401 
L 322.481924 52.292611 
L 322.160525 52.340821 
L 321.839125 52.389031 
L 321.517726 52.437241 
L 321.196326 52.485451 
L 320.874927 52.533661 
L 320.553527 52.581871 
L 320.232128 52.630081 
L 319.910728 52.678291 
L 319.589329 52.726501 
L 319.267929 52.774711 
L 318.946529 52.822921 
L 318.62513 52.87113 
L 318.30373 52.91934 
L 317.982331 52.96755 
L 317.660931 53.01576 
L 317.339532 53.06397 
L 317.018132 53.11218 
L 316.696733 53.16039 
L 316.375333 53.2086 
L 316.053934 53.25681 
L 315.732534 53.30502 
L 315.411135 53.35323 
L 315.089735 53.40144 
L 314.768336 53.44965 
L 314.446936 53.49786 
L 314.125536 53.546069 
L 313.804137 53.594279 
L 313.482737 53.642489 
L 313.161338 53.690699 
L 312.839938 53.738909 
L 312.518539 53.787119 
L 312.197139 53.835329 
L 311.87574 53.883539 
L 311.55434 53.931749 
L 311.232941 53.979959 
L 310.911541 54.028169 
L 310.590142 54.076379 
L 310.268742 54.124589 
L 309.947343 54.172799 
L 309.625943 54.221009 
L 309.304543 54.269218 
L 308.983144 54.317428 
L 308.661744 54.365638 
L 308.340345 54.413848 
L 308.018945 54.462058 
L 307.697546 54.510268 
L 307.376146 54.558478 
L 307.054747 54.606688 
L 306.733347 54.654898 
L 306.411948 54.703108 
L 306.090548 54.751318 
L 305.769149 54.799528 
L 305.447749 54.847738 
L 305.12635 54.895948 
L 304.80495 54.944157 
L 304.48355 54.992367 
L 304.162151 55.040577 
L 303.840751 55.088787 
L 303.519352 55.136997 
L 303.197952 55.185207 
L 302.876553 55.233417 
L 302.555153 55.281627 
L 302.233754 55.329837 
L 301.912354 55.378047 
L 301.590955 55.426257 
L 301.269555 55.474467 
L 300.948156 55.522677 
L 300.626756 55.570887 
L 300.305357 55.619096 
L 299.983957 55.667306 
L 299.662557 55.715516 
L 299.341158 55.763726 
L 299.019758 55.811936 
L 298.698359 55.860146 
L 298.376959 55.908356 
L 298.05556 55.956566 
L 297.73416 56.004776 
L 297.412761 56.052986 
L 297.091361 56.101196 
L 296.769962 56.149406 
L 296.448562 56.197616 
L 296.127163 56.245826 
L 295.805763 56.294035 
L 295.484364 56.342245 
L 295.162964 56.390455 
L 294.841564 56.438665 
L 294.520165 56.486875 
L 294.198765 56.535085 
L 293.877366 56.583295 
L 293.555966 56.631505 
L 293.234567 56.679715 
L 292.913167 56.727925 
L 292.591768 56.776135 
L 292.270368 56.824345 
L 291.948969 56.872555 
L 291.627569 56.920765 
L 291.30617 56.968975 
L 290.98477 57.017184 
L 290.663371 57.065394 
L 290.341971 57.113604 
L 290.020571 57.161814 
L 289.699172 57.210024 
L 289.377772 57.258234 
L 289.056373 57.306444 
L 288.734973 57.354654 
L 288.413574 57.402864 
L 288.092174 57.451074 
L 287.770775 57.499284 
L 287.449375 57.547494 
L 287.127976 57.595704 
L 286.806576 57.643914 
L 286.485177 57.692123 
L 286.163777 57.740333 
L 285.842378 57.788543 
L 285.520978 57.836753 
L 285.199578 57.884963 
L 284.878179 57.933173 
L 284.556779 57.981383 
L 284.23538 58.029593 
L 283.91398 58.077803 
L 283.592581 58.126013 
L 283.271181 58.174223 
L 282.949782 58.222433 
L 282.628382 58.270643 
L 282.306983 58.318853 
L 281.985583 58.367062 
L 281.664184 58.415272 
L 281.342784 58.463482 
L 281.021385 58.511692 
L 280.699985 58.559902 
L 280.378585 58.608112 
L 280.057186 58.656322 
L 279.735786 58.704532 
L 279.414387 58.752742 
L 279.092987 58.800952 
L 278.771588 58.849162 
L 278.450188 58.897372 
L 278.128789 58.945582 
L 277.807389 58.993792 
L 277.48599 59.042002 
L 277.16459 59.090211 
L 276.843191 59.138421 
L 276.521791 59.186631 
L 276.200392 59.234841 
L 275.878992 59.283051 
L 275.557592 59.331261 
L 275.236193 59.379471 
L 274.914793 59.427681 
L 274.593394 59.475891 
L 274.271994 59.524101 
L 273.950595 59.572311 
L 273.629195 59.620521 
L 273.307796 59.668731 
L 272.986396 59.716941 
L 272.664997 59.76515 
L 272.343597 59.81336 
L 272.022198 59.86157 
L 271.700798 59.90978 
L 271.379399 59.95799 
L 271.057999 60.0062 
L 270.736599 60.05441 
L 270.4152 60.10262 
L 270.0938 60.15083 
L 269.772401 60.19904 
L 269.451001 60.24725 
L 269.129602 60.29546 
L 268.808202 60.34367 
L 268.486803 60.39188 
L 268.165403 60.440089 
L 267.844004 60.488299 
L 267.522604 60.536509 
L 267.201205 60.584719 
L 266.879805 60.632929 
L 266.558405 60.681139 
L 266.237006 60.729349 
L 265.915606 60.777559 
L 265.594207 60.825769 
L 265.272807 60.873979 
L 264.951408 60.922189 
L 264.630008 60.970399 
L 264.308609 61.018609 
L 263.987209 61.066819 
L 263.66581 61.115029 
L 263.34441 61.163238 
L 263.023011 61.211448 
L 262.701611 61.259658 
L 262.380212 61.307868 
L 262.058812 61.356078 
L 261.737412 61.404288 
L 261.416013 61.452498 
L 261.094613 61.500708 
L 260.773214 61.548918 
L 260.451814 61.597128 
L 260.130415 61.645338 
L 259.809015 61.693548 
L 259.487616 61.741758 
L 259.166216 61.789968 
L 258.844817 61.838177 
L 258.523417 61.886387 
L 258.202018 61.934597 
L 257.880618 61.982807 
L 257.559219 62.031017 
L 257.237819 62.079227 
L 256.916419 62.127437 
L 256.59502 62.175647 
L 256.27362 62.223857 
L 255.952221 62.272067 
L 255.630821 62.320277 
L 255.309422 62.368487 
L 254.988022 62.416697 
L 254.666623 62.464907 
L 254.345223 62.513116 
L 254.023824 62.561326 
L 253.702424 62.609536 
L 253.381025 62.657746 
L 253.059625 62.705956 
L 252.738226 62.754166 
L 252.416826 62.802376 
L 252.095426 62.850586 
L 251.774027 62.898796 
L 251.452627 62.947006 
L 251.131228 62.995216 
L 250.809828 63.043426 
L 250.488429 63.091636 
L 250.167029 63.139846 
L 249.84563 63.188055 
L 249.52423 63.236265 
L 249.202831 63.284475 
L 248.881431 63.332685 
L 248.560032 63.380895 
L 248.238632 63.429105 
L 247.917233 63.477315 
L 247.595833 63.525525 
L 247.274433 63.573735 
L 246.953034 63.621945 
L 246.631634 63.670155 
L 246.310235 63.718365 
L 245.988835 63.766575 
L 245.667436 63.814785 
L 245.346036 63.862995 
L 245.024637 63.911204 
L 244.703237 63.959414 
L 244.381838 64.007624 
L 244.060438 64.055834 
L 243.739039 64.104044 
L 243.417639 64.152254 
L 243.09624 64.200464 
L 242.77484 64.248674 
L 242.45344 64.296884 
L 242.132041 64.345094 
L 241.810641 64.393304 
L 241.489242 64.441514 
L 241.167842 64.489724 
L 240.846443 64.537934 
L 240.525043 64.586143 
L 240.203644 64.634353 
L 239.882244 64.682563 
L 239.560845 64.730773 
L 239.239445 64.778983 
L 238.918046 64.827193 
L 238.596646 64.875403 
L 238.275247 64.923613 
L 237.953847 64.971823 
L 237.632447 65.020033 
L 237.311048 65.068243 
L 236.989648 65.116453 
L 236.668249 65.164663 
L 236.346849 65.212873 
L 236.02545 65.261082 
L 235.70405 65.309292 
L 235.382651 65.357502 
L 235.061251 65.405712 
L 234.739852 65.453922 
L 234.418452 65.502132 
L 234.097053 65.550342 
L 233.775653 65.598552 
L 233.454254 65.646762 
L 233.132854 65.694972 
L 232.811454 65.743182 
L 232.490055 65.791392 
L 232.168655 65.839602 
L 231.847256 65.887812 
L 231.525856 65.936022 
L 231.204457 65.984231 
L 230.883057 66.032441 
L 230.561658 66.080651 
L 230.240258 66.128861 
L 229.918859 66.177071 
L 229.597459 66.225281 
L 229.27606 66.273491 
L 228.95466 66.321701 
L 228.633261 66.369911 
L 228.311861 66.418121 
L 227.990461 66.466331 
L 227.669062 66.514541 
L 227.347662 66.562751 
L 227.026263 66.610961 
L 226.704863 66.65917 
L 226.383464 66.70738 
L 226.062064 66.75559 
L 225.740665 66.8038 
L 225.419265 66.85201 
L 225.097866 66.90022 
L 224.776466 66.94843 
L 224.455067 66.99664 
L 224.133667 67.04485 
L 223.812268 67.09306 
L 223.490868 67.14127 
L 223.169468 67.18948 
L 222.848069 67.23769 
L 222.526669 67.2859 
L 222.20527 67.334109 
L 221.88387 67.382319 
L 221.562471 67.430529 
L 221.241071 67.478739 
L 220.919672 67.526949 
L 220.598272 67.575159 
L 220.276873 67.623369 
L 219.955473 67.671579 
L 219.634074 67.719789 
L 219.312674 67.767999 
L 218.991275 67.816209 
L 218.669875 67.864419 
L 218.348475 67.912629 
L 218.027076 67.960839 
L 217.705676 68.009049 
L 217.384277 68.057258 
L 217.062877 68.105468 
L 216.741478 68.153678 
L 216.420078 68.201888 
L 216.098679 68.250098 
L 215.777279 68.298308 
L 215.45588 68.346518 
L 215.13448 68.394728 
L 214.813081 68.442938 
L 214.491681 68.491148 
L 214.170282 68.539358 
L 213.848882 68.587568 
L 213.527482 68.635778 
L 213.206083 68.683988 
L 212.884683 68.732197 
L 212.563284 68.780407 
L 212.241884 68.828617 
L 211.920485 68.876827 
L 211.599085 68.925037 
L 211.277686 68.973247 
L 210.956286 69.021457 
L 210.634887 69.069667 
L 210.313487 69.117877 
L 209.992088 69.166087 
L 209.670688 69.214297 
L 209.349289 69.262507 
L 209.027889 69.310717 
L 208.706489 69.358927 
L 208.38509 69.407136 
L 208.06369 69.455346 
L 207.742291 69.503556 
L 207.420891 69.551766 
L 207.099492 69.599976 
L 206.778092 69.648186 
L 206.456693 69.696396 
L 206.135293 69.744606 
L 205.813894 69.792816 
L 205.492494 69.841026 
L 205.171095 69.889236 
L 204.849695 69.937446 
L 204.528296 69.985656 
L 204.206896 70.033866 
L 203.885496 70.082075 
L 203.564097 70.130285 
L 203.242697 70.178495 
L 202.921298 70.226705 
L 202.599898 70.274915 
L 202.278499 70.323125 
L 201.957099 70.371335 
L 201.6357 70.419545 
L 201.3143 70.467755 
L 200.992901 70.515965 
L 200.671501 70.564175 
L 200.350102 70.612385 
L 200.028702 70.660595 
L 199.707302 70.708805 
L 199.385903 70.757015 
L 199.064503 70.805224 
L 198.743104 70.853434 
L 198.421704 70.901644 
L 198.100305 70.949854 
L 197.778905 70.998064 
L 197.457506 71.046274 
L 197.136106 71.094484 
L 196.814707 71.142694 
L 196.493307 71.190904 
L 196.171908 71.239114 
L 195.850508 71.287324 
L 195.529109 71.335534 
L 195.207709 71.383744 
L 194.886309 71.431954 
L 194.56491 71.480163 
L 194.24351 71.528373 
L 193.922111 71.576583 
L 193.600711 71.624793 
L 193.279312 71.673003 
L 192.957912 71.721213 
L 192.636513 71.769423 
L 192.315113 71.817633 
L 191.993714 71.865843 
L 191.672314 71.914053 
L 191.350915 71.962263 
L 191.029515 72.010473 
L 190.708116 72.058683 
L 190.386716 72.106893 
L 190.065316 72.155102 
L 189.743917 72.203312 
L 189.422517 72.251522 
L 189.101118 72.299732 
L 188.779718 72.347942 
L 188.458319 72.396152 
L 188.136919 72.444362 
L 187.81552 72.492572 
L 187.49412 72.540782 
L 187.172721 72.588992 
L 186.851321 72.637202 
L 186.529922 72.685412 
L 186.208522 72.733622 
L 185.887123 72.781832 
L 185.565723 72.830042 
L 185.244323 72.878251 
L 184.922924 72.926461 
L 184.601524 72.974671 
L 184.280125 73.022881 
L 183.958725 73.071091 
L 183.637326 73.119301 
L 183.315926 73.167511 
L 182.994527 73.215721 
L 182.673127 73.263931 
L 182.351728 73.312141 
L 182.030328 73.360351 
L 181.708929 73.408561 
L 181.387529 73.456771 
L 181.06613 73.504981 
L 180.74473 73.55319 
L 180.42333 73.6014 
L 180.101931 73.64961 
L 179.780531 73.69782 
L 179.459132 73.74603 
L 179.137732 73.79424 
L 178.816333 73.84245 
L 178.494933 73.89066 
L 178.173534 73.93887 
L 177.852134 73.98708 
L 177.530735 74.03529 
L 177.209335 74.0835 
L 176.887936 74.13171 
L 176.566536 74.17992 
L 176.245137 74.228129 
L 175.923737 74.276339 
L 175.602337 74.324549 
L 175.280938 74.372759 
L 174.959538 74.420969 
L 174.638139 74.469179 
L 174.316739 74.517389 
L 173.99534 74.565599 
L 173.67394 74.613809 
L 173.352541 74.662019 
L 173.031141 74.710229 
L 172.709742 74.758439 
L 172.388342 74.806649 
L 172.066943 74.854859 
L 171.745543 74.903068 
L 171.424144 74.951278 
L 171.102744 74.999488 
L 170.781344 75.047698 
L 170.459945 75.095908 
L 170.138545 75.144118 
L 169.817146 75.192328 
L 169.495746 75.240538 
L 169.174347 75.288748 
L 168.852947 75.336958 
L 168.531548 75.385168 
L 168.210148 75.433378 
L 167.888749 75.481588 
L 167.567349 75.529798 
L 167.24595 75.578008 
L 166.92455 75.626217 
L 166.603151 75.674427 
L 166.281751 75.722637 
L 165.960351 75.770847 
L 165.638952 75.819057 
L 165.317552 75.867267 
L 164.996153 75.915477 
L 164.674753 75.963687 
L 164.353354 76.011897 
L 164.031954 76.060107 
L 163.710555 76.108317 
L 163.389155 76.156527 
L 163.067756 76.204737 
L 162.746356 76.252947 
L 162.424957 76.301156 
L 162.103557 76.349366 
L 161.782158 76.397576 
L 161.460758 76.445786 
L 161.139358 76.493996 
L 160.817959 76.542206 
L 160.496559 76.590416 
L 160.17516 76.638626 
L 159.85376 76.686836 
L 159.532361 76.735046 
L 159.210961 76.783256 
L 158.889562 76.831466 
L 158.568162 76.879676 
L 158.246763 76.927886 
L 157.925363 76.976095 
L 157.603964 77.024305 
L 157.282564 77.072515 
L 156.961165 77.120725 
L 156.639765 77.168935 
L 156.318365 77.217145 
L 155.996966 77.265355 
L 155.675566 77.313565 
L 155.354167 77.361775 
L 155.032767 77.409985 
L 154.711368 77.458195 
L 154.389968 77.506405 
L 154.068569 77.554615 
L 153.747169 77.602825 
L 153.42577 77.651035 
L 153.10437 77.699244 
L 152.782971 77.747454 
L 152.461571 77.795664 
L 152.140172 77.843874 
L 151.818772 77.892084 
L 151.497372 77.940294 
L 151.175973 77.988504 
L 150.854573 78.036714 
L 150.533174 78.084924 
L 150.211774 78.133134 
L 149.890375 78.181344 
L 149.568975 78.229554 
L 149.247576 78.277764 
L 148.926176 78.325974 
L 148.604777 78.374183 
L 148.283377 78.422393 
L 147.961978 78.470603 
L 147.640578 78.518813 
L 147.319179 78.567023 
L 146.997779 78.615233 
L 146.676379 78.663443 
L 146.35498 78.711653 
L 146.03358 78.759863 
L 145.712181 78.808073 
L 145.390781 78.856283 
L 145.069382 78.904493 
L 144.747982 78.952703 
L 144.426583 79.000913 
L 144.105183 79.049122 
L 143.783784 79.097332 
L 143.462384 79.145542 
L 143.140985 79.193752 
L 142.819585 79.241962 
L 142.498186 79.290172 
L 142.176786 79.338382 
L 141.855386 79.386592 
L 141.533987 79.434802 
L 141.212587 79.483012 
L 140.891188 79.531222 
L 140.569788 79.579432 
L 140.248389 79.627642 
L 139.926989 79.675852 
L 139.60559 79.724062 
L 139.28419 79.772271 
L 138.962791 79.820481 
L 138.641391 79.868691 
L 138.319992 79.916901 
L 137.998592 79.965111 
L 137.677192 80.013321 
L 137.355793 80.061531 
L 137.034393 80.109741 
L 136.712994 80.157951 
L 136.391594 80.206161 
L 136.070195 80.254371 
L 135.748795 80.302581 
L 135.427396 80.350791 
L 135.105996 80.399001 
L 134.784597 80.44721 
L 134.463197 80.49542 
L 134.141798 80.54363 
L 133.820398 80.59184 
L 133.498999 80.64005 
L 133.177599 80.68826 
L 132.856199 80.73647 
L 132.5348 80.78468 
L 132.2134 80.83289 
L 131.892001 80.8811 
L 131.570601 80.92931 
L 131.249202 80.97752 
L 130.927802 81.02573 
L 130.606403 81.07394 
L 130.285003 81.122149 
L 129.963604 81.170359 
L 129.642204 81.218569 
L 129.320805 81.266779 
L 128.999405 81.314989 
L 128.678006 81.363199 
L 128.356606 81.411409 
L 128.035206 81.459619 
L 127.713807 81.507829 
L 127.392407 81.556039 
L 127.071008 81.604249 
L 126.749608 81.652459 
L 126.428209 81.700669 
L 126.106809 81.748879 
L 125.78541 81.797088 
L 125.46401 81.845298 
L 125.142611 81.893508 
L 124.821211 81.941718 
L 124.499812 81.989928 
L 124.178412 82.038138 
L 123.857013 82.086348 
L 123.535613 82.134558 
L 123.214213 82.182768 
L 122.892814 82.230978 
L 122.571414 82.279188 
L 122.250015 82.327398 
L 121.928615 82.375608 
L 121.607216 82.423818 
L 121.285816 82.472028 
L 120.964417 82.520237 
L 120.643017 82.568447 
L 120.321618 82.616657 
L 120.000218 82.664867 
L 119.678819 82.713077 
L 119.357419 82.761287 
L 119.03602 82.809497 
L 118.71462 82.857707 
L 118.39322 82.905917 
L 118.071821 82.954127 
L 117.750421 83.002337 
L 117.429022 83.050547 
L 117.107622 83.098757 
L 116.786223 83.146967 
L 116.464823 83.195176 
L 116.143424 83.243386 
L 115.822024 83.291596 
L 115.500625 83.339806 
L 115.179225 83.388016 
L 114.857826 83.436226 
L 114.536426 83.484436 
L 114.215027 83.532646 
L 113.893627 83.580856 
L 113.572227 83.629066 
L 113.250828 83.677276 
L 112.929428 83.725486 
L 112.608029 83.773696 
L 112.286629 83.821906 
L 111.96523 83.870115 
L 111.64383 83.918325 
L 111.322431 83.966535 
L 111.001031 84.014745 
L 110.679632 84.062955 
L 110.358232 84.111165 
L 110.036833 84.159375 
L 109.715433 84.207585 
L 109.394034 84.255795 
L 109.072634 84.304005 
L 108.751234 84.352215 
L 108.429835 84.400425 
L 108.108435 84.448635 
L 107.787036 84.496845 
L 107.465636 84.545055 
L 107.144237 84.593264 
L 106.822837 84.641474 
L 106.501438 84.689684 
L 106.180038 84.737894 
L 105.858639 84.786104 
L 105.537239 84.834314 
L 105.21584 84.882524 
L 104.89444 84.930734 
L 104.573041 84.978944 
L 104.251641 85.027154 
L 103.930241 85.075364 
L 103.608842 85.123574 
L 103.287442 85.171784 
L 102.966043 85.219994 
L 102.644643 85.268203 
L 102.323244 85.316413 
L 102.001844 85.364623 
L 101.680445 85.412833 
L 101.359045 85.461043 
L 101.037646 85.509253 
L 100.716246 85.557463 
L 100.394847 85.605673 
L 100.073447 85.653883 
L 99.752048 85.702093 
L 99.430648 85.750303 
z
" style="fill:#ff0000;fill-opacity:0.5;"/>
   </g>
   <g id="patch_3">
    <path clip-path="url(#p306d9b4d9d)" d="M 340.239249 107.021729 
C 340.771442 107.021729 341.281909 106.810287 341.658227 106.433969 
C 342.034544 106.057652 342.245987 105.547184 342.245987 105.014991 
C 342.245987 104.482798 342.034544 103.97233 341.658227 103.596013 
C 341.281909 103.219695 340.771442 103.008252 340.239249 103.008252 
C 339.707055 103.008252 339.196588 103.219695 338.82027 103.596013 
C 338.443953 103.97233 338.23251 104.482798 338.23251 105.014991 
C 338.23251 105.547184 338.443953 106.057652 338.82027 106.433969 
C 339.196588 106.810287 339.707055 107.021729 340.239249 107.021729 
z
" style="fill:none;stroke:#000000;stroke-linejoin:miter;"/>
   </g>
   <g id="patch_4">
    <path clip-path="url(#p306d9b4d9d)" d="M 99.430648 102.606905 
C 99.643525 102.606905 99.847712 102.522328 99.998239 102.371801 
C 100.148766 102.221274 100.233343 102.017087 100.233343 101.804209 
C 100.233343 101.591332 100.148766 101.387145 99.998239 101.236618 
C 99.847712 101.086091 99.643525 101.001514 99.430648 101.001514 
C 99.217771 101.001514 99.013584 101.086091 98.863057 101.236618 
C 98.71253 101.387145 98.627953 101.591332 98.627953 101.804209 
C 98.627953 102.017087 98.71253 102.221274 98.863057 102.371801 
C 99.013584 102.522328 99.217771 102.606905 99.430648 102.606905 
z
" style="stroke:#000000;stroke-linejoin:miter;"/>
   </g>
   <g id="patch_5">
    <path clip-path="url(#p306d9b4d9d)" d="M 179.700182 102.606905 
C 179.913059 102.606905 180.117246 102.522328 180.267773 102.371801 
C 180.4183 102.221274 180.502877 102.017087 180.502877 101.804209 
C 180.502877 101.591332 180.4183 101.387145 180.267773 101.236618 
C 180.117246 101.086091 179.913059 101.001514 179.700182 101.001514 
C 179.487304 101.001514 179.283117 101.086091 179.13259 101.236618 
C 178.982063 101.387145 178.897486 101.591332 178.897486 101.804209 
C 178.897486 102.017087 178.982063 102.221274 179.13259 102.371801 
C 179.283117 102.522328 179.487304 102.606905 179.700182 102.606905 
z
" style="stroke:#000000;stroke-linejoin:miter;"/>
   </g>
   <g id="patch_6">
    <path clip-path="url(#p306d9b4d9d)" d="M 340.239249 102.606905 
C 340.452126 102.606905 340.656313 102.522328 340.80684 102.371801 
C 340.957367 102.221274 341.041944 102.017087 341.041944 101.804209 
C 341.041944 101.591332 340.957367 101.387145 340.80684 101.236618 
C 340.656313 101.086091 340.452126 101.001514 340.239249 101.001514 
C 340.026371 101.001514 339.822184 101.086091 339.671657 101.236618 
C 339.52113 101.387145 339.436553 101.591332 339.436553 101.804209 
C 339.436553 102.017087 339.52113 102.221274 339.671657 102.371801 
C 339.822184 102.522328 340.026371 102.606905 340.239249 102.606905 
z
" style="stroke:#000000;stroke-linejoin:miter;"/>
   </g>
   <g id="patch_7">
    <path clip-path="url(#p306d9b4d9d)" d="M 420.508782 102.606905 
C 420.721659 102.606905 420.925846 102.522328 421.076373 102.371801 
C 421.2269 102.221274 421.311477 102.017087 421.311477 101.804209 
C 421.311477 101.591332 421.2269 101.387145 421.076373 101.236618 
C 420.925846 101.086091 420.721659 101.001514 420.508782 101.001514 
C 420.295905 101.001514 420.091718 101.086091 419.941191 101.236618 
C 419.790664 101.387145 419.706087 101.591332 419.706087 101.804209 
C 419.706087 102.017087 419.790664 102.221274 419.941191 102.371801 
C 420.091718 102.522328 420.295905 102.606905 420.508782 102.606905 
z
" style="stroke:#000000;stroke-linejoin:miter;"/>
   </g>
   <g id="line2d_1">
    <path clip-path="url(#p306d9b4d9d)" d="M 99.430648 101.804209 
L 420.508782 101.804209 
L 420.508782 101.804209 
" style="fill:none;stroke:#000000;stroke-linecap:square;"/>
   </g>
   <g id="line2d_2">
    <path clip-path="url(#p306d9b4d9d)" d="M 104.728437 112.560327 
L 94.132859 123.155905 
L 94.132859 91.048092 
L 104.728437 80.452514 
L 104.728437 112.560327 
" style="fill:none;stroke:#000000;stroke-linecap:square;stroke-width:0.5;"/>
   </g>
   <g id="line2d_3">
    <path clip-path="url(#p306d9b4d9d)" d="M 425.806571 112.560327 
L 415.210993 123.155905 
L 415.210993 91.048092 
L 425.806571 80.452514 
L 425.806571 112.560327 
" style="fill:none;stroke:#000000;stroke-linecap:square;stroke-width:0.5;"/>
   </g>
   <g id="line2d_4">
    <path clip-path="url(#p306d9b4d9d)" d="M 104.728437 112.560327 
L 425.806571 112.560327 
L 425.806571 112.560327 
" style="fill:none;stroke:#000000;stroke-linecap:square;stroke-width:0.5;"/>
   </g>
   <g id="line2d_5">
    <path clip-path="url(#p306d9b4d9d)" d="M 94.132859 123.155905 
L 415.210993 123.155905 
L 415.210993 123.155905 
" style="fill:none;stroke:#000000;stroke-linecap:square;stroke-width:0.5;"/>
   </g>
   <g id="line2d_6">
    <path clip-path="url(#p306d9b4d9d)" d="M 94.132859 91.048092 
L 415.210993 91.048092 
L 415.210993 91.048092 
" style="fill:none;stroke:#000000;stroke-linecap:square;stroke-width:0.5;"/>
   </g>
   <g id="line2d_7">
    <path clip-path="url(#p306d9b4d9d)" d="M 104.728437 80.452514 
L 425.806571 80.452514 
L 425.806571 80.452514 
" style="fill:none;stroke:#000000;stroke-linecap:square;stroke-width:0.5;"/>
   </g>
   <g id="line2d_8">
    <path clip-path="url(#p306d9b4d9d)" d="M 104.728437 112.560327 
L 425.806571 112.560327 
L 425.806571 112.560327 
" style="fill:none;stroke:#000000;stroke-linecap:square;stroke-width:0.5;"/>
   </g>
   <g id="line2d_9">
    <path clip-path="url(#p306d9b4d9d)" d="M 179.700182 105.817686 
L 179.700182 109.831163 
" style="fill:none;stroke:#000000;stroke-linecap:round;"/>
   </g>
   <g id="line2d_10">
    <path clip-path="url(#p306d9b4d9d)" d="M 171.673228 109.831163 
L 187.727135 109.831163 
" style="fill:none;stroke:#000000;stroke-linecap:round;"/>
   </g>
   <g id="line2d_11">
    <path clip-path="url(#p306d9b4d9d)" d="M 187.727135 109.831163 
L 191.740612 113.844639 
" style="fill:none;stroke:#000000;stroke-linecap:round;"/>
   </g>
   <g id="line2d_12">
    <path clip-path="url(#p306d9b4d9d)" d="M 183.713658 109.831163 
L 187.727135 113.844639 
" style="fill:none;stroke:#000000;stroke-linecap:round;"/>
   </g>
   <g id="line2d_13">
    <path clip-path="url(#p306d9b4d9d)" d="M 179.700182 109.831163 
L 183.713658 113.844639 
" style="fill:none;stroke:#000000;stroke-linecap:round;"/>
   </g>
   <g id="line2d_14">
    <path clip-path="url(#p306d9b4d9d)" d="M 175.686705 109.831163 
L 179.700182 113.844639 
" style="fill:none;stroke:#000000;stroke-linecap:round;"/>
   </g>
   <g id="line2d_15">
    <path clip-path="url(#p306d9b4d9d)" d="M 171.673228 109.831163 
L 175.686705 113.844639 
" style="fill:none;stroke:#000000;stroke-linecap:round;"/>
   </g>
   <g id="line2d_16">
    <path clip-path="url(#p306d9b4d9d)" d="M 340.239249 107.021729 
L 340.239249 109.831163 
" style="fill:none;stroke:#000000;stroke-linecap:round;"/>
   </g>
   <g id="line2d_17">
    <path clip-path="url(#p306d9b4d9d)" d="M 332.212295 109.831163 
L 348.266202 109.831163 
" style="fill:none;stroke:#000000;stroke-linecap:round;"/>
   </g>
   <g id="line2d_18">
    <path clip-path="url(#p306d9b4d9d)" d="M 348.266202 109.831163 
L 352.279679 113.844639 
" style="fill:none;stroke:#000000;stroke-linecap:round;"/>
   </g>
   <g id="line2d_19">
    <path clip-path="url(#p306d9b4d9d)" d="M 344.252725 109.831163 
L 348.266202 113.844639 
" style="fill:none;stroke:#000000;stroke-linecap:round;"/>
   </g>
   <g id="line2d_20">
    <path clip-path="url(#p306d9b4d9d)" d="M 340.239249 109.831163 
L 344.252725 113.844639 
" style="fill:none;stroke:#000000;stroke-linecap:round;"/>
   </g>
   <g id="line2d_21">
    <path clip-path="url(#p306d9b4d9d)" d="M 336.225772 109.831163 
L 340.239249 113.844639 
" style="fill:none;stroke:#000000;stroke-linecap:round;"/>
   </g>
   <g id="line2d_22">
    <path clip-path="url(#p306d9b4d9d)" d="M 332.212295 109.831163 
L 336.225772 113.844639 
" style="fill:none;stroke:#000000;stroke-linecap:round;"/>
   </g>
   <g id="line2d_23">
    <path clip-path="url(#p306d9b4d9d)" d="M 99.430648 85.750303 
L 420.508782 37.588583 
L 420.508782 37.588583 
" style="fill:none;stroke:#ff0000;stroke-linecap:square;"/>
   </g>
   <g id="matplotlib.axis_1">
    <g id="xtick_1">
     <g id="line2d_24">
      <path clip-path="url(#p306d9b4d9d)" d="M 99.430648 141.938976 
L 99.430648 37.588583 
" style="fill:none;stroke:#000000;stroke-dasharray:1.000000,3.000000;stroke-dashoffset:0.0;stroke-width:0.5;"/>
     </g>
     <g id="line2d_25">
      <defs>
       <path d="M 0 0 
L 0 -4 
" id="md10376b982" style="stroke:#000000;stroke-width:0.5;"/>
      </defs>
      <g>
       <use style="stroke:#000000;stroke-width:0.5;" x="99.4306479906" xlink:href="#md10376b982" y="141.938976233"/>
      </g>
     </g>
     <g id="text_1">
      <!-- $x = 0$ -->
      <defs>
       <path d="M 27.796875 68.6875 
C 13.5 68.6875 4.09375 56.046875 4.09375 33.890625 
C 4.09375 11.75 13.5 -1 27.796875 -1 
C 42.09375 -1 51.5 11.75 51.5 33.890625 
C 51.5 56.046875 42.09375 68.6875 27.796875 68.6875 
M 27.796875 64 
C 37 64 42 53.765625 42 33.890625 
C 42 14.03125 37 3.796875 27.796875 3.796875 
C 18.59375 3.796875 13.5 13.921875 13.5 33.796875 
C 13.5 53.765625 18.59375 64 27.796875 64 
" id="Bitstream_Charter-48"/>
       <path d="M 5.59375 37 
L 72.796875 37 
L 72.796875 43 
L 5.59375 43 
z
M 5.59375 15 
L 72.796875 15 
L 72.796875 21 
L 5.59375 21 
z
" id="MathDesign_CH_Regular_OT1_10-61"/>
       <path d="M 12.90625 48.90625 
L 2.796875 45.4375 
L 2.796875 43 
L 11.09375 41.875 
C 13.796875 39.34375 16.09375 33.4375 18.703125 24.15625 
C 14.59375 14.078125 9.296875 7.5625 4.796875 5.125 
L 0.203125 9.5 
C -2.90625 8.90625 -4.703125 7.140625 -4.703125 4.5 
C -4.703125 1.34375 -2.296875 -0.8125 1.5 -0.8125 
C 8.09375 -0.8125 14.09375 5.890625 20.59375 19.46875 
C 23.90625 5.140625 25.203125 -0.8125 32.203125 -0.8125 
C 34.90625 -0.8125 38.703125 0.171875 43.40625 2.03125 
L 43.40625 5.125 
C 41 4.40625 39.203125 4 38.09375 4 
C 32.09375 4 30.703125 10.40625 26.796875 24.15625 
C 31.203125 34.546875 35.59375 40.328125 40.203125 41.5625 
L 44.5 37.59375 
C 47.703125 38.921875 49.40625 40.859375 49.40625 43.3125 
C 49.40625 46.453125 46.90625 49 43.703125 49 
C 37.40625 49 31.203125 42.1875 24.59375 28.53125 
C 21.09375 42.3125 19.90625 49 14 49 
C 13.59375 49 13.296875 48.90625 12.90625 48.90625 
" id="Bitstream_Charter_Italic-120"/>
      </defs>
      <g transform="translate(88.0636444322 153.11211967)scale(0.1 -0.1)">
       <use transform="scale(0.956420138348)" xlink:href="#Bitstream_Charter_Italic-120"/>
       <use transform="translate(76.6570246828 0.0)scale(0.956420138348)" xlink:href="#MathDesign_CH_Regular_OT1_10-61"/>
       <use transform="translate(174.163962776 0.0)scale(0.956420138348)" xlink:href="#Bitstream_Charter-48"/>
      </g>
     </g>
    </g>
    <g id="xtick_2">
     <g id="line2d_26">
      <path clip-path="url(#p306d9b4d9d)" d="M 179.700182 141.938976 
L 179.700182 37.588583 
" style="fill:none;stroke:#000000;stroke-dasharray:1.000000,3.000000;stroke-dashoffset:0.0;stroke-width:0.5;"/>
     </g>
     <g id="line2d_27">
      <g>
       <use style="stroke:#000000;stroke-width:0.5;" x="179.700181525" xlink:href="#md10376b982" y="141.938976233"/>
      </g>
     </g>
     <g id="text_2">
      <!-- $b$ -->
      <defs>
       <path d="M 20.703125 74.359375 
L 5.5 71.34375 
L 5.5 68.828125 
L 14.203125 67.21875 
L 2.5 3.453125 
C 7.296875 0.40625 12.40625 -1 17.703125 -1 
C 25.296875 -1 32.296875 2.34375 37.40625 8.640625 
C 42.5 14.921875 45.203125 23.03125 45.203125 31.75 
C 45.203125 42.203125 39.703125 49 32.203125 49 
C 28.203125 49 23.296875 46.484375 17.40625 41.4375 
L 21.703125 65.09375 
C 22.296875 68.515625 23.09375 71.53125 24 74.359375 
z
M 11 7.203125 
L 16.703125 37.46875 
C 21.5 40.828125 25.09375 42.859375 28.703125 42.859375 
C 33.59375 42.859375 37 38.28125 37 30.46875 
C 37 23.453125 34.59375 15.828125 31.40625 10.953125 
C 28 5.765625 24.09375 3.140625 19.90625 3.140625 
C 16.59375 3.140625 13.703125 4.453125 11 7.203125 
" id="Bitstream_Charter_Italic-98"/>
      </defs>
      <g transform="translate(177.275656854 153.11211967)scale(0.1 -0.1)">
       <use transform="scale(0.956420138348)" xlink:href="#Bitstream_Charter_Italic-98"/>
      </g>
     </g>
    </g>
    <g id="xtick_3">
     <g id="line2d_28">
      <path clip-path="url(#p306d9b4d9d)" d="M 340.239249 141.938976 
L 340.239249 37.588583 
" style="fill:none;stroke:#000000;stroke-dasharray:1.000000,3.000000;stroke-dashoffset:0.0;stroke-width:0.5;"/>
     </g>
     <g id="line2d_29">
      <g>
       <use style="stroke:#000000;stroke-width:0.5;" x="340.239248593" xlink:href="#md10376b982" y="141.938976233"/>
      </g>
     </g>
     <g id="text_3">
      <!-- $c$ -->
      <defs>
       <path d="M 30.703125 36.375 
C 34.5 36.375 37 38.703125 37 41.859375 
C 37 45.734375 33.203125 49 27.703125 49 
C 21.5 49 14.90625 45.875 9.796875 40.203125 
C 4.5 34.359375 1.5 26.375 1.5 17.390625 
C 1.5 5.984375 7.5 -1 16.296875 -1 
C 22.203125 -1 28.796875 2.234375 35 8.796875 
L 35 13.453125 
C 29.59375 7.890625 24 5.0625 19.40625 5.0625 
C 13.203125 5.0625 9.40625 10.015625 9.40625 18.796875 
C 9.40625 33.859375 16.296875 44.0625 24.40625 44.0625 
C 24.59375 44.0625 24.703125 44.0625 24.90625 44.0625 
z
" id="Bitstream_Charter_Italic-99"/>
      </defs>
      <g transform="translate(338.355101681 153.11211967)scale(0.1 -0.1)">
       <use transform="scale(0.956420138348)" xlink:href="#Bitstream_Charter_Italic-99"/>
      </g>
     </g>
    </g>
    <g id="xtick_4">
     <g id="line2d_30">
      <path clip-path="url(#p306d9b4d9d)" d="M 420.508782 141.938976 
L 420.508782 37.588583 
" style="fill:none;stroke:#000000;stroke-dasharray:1.000000,3.000000;stroke-dashoffset:0.0;stroke-width:0.5;"/>
     </g>
     <g id="line2d_31">
      <g>
       <use style="stroke:#000000;stroke-width:0.5;" x="420.508782127" xlink:href="#md10376b982" y="141.938976233"/>
      </g>
     </g>
     <g id="text_4">
      <!-- $L$ -->
      <defs>
       <path d="M 8.40625 67.5 
L 8.40625 63.6875 
L 14.90625 63.1875 
L 15.90625 61.6875 
L 5.203125 5.84375 
L 3.59375 4.34375 
L -2.796875 3.828125 
L -2.796875 0 
L 41.796875 0 
L 45.296875 18.5 
L 40.5 18.5 
L 36.59375 6.265625 
L 34.796875 4.640625 
L 13.59375 4.640625 
L 24.59375 61.671875 
L 26.203125 63.1875 
L 32.703125 63.6875 
L 32.703125 67.5 
z
" id="Bitstream_Charter_Italic-76"/>
      </defs>
      <g transform="translate(418.127301303 153.11211967)scale(0.1 -0.1)">
       <use transform="scale(0.956420138348)" xlink:href="#Bitstream_Charter_Italic-76"/>
      </g>
     </g>
    </g>
   </g>
   <g id="matplotlib.axis_2">
    <g id="ytick_1">
     <g id="line2d_32">
      <path clip-path="url(#p306d9b4d9d)" d="M 67.322835 101.804209 
L 484.724409 101.804209 
" style="fill:none;stroke:#000000;stroke-dasharray:1.000000,3.000000;stroke-dashoffset:0.0;stroke-width:0.5;"/>
     </g>
     <g id="line2d_33">
      <defs>
       <path d="M 0 0 
L 4 0 
" id="md08bd8882c" style="stroke:#000000;stroke-width:0.5;"/>
      </defs>
      <g>
       <use style="stroke:#000000;stroke-width:0.5;" x="67.322834577" xlink:href="#md08bd8882c" y="101.804209466"/>
      </g>
     </g>
     <g id="text_5">
      <!-- $0$ -->
      <g transform="translate(58.0051446885 104.310033269)scale(0.1 -0.1)">
       <use transform="scale(0.956420138348)" xlink:href="#Bitstream_Charter-48"/>
      </g>
     </g>
    </g>
   </g>
   <g id="patch_8">
    <path d="M 452.616596 101.804209 
Q 468.670502 101.804209 483.606375 101.804209 
" style="fill:none;stroke:#008000;stroke-linecap:round;"/>
    <path d="M 478.806375 99.404209 
L 483.606375 101.804209 
L 478.806375 104.204209 
" style="fill:none;stroke:#008000;stroke-linecap:round;"/>
   </g>
   <g id="text_6">
    <!-- $\vec x$ -->
    <defs>
     <path d="M 2.8125 63.046875 
L 36.8125 63.046875 
L 30.421875 59.15625 
L 33.609375 54.859375 
L 47.609375 65.25 
L 47.609375 66.75 
L 33.609375 77.25 
L 30.421875 72.953125 
L 36.8125 69.046875 
L 2.8125 69.046875 
z
" id="MathDesign_CH_Regular_Italic_MathItalic_10-126"/>
    </defs>
    <g style="fill:#008000;" transform="translate(468.670502248 97.8042094661)scale(0.12 -0.12)">
     <use transform="translate(1.81720586375 0.0)scale(0.956420138348)" xlink:href="#MathDesign_CH_Regular_Italic_MathItalic_10-126"/>
     <use transform="scale(0.956420138348)" xlink:href="#Bitstream_Charter_Italic-120"/>
    </g>
   </g>
   <g id="patch_9">
    <path d="M 99.430648 69.696396 
Q 99.430648 53.642489 99.430648 38.706617 
" style="fill:none;stroke:#008000;stroke-linecap:round;"/>
    <path d="M 97.030648 43.506617 
L 99.430648 38.706617 
L 101.830648 43.506617 
" style="fill:none;stroke:#008000;stroke-linecap:round;"/>
   </g>
   <g id="text_7">
    <!-- $\vec y$ -->
    <defs>
     <path d="M 8.296875 48.921875 
L -1.5 46.046875 
L -1.5 43.8125 
L 7 43.109375 
C 8.796875 40.65625 10.09375 37.21875 11 32.53125 
L 17.203125 1.9375 
L 17.5 2.140625 
C 11.59375 -9.484375 6.09375 -15.546875 0 -15.546875 
L -5.90625 -9.75 
C -9.203125 -10.25 -11.296875 -12.578125 -11.296875 -15.3125 
C -11.296875 -18.96875 -7.796875 -22 -2.90625 -22 
C 5.40625 -22 14.5 -13.46875 23.703125 3.484375 
C 32 18.71875 36 32.84375 43.296875 41.1875 
L 48.40625 44.21875 
L 48.40625 46.359375 
L 40.5 49 
L 38.59375 49 
C 32.296875 34.0625 27.09375 21.25 22.90625 10.375 
L 19.59375 27.375 
C 16.703125 42.0625 16 49 9.59375 49 
C 9.203125 49 8.703125 49 8.296875 48.921875 
" id="Bitstream_Charter_Italic-121"/>
    </defs>
    <g style="fill:#008000;" transform="translate(102.430647991 53.6424893456)scale(0.12 -0.12)">
     <use transform="scale(0.956420138348)" xlink:href="#MathDesign_CH_Regular_Italic_MathItalic_10-126"/>
     <use transform="translate(1.05206975307 0.0)scale(0.956420138348)" xlink:href="#Bitstream_Charter_Italic-121"/>
    </g>
   </g>
   <g id="patch_10">
    <path d="M 88.83507 112.399788 
Q 83.53728 117.697577 79.030061 122.204797 
" style="fill:none;stroke:#008000;stroke-linecap:round;"/>
    <path d="M 84.121229 120.507741 
L 79.030061 122.204797 
L 80.727117 117.113628 
" style="fill:none;stroke:#008000;stroke-linecap:round;"/>
   </g>
   <g id="text_8">
    <!-- $\vec z$ -->
    <defs>
     <path d="M 37.296875 49.703125 
L 35.40625 44.765625 
C 34.296875 44.265625 33.296875 43.953125 32.40625 43.953125 
C 30.296875 43.953125 28.203125 44.96875 25.59375 46.28125 
C 22.90625 47.6875 20.40625 49 17.40625 49 
C 10.5 49 3.90625 41.921875 3.90625 34.875 
C 3.90625 31.125 5.796875 28.90625 8.59375 28.90625 
C 10.59375 28.90625 12.09375 30.015625 13.296875 32.140625 
L 8 38.609375 
C 9.5 40.734375 11.703125 41.84375 14.296875 41.84375 
C 16.40625 41.84375 19.40625 40.828125 23.09375 38.90625 
L 33 41.140625 
L -1.40625 2.125 
L 4.09375 -0.90625 
L 6.5 3.4375 
C 7.59375 4.03125 8.59375 4.34375 9.703125 4.34375 
C 14.5 4.34375 19.59375 0 25.296875 0 
C 32.59375 0 39.203125 7.171875 39.203125 14.140625 
C 39.203125 17.78125 37.09375 20.203125 34.296875 20.203125 
C 32.59375 20.203125 30.90625 18.984375 29.5 16.5625 
L 35 10.390625 
C 33.40625 7.96875 31.296875 6.75 28.796875 6.75 
C 26.90625 6.75 23.5 7.859375 18.59375 10.09375 
L 8.90625 7.5625 
L 43.40625 46.484375 
z
" id="Bitstream_Charter_Italic-122"/>
    </defs>
    <g style="fill:#008000;" transform="translate(82.5372803509 129.697577106)scale(0.12 -0.12)">
     <use transform="translate(1.62589143252 0.143474422089)scale(0.956420138348)" xlink:href="#MathDesign_CH_Regular_Italic_MathItalic_10-126"/>
     <use transform="scale(0.956420138348)" xlink:href="#Bitstream_Charter_Italic-122"/>
    </g>
   </g>
   <g id="text_9">
    <!-- $A$ -->
    <defs>
     <path d="M 34.5 68.5 
L -2.40625 4.4375 
L -7.90625 3.828125 
L -7.90625 0 
L 11.90625 0 
L 11.90625 3.828125 
L 5.796875 4.34375 
L 5 5.75 
L 15.703125 25 
L 40 25 
L 43.09375 5.75 
L 42.40625 4.34375 
L 36.5 3.828125 
L 36.5 0 
L 58.40625 0 
L 58.40625 3.828125 
L 53.5 4.34375 
L 51.796875 6.171875 
L 41.09375 68.5 
z
M 34.5 58.390625 
L 39.09375 29.34375 
L 18.203125 29.34375 
z
" id="Bitstream_Charter_Italic-65"/>
    </defs>
    <g transform="translate(105.430647991 97.8042094661)scale(0.12 -0.12)">
     <use transform="scale(0.956420138348)" xlink:href="#Bitstream_Charter_Italic-65"/>
    </g>
   </g>
   <g id="text_10">
    <!-- $B$ -->
    <defs>
     <path d="M 8.40625 68 
L 8.40625 64.171875 
L 14.796875 63.671875 
L 15.796875 62.125 
L 5.203125 5.875 
L 3.5 4.453125 
L -2.796875 3.84375 
L -2.796875 0 
L 22.203125 0 
C 42.40625 0 52.40625 7.40625 52.40625 22.640625 
C 52.40625 30.953125 47 35.625 36.59375 35.625 
C 48.203125 38.625 54.296875 45.40625 54.296875 55.171875 
C 54.296875 64.09375 47.59375 68 34.09375 68 
z
M 19.90625 37.140625 
L 24.703125 63.765625 
C 27.09375 63.96875 28.90625 63.96875 30.203125 63.96875 
C 39.796875 63.96875 44.40625 60.921875 44.40625 54.203125 
C 44.40625 43.84375 37.203125 36.9375 25 36.9375 
C 23.703125 36.9375 22.09375 36.9375 19.90625 37.140625 
M 13.703125 4.34375 
L 19.09375 32.5 
C 22.40625 32.796875 25 33 26.796875 33 
C 37.5 33 42.59375 29.671875 42.59375 21.796875 
C 42.59375 10.078125 35.09375 4.140625 20.296875 4.140625 
C 18.203125 4.140625 16 4.140625 13.703125 4.34375 
" id="Bitstream_Charter_Italic-66"/>
    </defs>
    <g transform="translate(185.700181525 97.8042094661)scale(0.12 -0.12)">
     <use transform="scale(0.956420138348)" xlink:href="#Bitstream_Charter_Italic-66"/>
    </g>
   </g>
   <g id="text_11">
    <!-- $C$ -->
    <defs>
     <path d="M 62.203125 65.5625 
C 55.703125 67.890625 49.703125 69 44.09375 69 
C 34.90625 69 26.5 65.96875 19.59375 60.34375 
C 9.796875 52.171875 4.09375 39.984375 4.09375 26.890625 
C 4.09375 9.875 14.5 -1 31 -1 
C 37.203125 -1 44 0.203125 50.90625 2.515625 
L 53.59375 18.4375 
L 49.296875 18.4375 
L 44.90625 6.859375 
L 43 5.140625 
C 40.09375 4.234375 37.203125 3.734375 34.40625 3.734375 
C 21.203125 3.734375 13.59375 11.78125 13.59375 25.6875 
C 13.59375 38.875 18.296875 50.359375 26.09375 57.421875 
C 31 61.84375 37.203125 64.25 43.796875 64.25 
C 47.5 64.25 51 63.453125 54.40625 61.640625 
L 55.203125 59.71875 
L 55.203125 50.046875 
L 59.40625 50.046875 
z
" id="Bitstream_Charter_Italic-67"/>
    </defs>
    <g transform="translate(346.239248593 97.8042094661)scale(0.12 -0.12)">
     <use transform="scale(0.956420138348)" xlink:href="#Bitstream_Charter_Italic-67"/>
    </g>
   </g>
   <g id="text_12">
    <!-- $D$ -->
    <defs>
     <path d="M 8.40625 67.640625 
L 8.40625 63.8125 
L 14.90625 63.3125 
L 15.90625 61.796875 
L 5.203125 5.84375 
L 3.59375 4.4375 
L -2.796875 3.828125 
L -2.796875 0 
L 18.296875 0 
C 32 0 42 3.328125 49.90625 11.1875 
C 57.796875 19.0625 62.296875 30.15625 62.296875 41.9375 
C 62.296875 58.5625 51.59375 67.640625 31.09375 67.640625 
z
M 24.90625 63 
L 30.296875 63 
C 45.296875 63 52.59375 56.546875 52.59375 42.9375 
C 52.59375 32.46875 49.09375 22.078125 44 15.328125 
C 38.796875 8.46875 30.40625 4.734375 19.5 4.734375 
L 14 4.734375 
z
" id="Bitstream_Charter_Italic-68"/>
    </defs>
    <g transform="translate(426.508782127 97.8042094661)scale(0.12 -0.12)">
     <use transform="scale(0.956420138348)" xlink:href="#Bitstream_Charter_Italic-68"/>
    </g>
   </g>
   <g id="text_13">
    <!-- $\vec f(x)$ -->
    <defs>
     <path d="M 35.40625 62.3125 
C 38.5 62.90625 40.296875 64.921875 40.296875 67.546875 
C 40.296875 70.578125 36.796875 73.5 32 73.5 
C 22.703125 73.5 14.296875 64.109375 11 46.75 
L 3.40625 43.625 
L 3.296875 40.296875 
L 10 41 
L 5.796875 12.125 
C 3.90625 -1.28125 2.203125 -10.4375 -2.5 -15.359375 
L -12.90625 -12.640625 
C -14.296875 -13.640625 -15.09375 -15.0625 -15.09375 -16.671875 
C -15.09375 -19.875 -12.90625 -22 -9.703125 -22 
C -4.90625 -22 0.59375 -18.171875 5.90625 -10.625 
C 10.296875 -4.390625 12.09375 3.15625 13.40625 12.421875 
L 17.40625 41 
L 32.296875 41 
L 32.296875 45.53125 
L 18.203125 45.53125 
C 20.40625 58.65625 23.40625 66.546875 27.203125 69.0625 
z
" id="Bitstream_Charter_Italic-102"/>
     <path d="M 14.09375 28.796875 
C 14.09375 56.203125 22.09375 69.796875 33.59375 71.796875 
L 33.59375 76.40625 
C 17 74.40625 5.59375 59 5.59375 28.796875 
C 5.59375 -1.40625 17 -16.796875 33.59375 -18.796875 
L 33.59375 -14.203125 
C 22.09375 -12.203125 14.09375 1.40625 14.09375 28.796875 
" id="MathDesign_CH_Regular_OT1_10-40"/>
     <path d="M 25.09375 28.796875 
C 25.09375 1.40625 17.09375 -12.203125 5.59375 -14.203125 
L 5.59375 -18.796875 
C 22.203125 -16.796875 33.59375 -1.40625 33.59375 28.796875 
C 33.59375 59 22.203125 74.40625 5.59375 76.40625 
L 5.59375 71.796875 
C 17.09375 69.796875 25.09375 56.203125 25.09375 28.796875 
" id="MathDesign_CH_Regular_OT1_10-41"/>
    </defs>
    <g style="fill:#ff0000;" transform="translate(203.781041585 65.0977437201)scale(0.12 -0.12)">
     <use transform="translate(4.63873268213 23.5279658069)scale(0.956420138348)" xlink:href="#MathDesign_CH_Regular_Italic_MathItalic_10-126"/>
     <use transform="scale(0.956420138348)" xlink:href="#Bitstream_Charter_Italic-102"/>
     <use transform="translate(50.4990593137 0.0)scale(0.956420138348)" xlink:href="#MathDesign_CH_Regular_OT1_10-40"/>
     <use transform="translate(95.2594609813 0.0)scale(0.956420138348)" xlink:href="#Bitstream_Charter_Italic-120"/>
     <use transform="translate(149.679774454 0.0)scale(0.956420138348)" xlink:href="#MathDesign_CH_Regular_OT1_10-41"/>
    </g>
   </g>
   <g id="patch_11">
    <path clip-path="url(#p306d9b4d9d)" d="M 179.700182 105.817686 
C 180.764568 105.817686 181.785503 105.394801 182.538138 104.642166 
C 183.290773 103.889531 183.713658 102.868596 183.713658 101.804209 
C 183.713658 100.739823 183.290773 99.718888 182.538138 98.966253 
C 181.785503 98.213618 180.764568 97.790733 179.700182 97.790733 
C 178.635795 97.790733 177.61486 98.213618 176.862225 98.966253 
C 176.10959 99.718888 175.686705 100.739823 175.686705 101.804209 
C 175.686705 102.868596 176.10959 103.889531 176.862225 104.642166 
C 177.61486 105.394801 178.635795 105.817686 179.700182 105.817686 
z
" style="fill:#ffffff;stroke:#000000;stroke-linejoin:miter;"/>
   </g>
   <g id="patch_12">
    <path clip-path="url(#p306d9b4d9d)" d="M 179.700182 103.810948 
C 180.232375 103.810948 180.742842 103.599505 181.11916 103.223188 
C 181.495477 102.84687 181.70692 102.336403 181.70692 101.804209 
C 181.70692 101.272016 181.495477 100.761549 181.11916 100.385231 
C 180.742842 100.008914 180.232375 99.797471 179.700182 99.797471 
C 179.167988 99.797471 178.657521 100.008914 178.281203 100.385231 
C 177.904886 100.761549 177.693443 101.272016 177.693443 101.804209 
C 177.693443 102.336403 177.904886 102.84687 178.281203 103.223188 
C 178.657521 103.599505 179.167988 103.810948 179.700182 103.810948 
z
" style="stroke:#000000;stroke-linejoin:miter;"/>
   </g>
  </g>
 </g>
 <defs>
  <clipPath id="p306d9b4d9d">
   <rect height="104.350393594" width="417.401574377" x="67.322834577" y="37.5885826388"/>
  </clipPath>
 </defs>
</svg>
