<?xml version="1.0" encoding="utf-8" standalone="no"?>
<!DOCTYPE svg PUBLIC "-//W3C//DTD SVG 1.1//EN"
  "http://www.w3.org/Graphics/SVG/1.1/DTD/svg11.dtd">
<!-- Created with matplotlib (http://matplotlib.org/) -->
<svg height="179pt" version="1.1" viewBox="0 0 538 179" width="538pt" xmlns="http://www.w3.org/2000/svg" xmlns:xlink="http://www.w3.org/1999/xlink">
 <defs>
  <style type="text/css">
*{stroke-linecap:butt;stroke-linejoin:round;stroke-miterlimit:100000;}
  </style>
 </defs>
 <g id="figure_1">
  <g id="patch_1">
   <path d="M 0 179.527559 
L 538.582677 179.527559 
L 538.582677 0 
L 0 0 
z
" style="fill:#ffffff;"/>
  </g>
  <g id="axes_1">
   <g id="patch_2">
    <path d="M 67.322835 141.938976 
L 484.724409 141.938976 
L 484.724409 37.588583 
L 67.322835 37.588583 
z
" style="fill:#ffffff;"/>
   </g>
   <g id="PolyCollection_1">
    <path clip-path="url(#p4b35a6e31c)" d="M 99.430648 69.696396 
L 99.430648 101.804209 
L 99.752048 101.804209 
L 100.073447 101.804209 
L 100.394847 101.804209 
L 100.716246 101.804209 
L 101.037646 101.804209 
L 101.359045 101.804209 
L 101.680445 101.804209 
L 102.001844 101.804209 
L 102.323244 101.804209 
L 102.644643 101.804209 
L 102.966043 101.804209 
L 103.287442 101.804209 
L 103.608842 101.804209 
L 103.930241 101.804209 
L 104.251641 101.804209 
L 104.573041 101.804209 
L 104.89444 101.804209 
L 105.21584 101.804209 
L 105.537239 101.804209 
L 105.858639 101.804209 
L 106.180038 101.804209 
L 106.501438 101.804209 
L 106.822837 101.804209 
L 107.144237 101.804209 
L 107.465636 101.804209 
L 107.787036 101.804209 
L 108.108435 101.804209 
L 108.429835 101.804209 
L 108.751234 101.804209 
L 109.072634 101.804209 
L 109.394034 101.804209 
L 109.715433 101.804209 
L 110.036833 101.804209 
L 110.358232 101.804209 
L 110.679632 101.804209 
L 111.001031 101.804209 
L 111.322431 101.804209 
L 111.64383 101.804209 
L 111.96523 101.804209 
L 112.286629 101.804209 
L 112.608029 101.804209 
L 112.929428 101.804209 
L 113.250828 101.804209 
L 113.572227 101.804209 
L 113.893627 101.804209 
L 114.215027 101.804209 
L 114.536426 101.804209 
L 114.857826 101.804209 
L 115.179225 101.804209 
L 115.500625 101.804209 
L 115.822024 101.804209 
L 116.143424 101.804209 
L 116.464823 101.804209 
L 116.786223 101.804209 
L 117.107622 101.804209 
L 117.429022 101.804209 
L 117.750421 101.804209 
L 118.071821 101.804209 
L 118.39322 101.804209 
L 118.71462 101.804209 
L 119.03602 101.804209 
L 119.357419 101.804209 
L 119.678819 101.804209 
L 120.000218 101.804209 
L 120.321618 101.804209 
L 120.643017 101.804209 
L 120.964417 101.804209 
L 121.285816 101.804209 
L 121.607216 101.804209 
L 121.928615 101.804209 
L 122.250015 101.804209 
L 122.571414 101.804209 
L 122.892814 101.804209 
L 123.214213 101.804209 
L 123.535613 101.804209 
L 123.857013 101.804209 
L 124.178412 101.804209 
L 124.499812 101.804209 
L 124.821211 101.804209 
L 125.142611 101.804209 
L 125.46401 101.804209 
L 125.78541 101.804209 
L 126.106809 101.804209 
L 126.428209 101.804209 
L 126.749608 101.804209 
L 127.071008 101.804209 
L 127.392407 101.804209 
L 127.713807 101.804209 
L 128.035206 101.804209 
L 128.356606 101.804209 
L 128.678006 101.804209 
L 128.999405 101.804209 
L 129.320805 101.804209 
L 129.642204 101.804209 
L 129.963604 101.804209 
L 130.285003 101.804209 
L 130.606403 101.804209 
L 130.927802 101.804209 
L 131.249202 101.804209 
L 131.570601 101.804209 
L 131.892001 101.804209 
L 132.2134 101.804209 
L 132.5348 101.804209 
L 132.856199 101.804209 
L 133.177599 101.804209 
L 133.498999 101.804209 
L 133.820398 101.804209 
L 134.141798 101.804209 
L 134.463197 101.804209 
L 134.784597 101.804209 
L 135.105996 101.804209 
L 135.427396 101.804209 
L 135.748795 101.804209 
L 136.070195 101.804209 
L 136.391594 101.804209 
L 136.712994 101.804209 
L 137.034393 101.804209 
L 137.355793 101.804209 
L 137.677192 101.804209 
L 137.998592 101.804209 
L 138.319992 101.804209 
L 138.641391 101.804209 
L 138.962791 101.804209 
L 139.28419 101.804209 
L 139.60559 101.804209 
L 139.926989 101.804209 
L 140.248389 101.804209 
L 140.569788 101.804209 
L 140.891188 101.804209 
L 141.212587 101.804209 
L 141.533987 101.804209 
L 141.855386 101.804209 
L 142.176786 101.804209 
L 142.498186 101.804209 
L 142.819585 101.804209 
L 143.140985 101.804209 
L 143.462384 101.804209 
L 143.783784 101.804209 
L 144.105183 101.804209 
L 144.426583 101.804209 
L 144.747982 101.804209 
L 145.069382 101.804209 
L 145.390781 101.804209 
L 145.712181 101.804209 
L 146.03358 101.804209 
L 146.35498 101.804209 
L 146.676379 101.804209 
L 146.997779 101.804209 
L 147.319179 101.804209 
L 147.640578 101.804209 
L 147.961978 101.804209 
L 148.283377 101.804209 
L 148.604777 101.804209 
L 148.926176 101.804209 
L 149.247576 101.804209 
L 149.568975 101.804209 
L 149.890375 101.804209 
L 150.211774 101.804209 
L 150.533174 101.804209 
L 150.854573 101.804209 
L 151.175973 101.804209 
L 151.497372 101.804209 
L 151.818772 101.804209 
L 152.140172 101.804209 
L 152.461571 101.804209 
L 152.782971 101.804209 
L 153.10437 101.804209 
L 153.42577 101.804209 
L 153.747169 101.804209 
L 154.068569 101.804209 
L 154.389968 101.804209 
L 154.711368 101.804209 
L 155.032767 101.804209 
L 155.354167 101.804209 
L 155.675566 101.804209 
L 155.996966 101.804209 
L 156.318365 101.804209 
L 156.639765 101.804209 
L 156.961165 101.804209 
L 157.282564 101.804209 
L 157.603964 101.804209 
L 157.925363 101.804209 
L 158.246763 101.804209 
L 158.568162 101.804209 
L 158.889562 101.804209 
L 159.210961 101.804209 
L 159.532361 101.804209 
L 159.85376 101.804209 
L 160.17516 101.804209 
L 160.496559 101.804209 
L 160.817959 101.804209 
L 161.139358 101.804209 
L 161.460758 101.804209 
L 161.782158 101.804209 
L 162.103557 101.804209 
L 162.424957 101.804209 
L 162.746356 101.804209 
L 163.067756 101.804209 
L 163.389155 101.804209 
L 163.710555 101.804209 
L 164.031954 101.804209 
L 164.353354 101.804209 
L 164.674753 101.804209 
L 164.996153 101.804209 
L 165.317552 101.804209 
L 165.638952 101.804209 
L 165.960351 101.804209 
L 166.281751 101.804209 
L 166.603151 101.804209 
L 166.92455 101.804209 
L 167.24595 101.804209 
L 167.567349 101.804209 
L 167.888749 101.804209 
L 168.210148 101.804209 
L 168.531548 101.804209 
L 168.852947 101.804209 
L 169.174347 101.804209 
L 169.495746 101.804209 
L 169.817146 101.804209 
L 170.138545 101.804209 
L 170.459945 101.804209 
L 170.781344 101.804209 
L 171.102744 101.804209 
L 171.424144 101.804209 
L 171.745543 101.804209 
L 172.066943 101.804209 
L 172.388342 101.804209 
L 172.709742 101.804209 
L 173.031141 101.804209 
L 173.352541 101.804209 
L 173.67394 101.804209 
L 173.99534 101.804209 
L 174.316739 101.804209 
L 174.638139 101.804209 
L 174.959538 101.804209 
L 175.280938 101.804209 
L 175.602337 101.804209 
L 175.923737 101.804209 
L 176.245137 101.804209 
L 176.566536 101.804209 
L 176.887936 101.804209 
L 177.209335 101.804209 
L 177.530735 101.804209 
L 177.852134 101.804209 
L 178.173534 101.804209 
L 178.494933 101.804209 
L 178.816333 101.804209 
L 179.137732 101.804209 
L 179.459132 101.804209 
L 179.780531 101.804209 
L 180.101931 101.804209 
L 180.42333 101.804209 
L 180.74473 101.804209 
L 181.06613 101.804209 
L 181.387529 101.804209 
L 181.708929 101.804209 
L 182.030328 101.804209 
L 182.351728 101.804209 
L 182.673127 101.804209 
L 182.994527 101.804209 
L 183.315926 101.804209 
L 183.637326 101.804209 
L 183.958725 101.804209 
L 184.280125 101.804209 
L 184.601524 101.804209 
L 184.922924 101.804209 
L 185.244323 101.804209 
L 185.565723 101.804209 
L 185.887123 101.804209 
L 186.208522 101.804209 
L 186.529922 101.804209 
L 186.851321 101.804209 
L 187.172721 101.804209 
L 187.49412 101.804209 
L 187.81552 101.804209 
L 188.136919 101.804209 
L 188.458319 101.804209 
L 188.779718 101.804209 
L 189.101118 101.804209 
L 189.422517 101.804209 
L 189.743917 101.804209 
L 190.065316 101.804209 
L 190.386716 101.804209 
L 190.708116 101.804209 
L 191.029515 101.804209 
L 191.350915 101.804209 
L 191.672314 101.804209 
L 191.993714 101.804209 
L 192.315113 101.804209 
L 192.636513 101.804209 
L 192.957912 101.804209 
L 193.279312 101.804209 
L 193.600711 101.804209 
L 193.922111 101.804209 
L 194.24351 101.804209 
L 194.56491 101.804209 
L 194.886309 101.804209 
L 195.207709 101.804209 
L 195.529109 101.804209 
L 195.850508 101.804209 
L 196.171908 101.804209 
L 196.493307 101.804209 
L 196.814707 101.804209 
L 197.136106 101.804209 
L 197.457506 101.804209 
L 197.778905 101.804209 
L 198.100305 101.804209 
L 198.421704 101.804209 
L 198.743104 101.804209 
L 199.064503 101.804209 
L 199.385903 101.804209 
L 199.707302 101.804209 
L 200.028702 101.804209 
L 200.350102 101.804209 
L 200.671501 101.804209 
L 200.992901 101.804209 
L 201.3143 101.804209 
L 201.6357 101.804209 
L 201.957099 101.804209 
L 202.278499 101.804209 
L 202.599898 101.804209 
L 202.921298 101.804209 
L 203.242697 101.804209 
L 203.564097 101.804209 
L 203.885496 101.804209 
L 204.206896 101.804209 
L 204.528296 101.804209 
L 204.849695 101.804209 
L 205.171095 101.804209 
L 205.492494 101.804209 
L 205.813894 101.804209 
L 206.135293 101.804209 
L 206.456693 101.804209 
L 206.778092 101.804209 
L 207.099492 101.804209 
L 207.420891 101.804209 
L 207.742291 101.804209 
L 208.06369 101.804209 
L 208.38509 101.804209 
L 208.706489 101.804209 
L 209.027889 101.804209 
L 209.349289 101.804209 
L 209.670688 101.804209 
L 209.992088 101.804209 
L 210.313487 101.804209 
L 210.634887 101.804209 
L 210.956286 101.804209 
L 211.277686 101.804209 
L 211.599085 101.804209 
L 211.920485 101.804209 
L 212.241884 101.804209 
L 212.563284 101.804209 
L 212.884683 101.804209 
L 213.206083 101.804209 
L 213.527482 101.804209 
L 213.848882 101.804209 
L 214.170282 101.804209 
L 214.491681 101.804209 
L 214.813081 101.804209 
L 215.13448 101.804209 
L 215.45588 101.804209 
L 215.777279 101.804209 
L 216.098679 101.804209 
L 216.420078 101.804209 
L 216.741478 101.804209 
L 217.062877 101.804209 
L 217.384277 101.804209 
L 217.705676 101.804209 
L 218.027076 101.804209 
L 218.348475 101.804209 
L 218.669875 101.804209 
L 218.991275 101.804209 
L 219.312674 101.804209 
L 219.634074 101.804209 
L 219.955473 101.804209 
L 220.276873 101.804209 
L 220.598272 101.804209 
L 220.919672 101.804209 
L 221.241071 101.804209 
L 221.562471 101.804209 
L 221.88387 101.804209 
L 222.20527 101.804209 
L 222.526669 101.804209 
L 222.848069 101.804209 
L 223.169468 101.804209 
L 223.490868 101.804209 
L 223.812268 101.804209 
L 224.133667 101.804209 
L 224.455067 101.804209 
L 224.776466 101.804209 
L 225.097866 101.804209 
L 225.419265 101.804209 
L 225.740665 101.804209 
L 226.062064 101.804209 
L 226.383464 101.804209 
L 226.704863 101.804209 
L 227.026263 101.804209 
L 227.347662 101.804209 
L 227.669062 101.804209 
L 227.990461 101.804209 
L 228.311861 101.804209 
L 228.633261 101.804209 
L 228.95466 101.804209 
L 229.27606 101.804209 
L 229.597459 101.804209 
L 229.918859 101.804209 
L 230.240258 101.804209 
L 230.561658 101.804209 
L 230.883057 101.804209 
L 231.204457 101.804209 
L 231.525856 101.804209 
L 231.847256 101.804209 
L 232.168655 101.804209 
L 232.490055 101.804209 
L 232.811454 101.804209 
L 233.132854 101.804209 
L 233.454254 101.804209 
L 233.775653 101.804209 
L 234.097053 101.804209 
L 234.418452 101.804209 
L 234.739852 101.804209 
L 235.061251 101.804209 
L 235.382651 101.804209 
L 235.70405 101.804209 
L 236.02545 101.804209 
L 236.346849 101.804209 
L 236.668249 101.804209 
L 236.989648 101.804209 
L 237.311048 101.804209 
L 237.632447 101.804209 
L 237.953847 101.804209 
L 238.275247 101.804209 
L 238.596646 101.804209 
L 238.918046 101.804209 
L 239.239445 101.804209 
L 239.560845 101.804209 
L 239.882244 101.804209 
L 240.203644 101.804209 
L 240.525043 101.804209 
L 240.846443 101.804209 
L 241.167842 101.804209 
L 241.489242 101.804209 
L 241.810641 101.804209 
L 242.132041 101.804209 
L 242.45344 101.804209 
L 242.77484 101.804209 
L 243.09624 101.804209 
L 243.417639 101.804209 
L 243.739039 101.804209 
L 244.060438 101.804209 
L 244.381838 101.804209 
L 244.703237 101.804209 
L 245.024637 101.804209 
L 245.346036 101.804209 
L 245.667436 101.804209 
L 245.988835 101.804209 
L 246.310235 101.804209 
L 246.631634 101.804209 
L 246.953034 101.804209 
L 247.274433 101.804209 
L 247.595833 101.804209 
L 247.917233 101.804209 
L 248.238632 101.804209 
L 248.560032 101.804209 
L 248.881431 101.804209 
L 249.202831 101.804209 
L 249.52423 101.804209 
L 249.84563 101.804209 
L 250.167029 101.804209 
L 250.488429 101.804209 
L 250.809828 101.804209 
L 251.131228 101.804209 
L 251.452627 101.804209 
L 251.774027 101.804209 
L 252.095426 101.804209 
L 252.416826 101.804209 
L 252.738226 101.804209 
L 253.059625 101.804209 
L 253.381025 101.804209 
L 253.702424 101.804209 
L 254.023824 101.804209 
L 254.345223 101.804209 
L 254.666623 101.804209 
L 254.988022 101.804209 
L 255.309422 101.804209 
L 255.630821 101.804209 
L 255.952221 101.804209 
L 256.27362 101.804209 
L 256.59502 101.804209 
L 256.916419 101.804209 
L 257.237819 101.804209 
L 257.559219 101.804209 
L 257.880618 101.804209 
L 258.202018 101.804209 
L 258.523417 101.804209 
L 258.844817 101.804209 
L 259.166216 101.804209 
L 259.487616 101.804209 
L 259.809015 101.804209 
L 260.130415 101.804209 
L 260.451814 101.804209 
L 260.773214 101.804209 
L 261.094613 101.804209 
L 261.416013 101.804209 
L 261.737412 101.804209 
L 262.058812 101.804209 
L 262.380212 101.804209 
L 262.701611 101.804209 
L 263.023011 101.804209 
L 263.34441 101.804209 
L 263.66581 101.804209 
L 263.987209 101.804209 
L 264.308609 101.804209 
L 264.630008 101.804209 
L 264.951408 101.804209 
L 265.272807 101.804209 
L 265.594207 101.804209 
L 265.915606 101.804209 
L 266.237006 101.804209 
L 266.558405 101.804209 
L 266.879805 101.804209 
L 267.201205 101.804209 
L 267.522604 101.804209 
L 267.844004 101.804209 
L 268.165403 101.804209 
L 268.486803 101.804209 
L 268.808202 101.804209 
L 269.129602 101.804209 
L 269.451001 101.804209 
L 269.772401 101.804209 
L 270.0938 101.804209 
L 270.4152 101.804209 
L 270.736599 101.804209 
L 271.057999 101.804209 
L 271.379399 101.804209 
L 271.700798 101.804209 
L 272.022198 101.804209 
L 272.343597 101.804209 
L 272.664997 101.804209 
L 272.986396 101.804209 
L 273.307796 101.804209 
L 273.629195 101.804209 
L 273.950595 101.804209 
L 274.271994 101.804209 
L 274.593394 101.804209 
L 274.914793 101.804209 
L 275.236193 101.804209 
L 275.557592 101.804209 
L 275.878992 101.804209 
L 276.200392 101.804209 
L 276.521791 101.804209 
L 276.843191 101.804209 
L 277.16459 101.804209 
L 277.48599 101.804209 
L 277.807389 101.804209 
L 278.128789 101.804209 
L 278.450188 101.804209 
L 278.771588 101.804209 
L 279.092987 101.804209 
L 279.414387 101.804209 
L 279.735786 101.804209 
L 280.057186 101.804209 
L 280.378585 101.804209 
L 280.699985 101.804209 
L 281.021385 101.804209 
L 281.342784 101.804209 
L 281.664184 101.804209 
L 281.985583 101.804209 
L 282.306983 101.804209 
L 282.628382 101.804209 
L 282.949782 101.804209 
L 283.271181 101.804209 
L 283.592581 101.804209 
L 283.91398 101.804209 
L 284.23538 101.804209 
L 284.556779 101.804209 
L 284.878179 101.804209 
L 285.199578 101.804209 
L 285.520978 101.804209 
L 285.842378 101.804209 
L 286.163777 101.804209 
L 286.485177 101.804209 
L 286.806576 101.804209 
L 287.127976 101.804209 
L 287.449375 101.804209 
L 287.770775 101.804209 
L 288.092174 101.804209 
L 288.413574 101.804209 
L 288.734973 101.804209 
L 289.056373 101.804209 
L 289.377772 101.804209 
L 289.699172 101.804209 
L 290.020571 101.804209 
L 290.341971 101.804209 
L 290.663371 101.804209 
L 290.98477 101.804209 
L 291.30617 101.804209 
L 291.627569 101.804209 
L 291.948969 101.804209 
L 292.270368 101.804209 
L 292.591768 101.804209 
L 292.913167 101.804209 
L 293.234567 101.804209 
L 293.555966 101.804209 
L 293.877366 101.804209 
L 294.198765 101.804209 
L 294.520165 101.804209 
L 294.841564 101.804209 
L 295.162964 101.804209 
L 295.484364 101.804209 
L 295.805763 101.804209 
L 296.127163 101.804209 
L 296.448562 101.804209 
L 296.769962 101.804209 
L 297.091361 101.804209 
L 297.412761 101.804209 
L 297.73416 101.804209 
L 298.05556 101.804209 
L 298.376959 101.804209 
L 298.698359 101.804209 
L 299.019758 101.804209 
L 299.341158 101.804209 
L 299.662557 101.804209 
L 299.983957 101.804209 
L 300.305357 101.804209 
L 300.626756 101.804209 
L 300.948156 101.804209 
L 301.269555 101.804209 
L 301.590955 101.804209 
L 301.912354 101.804209 
L 302.233754 101.804209 
L 302.555153 101.804209 
L 302.876553 101.804209 
L 303.197952 101.804209 
L 303.519352 101.804209 
L 303.840751 101.804209 
L 304.162151 101.804209 
L 304.48355 101.804209 
L 304.80495 101.804209 
L 305.12635 101.804209 
L 305.447749 101.804209 
L 305.769149 101.804209 
L 306.090548 101.804209 
L 306.411948 101.804209 
L 306.733347 101.804209 
L 307.054747 101.804209 
L 307.376146 101.804209 
L 307.697546 101.804209 
L 308.018945 101.804209 
L 308.340345 101.804209 
L 308.661744 101.804209 
L 308.983144 101.804209 
L 309.304543 101.804209 
L 309.625943 101.804209 
L 309.947343 101.804209 
L 310.268742 101.804209 
L 310.590142 101.804209 
L 310.911541 101.804209 
L 311.232941 101.804209 
L 311.55434 101.804209 
L 311.87574 101.804209 
L 312.197139 101.804209 
L 312.518539 101.804209 
L 312.839938 101.804209 
L 313.161338 101.804209 
L 313.482737 101.804209 
L 313.804137 101.804209 
L 314.125536 101.804209 
L 314.446936 101.804209 
L 314.768336 101.804209 
L 315.089735 101.804209 
L 315.411135 101.804209 
L 315.732534 101.804209 
L 316.053934 101.804209 
L 316.375333 101.804209 
L 316.696733 101.804209 
L 317.018132 101.804209 
L 317.339532 101.804209 
L 317.660931 101.804209 
L 317.982331 101.804209 
L 318.30373 101.804209 
L 318.62513 101.804209 
L 318.946529 101.804209 
L 319.267929 101.804209 
L 319.589329 101.804209 
L 319.910728 101.804209 
L 320.232128 101.804209 
L 320.553527 101.804209 
L 320.874927 101.804209 
L 321.196326 101.804209 
L 321.517726 101.804209 
L 321.839125 101.804209 
L 322.160525 101.804209 
L 322.481924 101.804209 
L 322.803324 101.804209 
L 323.124723 101.804209 
L 323.446123 101.804209 
L 323.767522 101.804209 
L 324.088922 101.804209 
L 324.410322 101.804209 
L 324.731721 101.804209 
L 325.053121 101.804209 
L 325.37452 101.804209 
L 325.69592 101.804209 
L 326.017319 101.804209 
L 326.338719 101.804209 
L 326.660118 101.804209 
L 326.981518 101.804209 
L 327.302917 101.804209 
L 327.624317 101.804209 
L 327.945716 101.804209 
L 328.267116 101.804209 
L 328.588515 101.804209 
L 328.909915 101.804209 
L 329.231315 101.804209 
L 329.552714 101.804209 
L 329.874114 101.804209 
L 330.195513 101.804209 
L 330.516913 101.804209 
L 330.838312 101.804209 
L 331.159712 101.804209 
L 331.481111 101.804209 
L 331.802511 101.804209 
L 332.12391 101.804209 
L 332.44531 101.804209 
L 332.766709 101.804209 
L 333.088109 101.804209 
L 333.409509 101.804209 
L 333.730908 101.804209 
L 334.052308 101.804209 
L 334.373707 101.804209 
L 334.695107 101.804209 
L 335.016506 101.804209 
L 335.337906 101.804209 
L 335.659305 101.804209 
L 335.980705 101.804209 
L 336.302104 101.804209 
L 336.623504 101.804209 
L 336.944903 101.804209 
L 337.266303 101.804209 
L 337.587702 101.804209 
L 337.909102 101.804209 
L 338.230502 101.804209 
L 338.551901 101.804209 
L 338.873301 101.804209 
L 339.1947 101.804209 
L 339.5161 101.804209 
L 339.837499 101.804209 
L 340.158899 101.804209 
L 340.480298 101.804209 
L 340.801698 101.804209 
L 341.123097 101.804209 
L 341.444497 101.804209 
L 341.765896 101.804209 
L 342.087296 101.804209 
L 342.408695 101.804209 
L 342.730095 101.804209 
L 343.051495 101.804209 
L 343.372894 101.804209 
L 343.694294 101.804209 
L 344.015693 101.804209 
L 344.337093 101.804209 
L 344.658492 101.804209 
L 344.979892 101.804209 
L 345.301291 101.804209 
L 345.622691 101.804209 
L 345.94409 101.804209 
L 346.26549 101.804209 
L 346.586889 101.804209 
L 346.908289 101.804209 
L 347.229688 101.804209 
L 347.551088 101.804209 
L 347.872488 101.804209 
L 348.193887 101.804209 
L 348.515287 101.804209 
L 348.836686 101.804209 
L 349.158086 101.804209 
L 349.479485 101.804209 
L 349.800885 101.804209 
L 350.122284 101.804209 
L 350.443684 101.804209 
L 350.765083 101.804209 
L 351.086483 101.804209 
L 351.407882 101.804209 
L 351.729282 101.804209 
L 352.050681 101.804209 
L 352.372081 101.804209 
L 352.693481 101.804209 
L 353.01488 101.804209 
L 353.33628 101.804209 
L 353.657679 101.804209 
L 353.979079 101.804209 
L 354.300478 101.804209 
L 354.621878 101.804209 
L 354.943277 101.804209 
L 355.264677 101.804209 
L 355.586076 101.804209 
L 355.907476 101.804209 
L 356.228875 101.804209 
L 356.550275 101.804209 
L 356.871674 101.804209 
L 357.193074 101.804209 
L 357.514474 101.804209 
L 357.835873 101.804209 
L 358.157273 101.804209 
L 358.478672 101.804209 
L 358.800072 101.804209 
L 359.121471 101.804209 
L 359.442871 101.804209 
L 359.76427 101.804209 
L 360.08567 101.804209 
L 360.407069 101.804209 
L 360.728469 101.804209 
L 361.049868 101.804209 
L 361.371268 101.804209 
L 361.692667 101.804209 
L 362.014067 101.804209 
L 362.335467 101.804209 
L 362.656866 101.804209 
L 362.978266 101.804209 
L 363.299665 101.804209 
L 363.621065 101.804209 
L 363.942464 101.804209 
L 364.263864 101.804209 
L 364.585263 101.804209 
L 364.906663 101.804209 
L 365.228062 101.804209 
L 365.549462 101.804209 
L 365.870861 101.804209 
L 366.192261 101.804209 
L 366.51366 101.804209 
L 366.83506 101.804209 
L 367.15646 101.804209 
L 367.477859 101.804209 
L 367.799259 101.804209 
L 368.120658 101.804209 
L 368.442058 101.804209 
L 368.763457 101.804209 
L 369.084857 101.804209 
L 369.406256 101.804209 
L 369.727656 101.804209 
L 370.049055 101.804209 
L 370.370455 101.804209 
L 370.691854 101.804209 
L 371.013254 101.804209 
L 371.334653 101.804209 
L 371.656053 101.804209 
L 371.977453 101.804209 
L 372.298852 101.804209 
L 372.620252 101.804209 
L 372.941651 101.804209 
L 373.263051 101.804209 
L 373.58445 101.804209 
L 373.90585 101.804209 
L 374.227249 101.804209 
L 374.548649 101.804209 
L 374.870048 101.804209 
L 375.191448 101.804209 
L 375.512847 101.804209 
L 375.834247 101.804209 
L 376.155646 101.804209 
L 376.477046 101.804209 
L 376.798446 101.804209 
L 377.119845 101.804209 
L 377.441245 101.804209 
L 377.762644 101.804209 
L 378.084044 101.804209 
L 378.405443 101.804209 
L 378.726843 101.804209 
L 379.048242 101.804209 
L 379.369642 101.804209 
L 379.691041 101.804209 
L 380.012441 101.804209 
L 380.33384 101.804209 
L 380.65524 101.804209 
L 380.976639 101.804209 
L 381.298039 101.804209 
L 381.619439 101.804209 
L 381.940838 101.804209 
L 382.262238 101.804209 
L 382.583637 101.804209 
L 382.905037 101.804209 
L 383.226436 101.804209 
L 383.547836 101.804209 
L 383.869235 101.804209 
L 384.190635 101.804209 
L 384.512034 101.804209 
L 384.833434 101.804209 
L 385.154833 101.804209 
L 385.476233 101.804209 
L 385.797632 101.804209 
L 386.119032 101.804209 
L 386.440432 101.804209 
L 386.761831 101.804209 
L 387.083231 101.804209 
L 387.40463 101.804209 
L 387.72603 101.804209 
L 388.047429 101.804209 
L 388.368829 101.804209 
L 388.690228 101.804209 
L 389.011628 101.804209 
L 389.333027 101.804209 
L 389.654427 101.804209 
L 389.975826 101.804209 
L 390.297226 101.804209 
L 390.618625 101.804209 
L 390.940025 101.804209 
L 391.261425 101.804209 
L 391.582824 101.804209 
L 391.904224 101.804209 
L 392.225623 101.804209 
L 392.547023 101.804209 
L 392.868422 101.804209 
L 393.189822 101.804209 
L 393.511221 101.804209 
L 393.832621 101.804209 
L 394.15402 101.804209 
L 394.47542 101.804209 
L 394.796819 101.804209 
L 395.118219 101.804209 
L 395.439619 101.804209 
L 395.761018 101.804209 
L 396.082418 101.804209 
L 396.403817 101.804209 
L 396.725217 101.804209 
L 397.046616 101.804209 
L 397.368016 101.804209 
L 397.689415 101.804209 
L 398.010815 101.804209 
L 398.332214 101.804209 
L 398.653614 101.804209 
L 398.975013 101.804209 
L 399.296413 101.804209 
L 399.617812 101.804209 
L 399.939212 101.804209 
L 400.260612 101.804209 
L 400.582011 101.804209 
L 400.903411 101.804209 
L 401.22481 101.804209 
L 401.54621 101.804209 
L 401.867609 101.804209 
L 402.189009 101.804209 
L 402.510408 101.804209 
L 402.831808 101.804209 
L 403.153207 101.804209 
L 403.474607 101.804209 
L 403.796006 101.804209 
L 404.117406 101.804209 
L 404.438805 101.804209 
L 404.760205 101.804209 
L 405.081605 101.804209 
L 405.403004 101.804209 
L 405.724404 101.804209 
L 406.045803 101.804209 
L 406.367203 101.804209 
L 406.688602 101.804209 
L 407.010002 101.804209 
L 407.331401 101.804209 
L 407.652801 101.804209 
L 407.9742 101.804209 
L 408.2956 101.804209 
L 408.616999 101.804209 
L 408.938399 101.804209 
L 409.259798 101.804209 
L 409.581198 101.804209 
L 409.902598 101.804209 
L 410.223997 101.804209 
L 410.545397 101.804209 
L 410.866796 101.804209 
L 411.188196 101.804209 
L 411.509595 101.804209 
L 411.830995 101.804209 
L 412.152394 101.804209 
L 412.473794 101.804209 
L 412.795193 101.804209 
L 413.116593 101.804209 
L 413.437992 101.804209 
L 413.759392 101.804209 
L 414.080791 101.804209 
L 414.402191 101.804209 
L 414.723591 101.804209 
L 415.04499 101.804209 
L 415.36639 101.804209 
L 415.687789 101.804209 
L 416.009189 101.804209 
L 416.330588 101.804209 
L 416.651988 101.804209 
L 416.973387 101.804209 
L 417.294787 101.804209 
L 417.616186 101.804209 
L 417.937586 101.804209 
L 418.258985 101.804209 
L 418.580385 101.804209 
L 418.901784 101.804209 
L 419.223184 101.804209 
L 419.544584 101.804209 
L 419.865983 101.804209 
L 420.187383 101.804209 
L 420.508782 101.804209 
L 420.508782 69.696396 
L 420.508782 69.696396 
L 420.187383 69.696396 
L 419.865983 69.696396 
L 419.544584 69.696396 
L 419.223184 69.696396 
L 418.901784 69.696396 
L 418.580385 69.696396 
L 418.258985 69.696396 
L 417.937586 69.696396 
L 417.616186 69.696396 
L 417.294787 69.696396 
L 416.973387 69.696396 
L 416.651988 69.696396 
L 416.330588 69.696396 
L 416.009189 69.696396 
L 415.687789 69.696396 
L 415.36639 69.696396 
L 415.04499 69.696396 
L 414.723591 69.696396 
L 414.402191 69.696396 
L 414.080791 69.696396 
L 413.759392 69.696396 
L 413.437992 69.696396 
L 413.116593 69.696396 
L 412.795193 69.696396 
L 412.473794 69.696396 
L 412.152394 69.696396 
L 411.830995 69.696396 
L 411.509595 69.696396 
L 411.188196 69.696396 
L 410.866796 69.696396 
L 410.545397 69.696396 
L 410.223997 69.696396 
L 409.902598 69.696396 
L 409.581198 69.696396 
L 409.259798 69.696396 
L 408.938399 69.696396 
L 408.616999 69.696396 
L 408.2956 69.696396 
L 407.9742 69.696396 
L 407.652801 69.696396 
L 407.331401 69.696396 
L 407.010002 69.696396 
L 406.688602 69.696396 
L 406.367203 69.696396 
L 406.045803 69.696396 
L 405.724404 69.696396 
L 405.403004 69.696396 
L 405.081605 69.696396 
L 404.760205 69.696396 
L 404.438805 69.696396 
L 404.117406 69.696396 
L 403.796006 69.696396 
L 403.474607 69.696396 
L 403.153207 69.696396 
L 402.831808 69.696396 
L 402.510408 69.696396 
L 402.189009 69.696396 
L 401.867609 69.696396 
L 401.54621 69.696396 
L 401.22481 69.696396 
L 400.903411 69.696396 
L 400.582011 69.696396 
L 400.260612 69.696396 
L 399.939212 69.696396 
L 399.617812 69.696396 
L 399.296413 69.696396 
L 398.975013 69.696396 
L 398.653614 69.696396 
L 398.332214 69.696396 
L 398.010815 69.696396 
L 397.689415 69.696396 
L 397.368016 69.696396 
L 397.046616 69.696396 
L 396.725217 69.696396 
L 396.403817 69.696396 
L 396.082418 69.696396 
L 395.761018 69.696396 
L 395.439619 69.696396 
L 395.118219 69.696396 
L 394.796819 69.696396 
L 394.47542 69.696396 
L 394.15402 69.696396 
L 393.832621 69.696396 
L 393.511221 69.696396 
L 393.189822 69.696396 
L 392.868422 69.696396 
L 392.547023 69.696396 
L 392.225623 69.696396 
L 391.904224 69.696396 
L 391.582824 69.696396 
L 391.261425 69.696396 
L 390.940025 69.696396 
L 390.618625 69.696396 
L 390.297226 69.696396 
L 389.975826 69.696396 
L 389.654427 69.696396 
L 389.333027 69.696396 
L 389.011628 69.696396 
L 388.690228 69.696396 
L 388.368829 69.696396 
L 388.047429 69.696396 
L 387.72603 69.696396 
L 387.40463 69.696396 
L 387.083231 69.696396 
L 386.761831 69.696396 
L 386.440432 69.696396 
L 386.119032 69.696396 
L 385.797632 69.696396 
L 385.476233 69.696396 
L 385.154833 69.696396 
L 384.833434 69.696396 
L 384.512034 69.696396 
L 384.190635 69.696396 
L 383.869235 69.696396 
L 383.547836 69.696396 
L 383.226436 69.696396 
L 382.905037 69.696396 
L 382.583637 69.696396 
L 382.262238 69.696396 
L 381.940838 69.696396 
L 381.619439 69.696396 
L 381.298039 69.696396 
L 380.976639 69.696396 
L 380.65524 69.696396 
L 380.33384 69.696396 
L 380.012441 69.696396 
L 379.691041 69.696396 
L 379.369642 69.696396 
L 379.048242 69.696396 
L 378.726843 69.696396 
L 378.405443 69.696396 
L 378.084044 69.696396 
L 377.762644 69.696396 
L 377.441245 69.696396 
L 377.119845 69.696396 
L 376.798446 69.696396 
L 376.477046 69.696396 
L 376.155646 69.696396 
L 375.834247 69.696396 
L 375.512847 69.696396 
L 375.191448 69.696396 
L 374.870048 69.696396 
L 374.548649 69.696396 
L 374.227249 69.696396 
L 373.90585 69.696396 
L 373.58445 69.696396 
L 373.263051 69.696396 
L 372.941651 69.696396 
L 372.620252 69.696396 
L 372.298852 69.696396 
L 371.977453 69.696396 
L 371.656053 69.696396 
L 371.334653 69.696396 
L 371.013254 69.696396 
L 370.691854 69.696396 
L 370.370455 69.696396 
L 370.049055 69.696396 
L 369.727656 69.696396 
L 369.406256 69.696396 
L 369.084857 69.696396 
L 368.763457 69.696396 
L 368.442058 69.696396 
L 368.120658 69.696396 
L 367.799259 69.696396 
L 367.477859 69.696396 
L 367.15646 69.696396 
L 366.83506 69.696396 
L 366.51366 69.696396 
L 366.192261 69.696396 
L 365.870861 69.696396 
L 365.549462 69.696396 
L 365.228062 69.696396 
L 364.906663 69.696396 
L 364.585263 69.696396 
L 364.263864 69.696396 
L 363.942464 69.696396 
L 363.621065 69.696396 
L 363.299665 69.696396 
L 362.978266 69.696396 
L 362.656866 69.696396 
L 362.335467 69.696396 
L 362.014067 69.696396 
L 361.692667 69.696396 
L 361.371268 69.696396 
L 361.049868 69.696396 
L 360.728469 69.696396 
L 360.407069 69.696396 
L 360.08567 69.696396 
L 359.76427 69.696396 
L 359.442871 69.696396 
L 359.121471 69.696396 
L 358.800072 69.696396 
L 358.478672 69.696396 
L 358.157273 69.696396 
L 357.835873 69.696396 
L 357.514474 69.696396 
L 357.193074 69.696396 
L 356.871674 69.696396 
L 356.550275 69.696396 
L 356.228875 69.696396 
L 355.907476 69.696396 
L 355.586076 69.696396 
L 355.264677 69.696396 
L 354.943277 69.696396 
L 354.621878 69.696396 
L 354.300478 69.696396 
L 353.979079 69.696396 
L 353.657679 69.696396 
L 353.33628 69.696396 
L 353.01488 69.696396 
L 352.693481 69.696396 
L 352.372081 69.696396 
L 352.050681 69.696396 
L 351.729282 69.696396 
L 351.407882 69.696396 
L 351.086483 69.696396 
L 350.765083 69.696396 
L 350.443684 69.696396 
L 350.122284 69.696396 
L 349.800885 69.696396 
L 349.479485 69.696396 
L 349.158086 69.696396 
L 348.836686 69.696396 
L 348.515287 69.696396 
L 348.193887 69.696396 
L 347.872488 69.696396 
L 347.551088 69.696396 
L 347.229688 69.696396 
L 346.908289 69.696396 
L 346.586889 69.696396 
L 346.26549 69.696396 
L 345.94409 69.696396 
L 345.622691 69.696396 
L 345.301291 69.696396 
L 344.979892 69.696396 
L 344.658492 69.696396 
L 344.337093 69.696396 
L 344.015693 69.696396 
L 343.694294 69.696396 
L 343.372894 69.696396 
L 343.051495 69.696396 
L 342.730095 69.696396 
L 342.408695 69.696396 
L 342.087296 69.696396 
L 341.765896 69.696396 
L 341.444497 69.696396 
L 341.123097 69.696396 
L 340.801698 69.696396 
L 340.480298 69.696396 
L 340.158899 69.696396 
L 339.837499 69.696396 
L 339.5161 69.696396 
L 339.1947 69.696396 
L 338.873301 69.696396 
L 338.551901 69.696396 
L 338.230502 69.696396 
L 337.909102 69.696396 
L 337.587702 69.696396 
L 337.266303 69.696396 
L 336.944903 69.696396 
L 336.623504 69.696396 
L 336.302104 69.696396 
L 335.980705 69.696396 
L 335.659305 69.696396 
L 335.337906 69.696396 
L 335.016506 69.696396 
L 334.695107 69.696396 
L 334.373707 69.696396 
L 334.052308 69.696396 
L 333.730908 69.696396 
L 333.409509 69.696396 
L 333.088109 69.696396 
L 332.766709 69.696396 
L 332.44531 69.696396 
L 332.12391 69.696396 
L 331.802511 69.696396 
L 331.481111 69.696396 
L 331.159712 69.696396 
L 330.838312 69.696396 
L 330.516913 69.696396 
L 330.195513 69.696396 
L 329.874114 69.696396 
L 329.552714 69.696396 
L 329.231315 69.696396 
L 328.909915 69.696396 
L 328.588515 69.696396 
L 328.267116 69.696396 
L 327.945716 69.696396 
L 327.624317 69.696396 
L 327.302917 69.696396 
L 326.981518 69.696396 
L 326.660118 69.696396 
L 326.338719 69.696396 
L 326.017319 69.696396 
L 325.69592 69.696396 
L 325.37452 69.696396 
L 325.053121 69.696396 
L 324.731721 69.696396 
L 324.410322 69.696396 
L 324.088922 69.696396 
L 323.767522 69.696396 
L 323.446123 69.696396 
L 323.124723 69.696396 
L 322.803324 69.696396 
L 322.481924 69.696396 
L 322.160525 69.696396 
L 321.839125 69.696396 
L 321.517726 69.696396 
L 321.196326 69.696396 
L 320.874927 69.696396 
L 320.553527 69.696396 
L 320.232128 69.696396 
L 319.910728 69.696396 
L 319.589329 69.696396 
L 319.267929 69.696396 
L 318.946529 69.696396 
L 318.62513 69.696396 
L 318.30373 69.696396 
L 317.982331 69.696396 
L 317.660931 69.696396 
L 317.339532 69.696396 
L 317.018132 69.696396 
L 316.696733 69.696396 
L 316.375333 69.696396 
L 316.053934 69.696396 
L 315.732534 69.696396 
L 315.411135 69.696396 
L 315.089735 69.696396 
L 314.768336 69.696396 
L 314.446936 69.696396 
L 314.125536 69.696396 
L 313.804137 69.696396 
L 313.482737 69.696396 
L 313.161338 69.696396 
L 312.839938 69.696396 
L 312.518539 69.696396 
L 312.197139 69.696396 
L 311.87574 69.696396 
L 311.55434 69.696396 
L 311.232941 69.696396 
L 310.911541 69.696396 
L 310.590142 69.696396 
L 310.268742 69.696396 
L 309.947343 69.696396 
L 309.625943 69.696396 
L 309.304543 69.696396 
L 308.983144 69.696396 
L 308.661744 69.696396 
L 308.340345 69.696396 
L 308.018945 69.696396 
L 307.697546 69.696396 
L 307.376146 69.696396 
L 307.054747 69.696396 
L 306.733347 69.696396 
L 306.411948 69.696396 
L 306.090548 69.696396 
L 305.769149 69.696396 
L 305.447749 69.696396 
L 305.12635 69.696396 
L 304.80495 69.696396 
L 304.48355 69.696396 
L 304.162151 69.696396 
L 303.840751 69.696396 
L 303.519352 69.696396 
L 303.197952 69.696396 
L 302.876553 69.696396 
L 302.555153 69.696396 
L 302.233754 69.696396 
L 301.912354 69.696396 
L 301.590955 69.696396 
L 301.269555 69.696396 
L 300.948156 69.696396 
L 300.626756 69.696396 
L 300.305357 69.696396 
L 299.983957 69.696396 
L 299.662557 69.696396 
L 299.341158 69.696396 
L 299.019758 69.696396 
L 298.698359 69.696396 
L 298.376959 69.696396 
L 298.05556 69.696396 
L 297.73416 69.696396 
L 297.412761 69.696396 
L 297.091361 69.696396 
L 296.769962 69.696396 
L 296.448562 69.696396 
L 296.127163 69.696396 
L 295.805763 69.696396 
L 295.484364 69.696396 
L 295.162964 69.696396 
L 294.841564 69.696396 
L 294.520165 69.696396 
L 294.198765 69.696396 
L 293.877366 69.696396 
L 293.555966 69.696396 
L 293.234567 69.696396 
L 292.913167 69.696396 
L 292.591768 69.696396 
L 292.270368 69.696396 
L 291.948969 69.696396 
L 291.627569 69.696396 
L 291.30617 69.696396 
L 290.98477 69.696396 
L 290.663371 69.696396 
L 290.341971 69.696396 
L 290.020571 69.696396 
L 289.699172 69.696396 
L 289.377772 69.696396 
L 289.056373 69.696396 
L 288.734973 69.696396 
L 288.413574 69.696396 
L 288.092174 69.696396 
L 287.770775 69.696396 
L 287.449375 69.696396 
L 287.127976 69.696396 
L 286.806576 69.696396 
L 286.485177 69.696396 
L 286.163777 69.696396 
L 285.842378 69.696396 
L 285.520978 69.696396 
L 285.199578 69.696396 
L 284.878179 69.696396 
L 284.556779 69.696396 
L 284.23538 69.696396 
L 283.91398 69.696396 
L 283.592581 69.696396 
L 283.271181 69.696396 
L 282.949782 69.696396 
L 282.628382 69.696396 
L 282.306983 69.696396 
L 281.985583 69.696396 
L 281.664184 69.696396 
L 281.342784 69.696396 
L 281.021385 69.696396 
L 280.699985 69.696396 
L 280.378585 69.696396 
L 280.057186 69.696396 
L 279.735786 69.696396 
L 279.414387 69.696396 
L 279.092987 69.696396 
L 278.771588 69.696396 
L 278.450188 69.696396 
L 278.128789 69.696396 
L 277.807389 69.696396 
L 277.48599 69.696396 
L 277.16459 69.696396 
L 276.843191 69.696396 
L 276.521791 69.696396 
L 276.200392 69.696396 
L 275.878992 69.696396 
L 275.557592 69.696396 
L 275.236193 69.696396 
L 274.914793 69.696396 
L 274.593394 69.696396 
L 274.271994 69.696396 
L 273.950595 69.696396 
L 273.629195 69.696396 
L 273.307796 69.696396 
L 272.986396 69.696396 
L 272.664997 69.696396 
L 272.343597 69.696396 
L 272.022198 69.696396 
L 271.700798 69.696396 
L 271.379399 69.696396 
L 271.057999 69.696396 
L 270.736599 69.696396 
L 270.4152 69.696396 
L 270.0938 69.696396 
L 269.772401 69.696396 
L 269.451001 69.696396 
L 269.129602 69.696396 
L 268.808202 69.696396 
L 268.486803 69.696396 
L 268.165403 69.696396 
L 267.844004 69.696396 
L 267.522604 69.696396 
L 267.201205 69.696396 
L 266.879805 69.696396 
L 266.558405 69.696396 
L 266.237006 69.696396 
L 265.915606 69.696396 
L 265.594207 69.696396 
L 265.272807 69.696396 
L 264.951408 69.696396 
L 264.630008 69.696396 
L 264.308609 69.696396 
L 263.987209 69.696396 
L 263.66581 69.696396 
L 263.34441 69.696396 
L 263.023011 69.696396 
L 262.701611 69.696396 
L 262.380212 69.696396 
L 262.058812 69.696396 
L 261.737412 69.696396 
L 261.416013 69.696396 
L 261.094613 69.696396 
L 260.773214 69.696396 
L 260.451814 69.696396 
L 260.130415 69.696396 
L 259.809015 69.696396 
L 259.487616 69.696396 
L 259.166216 69.696396 
L 258.844817 69.696396 
L 258.523417 69.696396 
L 258.202018 69.696396 
L 257.880618 69.696396 
L 257.559219 69.696396 
L 257.237819 69.696396 
L 256.916419 69.696396 
L 256.59502 69.696396 
L 256.27362 69.696396 
L 255.952221 69.696396 
L 255.630821 69.696396 
L 255.309422 69.696396 
L 254.988022 69.696396 
L 254.666623 69.696396 
L 254.345223 69.696396 
L 254.023824 69.696396 
L 253.702424 69.696396 
L 253.381025 69.696396 
L 253.059625 69.696396 
L 252.738226 69.696396 
L 252.416826 69.696396 
L 252.095426 69.696396 
L 251.774027 69.696396 
L 251.452627 69.696396 
L 251.131228 69.696396 
L 250.809828 69.696396 
L 250.488429 69.696396 
L 250.167029 69.696396 
L 249.84563 69.696396 
L 249.52423 69.696396 
L 249.202831 69.696396 
L 248.881431 69.696396 
L 248.560032 69.696396 
L 248.238632 69.696396 
L 247.917233 69.696396 
L 247.595833 69.696396 
L 247.274433 69.696396 
L 246.953034 69.696396 
L 246.631634 69.696396 
L 246.310235 69.696396 
L 245.988835 69.696396 
L 245.667436 69.696396 
L 245.346036 69.696396 
L 245.024637 69.696396 
L 244.703237 69.696396 
L 244.381838 69.696396 
L 244.060438 69.696396 
L 243.739039 69.696396 
L 243.417639 69.696396 
L 243.09624 69.696396 
L 242.77484 69.696396 
L 242.45344 69.696396 
L 242.132041 69.696396 
L 241.810641 69.696396 
L 241.489242 69.696396 
L 241.167842 69.696396 
L 240.846443 69.696396 
L 240.525043 69.696396 
L 240.203644 69.696396 
L 239.882244 69.696396 
L 239.560845 69.696396 
L 239.239445 69.696396 
L 238.918046 69.696396 
L 238.596646 69.696396 
L 238.275247 69.696396 
L 237.953847 69.696396 
L 237.632447 69.696396 
L 237.311048 69.696396 
L 236.989648 69.696396 
L 236.668249 69.696396 
L 236.346849 69.696396 
L 236.02545 69.696396 
L 235.70405 69.696396 
L 235.382651 69.696396 
L 235.061251 69.696396 
L 234.739852 69.696396 
L 234.418452 69.696396 
L 234.097053 69.696396 
L 233.775653 69.696396 
L 233.454254 69.696396 
L 233.132854 69.696396 
L 232.811454 69.696396 
L 232.490055 69.696396 
L 232.168655 69.696396 
L 231.847256 69.696396 
L 231.525856 69.696396 
L 231.204457 69.696396 
L 230.883057 69.696396 
L 230.561658 69.696396 
L 230.240258 69.696396 
L 229.918859 69.696396 
L 229.597459 69.696396 
L 229.27606 69.696396 
L 228.95466 69.696396 
L 228.633261 69.696396 
L 228.311861 69.696396 
L 227.990461 69.696396 
L 227.669062 69.696396 
L 227.347662 69.696396 
L 227.026263 69.696396 
L 226.704863 69.696396 
L 226.383464 69.696396 
L 226.062064 69.696396 
L 225.740665 69.696396 
L 225.419265 69.696396 
L 225.097866 69.696396 
L 224.776466 69.696396 
L 224.455067 69.696396 
L 224.133667 69.696396 
L 223.812268 69.696396 
L 223.490868 69.696396 
L 223.169468 69.696396 
L 222.848069 69.696396 
L 222.526669 69.696396 
L 222.20527 69.696396 
L 221.88387 69.696396 
L 221.562471 69.696396 
L 221.241071 69.696396 
L 220.919672 69.696396 
L 220.598272 69.696396 
L 220.276873 69.696396 
L 219.955473 69.696396 
L 219.634074 69.696396 
L 219.312674 69.696396 
L 218.991275 69.696396 
L 218.669875 69.696396 
L 218.348475 69.696396 
L 218.027076 69.696396 
L 217.705676 69.696396 
L 217.384277 69.696396 
L 217.062877 69.696396 
L 216.741478 69.696396 
L 216.420078 69.696396 
L 216.098679 69.696396 
L 215.777279 69.696396 
L 215.45588 69.696396 
L 215.13448 69.696396 
L 214.813081 69.696396 
L 214.491681 69.696396 
L 214.170282 69.696396 
L 213.848882 69.696396 
L 213.527482 69.696396 
L 213.206083 69.696396 
L 212.884683 69.696396 
L 212.563284 69.696396 
L 212.241884 69.696396 
L 211.920485 69.696396 
L 211.599085 69.696396 
L 211.277686 69.696396 
L 210.956286 69.696396 
L 210.634887 69.696396 
L 210.313487 69.696396 
L 209.992088 69.696396 
L 209.670688 69.696396 
L 209.349289 69.696396 
L 209.027889 69.696396 
L 208.706489 69.696396 
L 208.38509 69.696396 
L 208.06369 69.696396 
L 207.742291 69.696396 
L 207.420891 69.696396 
L 207.099492 69.696396 
L 206.778092 69.696396 
L 206.456693 69.696396 
L 206.135293 69.696396 
L 205.813894 69.696396 
L 205.492494 69.696396 
L 205.171095 69.696396 
L 204.849695 69.696396 
L 204.528296 69.696396 
L 204.206896 69.696396 
L 203.885496 69.696396 
L 203.564097 69.696396 
L 203.242697 69.696396 
L 202.921298 69.696396 
L 202.599898 69.696396 
L 202.278499 69.696396 
L 201.957099 69.696396 
L 201.6357 69.696396 
L 201.3143 69.696396 
L 200.992901 69.696396 
L 200.671501 69.696396 
L 200.350102 69.696396 
L 200.028702 69.696396 
L 199.707302 69.696396 
L 199.385903 69.696396 
L 199.064503 69.696396 
L 198.743104 69.696396 
L 198.421704 69.696396 
L 198.100305 69.696396 
L 197.778905 69.696396 
L 197.457506 69.696396 
L 197.136106 69.696396 
L 196.814707 69.696396 
L 196.493307 69.696396 
L 196.171908 69.696396 
L 195.850508 69.696396 
L 195.529109 69.696396 
L 195.207709 69.696396 
L 194.886309 69.696396 
L 194.56491 69.696396 
L 194.24351 69.696396 
L 193.922111 69.696396 
L 193.600711 69.696396 
L 193.279312 69.696396 
L 192.957912 69.696396 
L 192.636513 69.696396 
L 192.315113 69.696396 
L 191.993714 69.696396 
L 191.672314 69.696396 
L 191.350915 69.696396 
L 191.029515 69.696396 
L 190.708116 69.696396 
L 190.386716 69.696396 
L 190.065316 69.696396 
L 189.743917 69.696396 
L 189.422517 69.696396 
L 189.101118 69.696396 
L 188.779718 69.696396 
L 188.458319 69.696396 
L 188.136919 69.696396 
L 187.81552 69.696396 
L 187.49412 69.696396 
L 187.172721 69.696396 
L 186.851321 69.696396 
L 186.529922 69.696396 
L 186.208522 69.696396 
L 185.887123 69.696396 
L 185.565723 69.696396 
L 185.244323 69.696396 
L 184.922924 69.696396 
L 184.601524 69.696396 
L 184.280125 69.696396 
L 183.958725 69.696396 
L 183.637326 69.696396 
L 183.315926 69.696396 
L 182.994527 69.696396 
L 182.673127 69.696396 
L 182.351728 69.696396 
L 182.030328 69.696396 
L 181.708929 69.696396 
L 181.387529 69.696396 
L 181.06613 69.696396 
L 180.74473 69.696396 
L 180.42333 69.696396 
L 180.101931 69.696396 
L 179.780531 69.696396 
L 179.459132 69.696396 
L 179.137732 69.696396 
L 178.816333 69.696396 
L 178.494933 69.696396 
L 178.173534 69.696396 
L 177.852134 69.696396 
L 177.530735 69.696396 
L 177.209335 69.696396 
L 176.887936 69.696396 
L 176.566536 69.696396 
L 176.245137 69.696396 
L 175.923737 69.696396 
L 175.602337 69.696396 
L 175.280938 69.696396 
L 174.959538 69.696396 
L 174.638139 69.696396 
L 174.316739 69.696396 
L 173.99534 69.696396 
L 173.67394 69.696396 
L 173.352541 69.696396 
L 173.031141 69.696396 
L 172.709742 69.696396 
L 172.388342 69.696396 
L 172.066943 69.696396 
L 171.745543 69.696396 
L 171.424144 69.696396 
L 171.102744 69.696396 
L 170.781344 69.696396 
L 170.459945 69.696396 
L 170.138545 69.696396 
L 169.817146 69.696396 
L 169.495746 69.696396 
L 169.174347 69.696396 
L 168.852947 69.696396 
L 168.531548 69.696396 
L 168.210148 69.696396 
L 167.888749 69.696396 
L 167.567349 69.696396 
L 167.24595 69.696396 
L 166.92455 69.696396 
L 166.603151 69.696396 
L 166.281751 69.696396 
L 165.960351 69.696396 
L 165.638952 69.696396 
L 165.317552 69.696396 
L 164.996153 69.696396 
L 164.674753 69.696396 
L 164.353354 69.696396 
L 164.031954 69.696396 
L 163.710555 69.696396 
L 163.389155 69.696396 
L 163.067756 69.696396 
L 162.746356 69.696396 
L 162.424957 69.696396 
L 162.103557 69.696396 
L 161.782158 69.696396 
L 161.460758 69.696396 
L 161.139358 69.696396 
L 160.817959 69.696396 
L 160.496559 69.696396 
L 160.17516 69.696396 
L 159.85376 69.696396 
L 159.532361 69.696396 
L 159.210961 69.696396 
L 158.889562 69.696396 
L 158.568162 69.696396 
L 158.246763 69.696396 
L 157.925363 69.696396 
L 157.603964 69.696396 
L 157.282564 69.696396 
L 156.961165 69.696396 
L 156.639765 69.696396 
L 156.318365 69.696396 
L 155.996966 69.696396 
L 155.675566 69.696396 
L 155.354167 69.696396 
L 155.032767 69.696396 
L 154.711368 69.696396 
L 154.389968 69.696396 
L 154.068569 69.696396 
L 153.747169 69.696396 
L 153.42577 69.696396 
L 153.10437 69.696396 
L 152.782971 69.696396 
L 152.461571 69.696396 
L 152.140172 69.696396 
L 151.818772 69.696396 
L 151.497372 69.696396 
L 151.175973 69.696396 
L 150.854573 69.696396 
L 150.533174 69.696396 
L 150.211774 69.696396 
L 149.890375 69.696396 
L 149.568975 69.696396 
L 149.247576 69.696396 
L 148.926176 69.696396 
L 148.604777 69.696396 
L 148.283377 69.696396 
L 147.961978 69.696396 
L 147.640578 69.696396 
L 147.319179 69.696396 
L 146.997779 69.696396 
L 146.676379 69.696396 
L 146.35498 69.696396 
L 146.03358 69.696396 
L 145.712181 69.696396 
L 145.390781 69.696396 
L 145.069382 69.696396 
L 144.747982 69.696396 
L 144.426583 69.696396 
L 144.105183 69.696396 
L 143.783784 69.696396 
L 143.462384 69.696396 
L 143.140985 69.696396 
L 142.819585 69.696396 
L 142.498186 69.696396 
L 142.176786 69.696396 
L 141.855386 69.696396 
L 141.533987 69.696396 
L 141.212587 69.696396 
L 140.891188 69.696396 
L 140.569788 69.696396 
L 140.248389 69.696396 
L 139.926989 69.696396 
L 139.60559 69.696396 
L 139.28419 69.696396 
L 138.962791 69.696396 
L 138.641391 69.696396 
L 138.319992 69.696396 
L 137.998592 69.696396 
L 137.677192 69.696396 
L 137.355793 69.696396 
L 137.034393 69.696396 
L 136.712994 69.696396 
L 136.391594 69.696396 
L 136.070195 69.696396 
L 135.748795 69.696396 
L 135.427396 69.696396 
L 135.105996 69.696396 
L 134.784597 69.696396 
L 134.463197 69.696396 
L 134.141798 69.696396 
L 133.820398 69.696396 
L 133.498999 69.696396 
L 133.177599 69.696396 
L 132.856199 69.696396 
L 132.5348 69.696396 
L 132.2134 69.696396 
L 131.892001 69.696396 
L 131.570601 69.696396 
L 131.249202 69.696396 
L 130.927802 69.696396 
L 130.606403 69.696396 
L 130.285003 69.696396 
L 129.963604 69.696396 
L 129.642204 69.696396 
L 129.320805 69.696396 
L 128.999405 69.696396 
L 128.678006 69.696396 
L 128.356606 69.696396 
L 128.035206 69.696396 
L 127.713807 69.696396 
L 127.392407 69.696396 
L 127.071008 69.696396 
L 126.749608 69.696396 
L 126.428209 69.696396 
L 126.106809 69.696396 
L 125.78541 69.696396 
L 125.46401 69.696396 
L 125.142611 69.696396 
L 124.821211 69.696396 
L 124.499812 69.696396 
L 124.178412 69.696396 
L 123.857013 69.696396 
L 123.535613 69.696396 
L 123.214213 69.696396 
L 122.892814 69.696396 
L 122.571414 69.696396 
L 122.250015 69.696396 
L 121.928615 69.696396 
L 121.607216 69.696396 
L 121.285816 69.696396 
L 120.964417 69.696396 
L 120.643017 69.696396 
L 120.321618 69.696396 
L 120.000218 69.696396 
L 119.678819 69.696396 
L 119.357419 69.696396 
L 119.03602 69.696396 
L 118.71462 69.696396 
L 118.39322 69.696396 
L 118.071821 69.696396 
L 117.750421 69.696396 
L 117.429022 69.696396 
L 117.107622 69.696396 
L 116.786223 69.696396 
L 116.464823 69.696396 
L 116.143424 69.696396 
L 115.822024 69.696396 
L 115.500625 69.696396 
L 115.179225 69.696396 
L 114.857826 69.696396 
L 114.536426 69.696396 
L 114.215027 69.696396 
L 113.893627 69.696396 
L 113.572227 69.696396 
L 113.250828 69.696396 
L 112.929428 69.696396 
L 112.608029 69.696396 
L 112.286629 69.696396 
L 111.96523 69.696396 
L 111.64383 69.696396 
L 111.322431 69.696396 
L 111.001031 69.696396 
L 110.679632 69.696396 
L 110.358232 69.696396 
L 110.036833 69.696396 
L 109.715433 69.696396 
L 109.394034 69.696396 
L 109.072634 69.696396 
L 108.751234 69.696396 
L 108.429835 69.696396 
L 108.108435 69.696396 
L 107.787036 69.696396 
L 107.465636 69.696396 
L 107.144237 69.696396 
L 106.822837 69.696396 
L 106.501438 69.696396 
L 106.180038 69.696396 
L 105.858639 69.696396 
L 105.537239 69.696396 
L 105.21584 69.696396 
L 104.89444 69.696396 
L 104.573041 69.696396 
L 104.251641 69.696396 
L 103.930241 69.696396 
L 103.608842 69.696396 
L 103.287442 69.696396 
L 102.966043 69.696396 
L 102.644643 69.696396 
L 102.323244 69.696396 
L 102.001844 69.696396 
L 101.680445 69.696396 
L 101.359045 69.696396 
L 101.037646 69.696396 
L 100.716246 69.696396 
L 100.394847 69.696396 
L 100.073447 69.696396 
L 99.752048 69.696396 
L 99.430648 69.696396 
z
" style="fill:#ff0000;fill-opacity:0.5;"/>
   </g>
   <g id="patch_3">
    <path clip-path="url(#p4b35a6e31c)" d="M 420.508782 107.021729 
C 421.040975 107.021729 421.551443 106.810287 421.92776 106.433969 
C 422.304078 106.057652 422.51552 105.547184 422.51552 105.014991 
C 422.51552 104.482798 422.304078 103.97233 421.92776 103.596013 
C 421.551443 103.219695 421.040975 103.008252 420.508782 103.008252 
C 419.976589 103.008252 419.466121 103.219695 419.089804 103.596013 
C 418.713486 103.97233 418.502044 104.482798 418.502044 105.014991 
C 418.502044 105.547184 418.713486 106.057652 419.089804 106.433969 
C 419.466121 106.810287 419.976589 107.021729 420.508782 107.021729 
z
" style="fill:none;stroke:#000000;stroke-linejoin:miter;"/>
   </g>
   <g id="patch_4">
    <path clip-path="url(#p4b35a6e31c)" d="M 179.700182 107.021729 
C 180.232375 107.021729 180.742842 106.810287 181.11916 106.433969 
C 181.495477 106.057652 181.70692 105.547184 181.70692 105.014991 
C 181.70692 104.482798 181.495477 103.97233 181.11916 103.596013 
C 180.742842 103.219695 180.232375 103.008252 179.700182 103.008252 
C 179.167988 103.008252 178.657521 103.219695 178.281203 103.596013 
C 177.904886 103.97233 177.693443 104.482798 177.693443 105.014991 
C 177.693443 105.547184 177.904886 106.057652 178.281203 106.433969 
C 178.657521 106.810287 179.167988 107.021729 179.700182 107.021729 
z
" style="fill:none;stroke:#000000;stroke-linejoin:miter;"/>
   </g>
   <g id="patch_5">
    <path clip-path="url(#p4b35a6e31c)" d="M 99.430648 102.606905 
C 99.643525 102.606905 99.847712 102.522328 99.998239 102.371801 
C 100.148766 102.221274 100.233343 102.017087 100.233343 101.804209 
C 100.233343 101.591332 100.148766 101.387145 99.998239 101.236618 
C 99.847712 101.086091 99.643525 101.001514 99.430648 101.001514 
C 99.217771 101.001514 99.013584 101.086091 98.863057 101.236618 
C 98.71253 101.387145 98.627953 101.591332 98.627953 101.804209 
C 98.627953 102.017087 98.71253 102.221274 98.863057 102.371801 
C 99.013584 102.522328 99.217771 102.606905 99.430648 102.606905 
z
" style="stroke:#000000;stroke-linejoin:miter;"/>
   </g>
   <g id="patch_6">
    <path clip-path="url(#p4b35a6e31c)" d="M 179.700182 102.606905 
C 179.913059 102.606905 180.117246 102.522328 180.267773 102.371801 
C 180.4183 102.221274 180.502877 102.017087 180.502877 101.804209 
C 180.502877 101.591332 180.4183 101.387145 180.267773 101.236618 
C 180.117246 101.086091 179.913059 101.001514 179.700182 101.001514 
C 179.487304 101.001514 179.283117 101.086091 179.13259 101.236618 
C 178.982063 101.387145 178.897486 101.591332 178.897486 101.804209 
C 178.897486 102.017087 178.982063 102.221274 179.13259 102.371801 
C 179.283117 102.522328 179.487304 102.606905 179.700182 102.606905 
z
" style="stroke:#000000;stroke-linejoin:miter;"/>
   </g>
   <g id="patch_7">
    <path clip-path="url(#p4b35a6e31c)" d="M 420.508782 102.606905 
C 420.721659 102.606905 420.925846 102.522328 421.076373 102.371801 
C 421.2269 102.221274 421.311477 102.017087 421.311477 101.804209 
C 421.311477 101.591332 421.2269 101.387145 421.076373 101.236618 
C 420.925846 101.086091 420.721659 101.001514 420.508782 101.001514 
C 420.295905 101.001514 420.091718 101.086091 419.941191 101.236618 
C 419.790664 101.387145 419.706087 101.591332 419.706087 101.804209 
C 419.706087 102.017087 419.790664 102.221274 419.941191 102.371801 
C 420.091718 102.522328 420.295905 102.606905 420.508782 102.606905 
z
" style="stroke:#000000;stroke-linejoin:miter;"/>
   </g>
   <g id="line2d_1">
    <path clip-path="url(#p4b35a6e31c)" d="M 99.430648 101.804209 
L 420.508782 101.804209 
L 420.508782 101.804209 
" style="fill:none;stroke:#000000;stroke-linecap:square;"/>
   </g>
   <g id="line2d_2">
    <path clip-path="url(#p4b35a6e31c)" d="M 104.728437 112.560327 
L 94.132859 123.155905 
L 94.132859 91.048092 
L 104.728437 80.452514 
L 104.728437 112.560327 
" style="fill:none;stroke:#000000;stroke-linecap:square;stroke-width:0.5;"/>
   </g>
   <g id="line2d_3">
    <path clip-path="url(#p4b35a6e31c)" d="M 425.806571 112.560327 
L 415.210993 123.155905 
L 415.210993 91.048092 
L 425.806571 80.452514 
L 425.806571 112.560327 
" style="fill:none;stroke:#000000;stroke-linecap:square;stroke-width:0.5;"/>
   </g>
   <g id="line2d_4">
    <path clip-path="url(#p4b35a6e31c)" d="M 104.728437 112.560327 
L 425.806571 112.560327 
L 425.806571 112.560327 
" style="fill:none;stroke:#000000;stroke-linecap:square;stroke-width:0.5;"/>
   </g>
   <g id="line2d_5">
    <path clip-path="url(#p4b35a6e31c)" d="M 94.132859 123.155905 
L 415.210993 123.155905 
L 415.210993 123.155905 
" style="fill:none;stroke:#000000;stroke-linecap:square;stroke-width:0.5;"/>
   </g>
   <g id="line2d_6">
    <path clip-path="url(#p4b35a6e31c)" d="M 94.132859 91.048092 
L 415.210993 91.048092 
L 415.210993 91.048092 
" style="fill:none;stroke:#000000;stroke-linecap:square;stroke-width:0.5;"/>
   </g>
   <g id="line2d_7">
    <path clip-path="url(#p4b35a6e31c)" d="M 104.728437 80.452514 
L 425.806571 80.452514 
L 425.806571 80.452514 
" style="fill:none;stroke:#000000;stroke-linecap:square;stroke-width:0.5;"/>
   </g>
   <g id="line2d_8">
    <path clip-path="url(#p4b35a6e31c)" d="M 104.728437 112.560327 
L 425.806571 112.560327 
L 425.806571 112.560327 
" style="fill:none;stroke:#000000;stroke-linecap:square;stroke-width:0.5;"/>
   </g>
   <g id="line2d_9">
    <path clip-path="url(#p4b35a6e31c)" d="M 99.430648 105.817686 
L 99.430648 109.831163 
" style="fill:none;stroke:#000000;stroke-linecap:round;"/>
   </g>
   <g id="line2d_10">
    <path clip-path="url(#p4b35a6e31c)" d="M 91.403695 109.831163 
L 107.457601 109.831163 
" style="fill:none;stroke:#000000;stroke-linecap:round;"/>
   </g>
   <g id="line2d_11">
    <path clip-path="url(#p4b35a6e31c)" d="M 107.457601 109.831163 
L 111.471078 113.844639 
" style="fill:none;stroke:#000000;stroke-linecap:round;"/>
   </g>
   <g id="line2d_12">
    <path clip-path="url(#p4b35a6e31c)" d="M 103.444125 109.831163 
L 107.457601 113.844639 
" style="fill:none;stroke:#000000;stroke-linecap:round;"/>
   </g>
   <g id="line2d_13">
    <path clip-path="url(#p4b35a6e31c)" d="M 99.430648 109.831163 
L 103.444125 113.844639 
" style="fill:none;stroke:#000000;stroke-linecap:round;"/>
   </g>
   <g id="line2d_14">
    <path clip-path="url(#p4b35a6e31c)" d="M 95.417171 109.831163 
L 99.430648 113.844639 
" style="fill:none;stroke:#000000;stroke-linecap:round;"/>
   </g>
   <g id="line2d_15">
    <path clip-path="url(#p4b35a6e31c)" d="M 91.403695 109.831163 
L 95.417171 113.844639 
" style="fill:none;stroke:#000000;stroke-linecap:round;"/>
   </g>
   <g id="line2d_16">
    <path clip-path="url(#p4b35a6e31c)" d="M 420.508782 107.021729 
L 420.508782 109.831163 
" style="fill:none;stroke:#000000;stroke-linecap:round;"/>
   </g>
   <g id="line2d_17">
    <path clip-path="url(#p4b35a6e31c)" d="M 412.481829 109.831163 
L 428.535735 109.831163 
" style="fill:none;stroke:#000000;stroke-linecap:round;"/>
   </g>
   <g id="line2d_18">
    <path clip-path="url(#p4b35a6e31c)" d="M 428.535735 109.831163 
L 432.549212 113.844639 
" style="fill:none;stroke:#000000;stroke-linecap:round;"/>
   </g>
   <g id="line2d_19">
    <path clip-path="url(#p4b35a6e31c)" d="M 424.522259 109.831163 
L 428.535735 113.844639 
" style="fill:none;stroke:#000000;stroke-linecap:round;"/>
   </g>
   <g id="line2d_20">
    <path clip-path="url(#p4b35a6e31c)" d="M 420.508782 109.831163 
L 424.522259 113.844639 
" style="fill:none;stroke:#000000;stroke-linecap:round;"/>
   </g>
   <g id="line2d_21">
    <path clip-path="url(#p4b35a6e31c)" d="M 416.495305 109.831163 
L 420.508782 113.844639 
" style="fill:none;stroke:#000000;stroke-linecap:round;"/>
   </g>
   <g id="line2d_22">
    <path clip-path="url(#p4b35a6e31c)" d="M 412.481829 109.831163 
L 416.495305 113.844639 
" style="fill:none;stroke:#000000;stroke-linecap:round;"/>
   </g>
   <g id="line2d_23">
    <path clip-path="url(#p4b35a6e31c)" d="M 179.700182 107.021729 
L 179.700182 109.831163 
" style="fill:none;stroke:#000000;stroke-linecap:round;"/>
   </g>
   <g id="line2d_24">
    <path clip-path="url(#p4b35a6e31c)" d="M 171.673228 109.831163 
L 187.727135 109.831163 
" style="fill:none;stroke:#000000;stroke-linecap:round;"/>
   </g>
   <g id="line2d_25">
    <path clip-path="url(#p4b35a6e31c)" d="M 187.727135 109.831163 
L 191.740612 113.844639 
" style="fill:none;stroke:#000000;stroke-linecap:round;"/>
   </g>
   <g id="line2d_26">
    <path clip-path="url(#p4b35a6e31c)" d="M 183.713658 109.831163 
L 187.727135 113.844639 
" style="fill:none;stroke:#000000;stroke-linecap:round;"/>
   </g>
   <g id="line2d_27">
    <path clip-path="url(#p4b35a6e31c)" d="M 179.700182 109.831163 
L 183.713658 113.844639 
" style="fill:none;stroke:#000000;stroke-linecap:round;"/>
   </g>
   <g id="line2d_28">
    <path clip-path="url(#p4b35a6e31c)" d="M 175.686705 109.831163 
L 179.700182 113.844639 
" style="fill:none;stroke:#000000;stroke-linecap:round;"/>
   </g>
   <g id="line2d_29">
    <path clip-path="url(#p4b35a6e31c)" d="M 171.673228 109.831163 
L 175.686705 113.844639 
" style="fill:none;stroke:#000000;stroke-linecap:round;"/>
   </g>
   <g id="line2d_30">
    <path clip-path="url(#p4b35a6e31c)" d="M 99.430648 69.696396 
L 420.508782 69.696396 
L 420.508782 69.696396 
" style="fill:none;stroke:#ff0000;stroke-linecap:square;"/>
   </g>
   <g id="matplotlib.axis_1">
    <g id="xtick_1">
     <g id="line2d_31">
      <path clip-path="url(#p4b35a6e31c)" d="M 99.430648 141.938976 
L 99.430648 37.588583 
" style="fill:none;stroke:#000000;stroke-dasharray:1.000000,3.000000;stroke-dashoffset:0.0;stroke-width:0.5;"/>
     </g>
     <g id="line2d_32">
      <defs>
       <path d="M 0 0 
L 0 -4 
" id="m0c5a47ab36" style="stroke:#000000;stroke-width:0.5;"/>
      </defs>
      <g>
       <use style="stroke:#000000;stroke-width:0.5;" x="99.4306479906" xlink:href="#m0c5a47ab36" y="141.938976233"/>
      </g>
     </g>
     <g id="text_1">
      <!-- $x = 0$ -->
      <defs>
       <path d="M 27.796875 68.6875 
C 13.5 68.6875 4.09375 56.046875 4.09375 33.890625 
C 4.09375 11.75 13.5 -1 27.796875 -1 
C 42.09375 -1 51.5 11.75 51.5 33.890625 
C 51.5 56.046875 42.09375 68.6875 27.796875 68.6875 
M 27.796875 64 
C 37 64 42 53.765625 42 33.890625 
C 42 14.03125 37 3.796875 27.796875 3.796875 
C 18.59375 3.796875 13.5 13.921875 13.5 33.796875 
C 13.5 53.765625 18.59375 64 27.796875 64 
" id="Bitstream_Charter-48"/>
       <path d="M 5.59375 37 
L 72.796875 37 
L 72.796875 43 
L 5.59375 43 
z
M 5.59375 15 
L 72.796875 15 
L 72.796875 21 
L 5.59375 21 
z
" id="MathDesign_CH_Regular_OT1_10-61"/>
       <path d="M 12.90625 48.90625 
L 2.796875 45.4375 
L 2.796875 43 
L 11.09375 41.875 
C 13.796875 39.34375 16.09375 33.4375 18.703125 24.15625 
C 14.59375 14.078125 9.296875 7.5625 4.796875 5.125 
L 0.203125 9.5 
C -2.90625 8.90625 -4.703125 7.140625 -4.703125 4.5 
C -4.703125 1.34375 -2.296875 -0.8125 1.5 -0.8125 
C 8.09375 -0.8125 14.09375 5.890625 20.59375 19.46875 
C 23.90625 5.140625 25.203125 -0.8125 32.203125 -0.8125 
C 34.90625 -0.8125 38.703125 0.171875 43.40625 2.03125 
L 43.40625 5.125 
C 41 4.40625 39.203125 4 38.09375 4 
C 32.09375 4 30.703125 10.40625 26.796875 24.15625 
C 31.203125 34.546875 35.59375 40.328125 40.203125 41.5625 
L 44.5 37.59375 
C 47.703125 38.921875 49.40625 40.859375 49.40625 43.3125 
C 49.40625 46.453125 46.90625 49 43.703125 49 
C 37.40625 49 31.203125 42.1875 24.59375 28.53125 
C 21.09375 42.3125 19.90625 49 14 49 
C 13.59375 49 13.296875 48.90625 12.90625 48.90625 
" id="Bitstream_Charter_Italic-120"/>
      </defs>
      <g transform="translate(88.0636444322 153.11211967)scale(0.1 -0.1)">
       <use transform="scale(0.956420138348)" xlink:href="#Bitstream_Charter_Italic-120"/>
       <use transform="translate(76.6570246828 0.0)scale(0.956420138348)" xlink:href="#MathDesign_CH_Regular_OT1_10-61"/>
       <use transform="translate(174.163962776 0.0)scale(0.956420138348)" xlink:href="#Bitstream_Charter-48"/>
      </g>
     </g>
    </g>
    <g id="xtick_2">
     <g id="line2d_33">
      <path clip-path="url(#p4b35a6e31c)" d="M 179.700182 141.938976 
L 179.700182 37.588583 
" style="fill:none;stroke:#000000;stroke-dasharray:1.000000,3.000000;stroke-dashoffset:0.0;stroke-width:0.5;"/>
     </g>
     <g id="line2d_34">
      <g>
       <use style="stroke:#000000;stroke-width:0.5;" x="179.700181525" xlink:href="#m0c5a47ab36" y="141.938976233"/>
      </g>
     </g>
     <g id="text_2">
      <!-- $a$ -->
      <defs>
       <path d="M 41 49 
L 39 46.78125 
C 35.90625 48.28125 32.796875 49 30 49 
C 20.09375 49 12 44.28125 6.90625 35.875 
C 3.5 30.28125 1.703125 24.078125 1.703125 17.359375 
C 1.703125 6.34375 7 -0.15625 15.5 -0.15625 
C 20.296875 -0.15625 25.09375 2.671875 30.40625 8.296875 
C 30.40625 8 30.40625 7.796875 30.40625 7.484375 
C 30.40625 2.359375 32.296875 -0.15625 36.5 -0.15625 
C 39.203125 -0.15625 43.296875 1.046875 48.796875 3.375 
L 48.796875 6.40625 
C 46.09375 5.796875 44.296875 5.390625 43.203125 5.390625 
C 39.5 5.390625 37.796875 6.78125 37.796875 10 
C 37.796875 11.390625 38.09375 13.703125 38.796875 16.984375 
L 42.40625 34.703125 
C 43.90625 42.09375 45.203125 46.890625 46.203125 49 
z
M 31.703125 45.0625 
L 35.703125 38.96875 
L 30.5 12.59375 
C 26.40625 8.203125 22.5 6 18.703125 6 
C 12.90625 6 10 10 10 17.984375 
C 10 33.875 18.59375 45.0625 30.296875 45.0625 
C 30.796875 45.0625 31.203125 45.0625 31.703125 45.0625 
" id="Bitstream_Charter_Italic-97"/>
      </defs>
      <g transform="translate(177.189584362 153.11211967)scale(0.1 -0.1)">
       <use transform="scale(0.956420138348)" xlink:href="#Bitstream_Charter_Italic-97"/>
      </g>
     </g>
    </g>
    <g id="xtick_3">
     <g id="line2d_35">
      <path clip-path="url(#p4b35a6e31c)" d="M 420.508782 141.938976 
L 420.508782 37.588583 
" style="fill:none;stroke:#000000;stroke-dasharray:1.000000,3.000000;stroke-dashoffset:0.0;stroke-width:0.5;"/>
     </g>
     <g id="line2d_36">
      <g>
       <use style="stroke:#000000;stroke-width:0.5;" x="420.508782127" xlink:href="#m0c5a47ab36" y="141.938976233"/>
      </g>
     </g>
     <g id="text_3">
      <!-- $L$ -->
      <defs>
       <path d="M 8.40625 67.5 
L 8.40625 63.6875 
L 14.90625 63.1875 
L 15.90625 61.6875 
L 5.203125 5.84375 
L 3.59375 4.34375 
L -2.796875 3.828125 
L -2.796875 0 
L 41.796875 0 
L 45.296875 18.5 
L 40.5 18.5 
L 36.59375 6.265625 
L 34.796875 4.640625 
L 13.59375 4.640625 
L 24.59375 61.671875 
L 26.203125 63.1875 
L 32.703125 63.6875 
L 32.703125 67.5 
z
" id="Bitstream_Charter_Italic-76"/>
      </defs>
      <g transform="translate(418.127301303 153.11211967)scale(0.1 -0.1)">
       <use transform="scale(0.956420138348)" xlink:href="#Bitstream_Charter_Italic-76"/>
      </g>
     </g>
    </g>
   </g>
   <g id="matplotlib.axis_2">
    <g id="ytick_1">
     <g id="line2d_37">
      <path clip-path="url(#p4b35a6e31c)" d="M 67.322835 101.804209 
L 484.724409 101.804209 
" style="fill:none;stroke:#000000;stroke-dasharray:1.000000,3.000000;stroke-dashoffset:0.0;stroke-width:0.5;"/>
     </g>
     <g id="line2d_38">
      <defs>
       <path d="M 0 0 
L 4 0 
" id="m54d8930f12" style="stroke:#000000;stroke-width:0.5;"/>
      </defs>
      <g>
       <use style="stroke:#000000;stroke-width:0.5;" x="67.322834577" xlink:href="#m54d8930f12" y="101.804209466"/>
      </g>
     </g>
     <g id="text_4">
      <!-- $0$ -->
      <g transform="translate(58.0051446885 104.310033269)scale(0.1 -0.1)">
       <use transform="scale(0.956420138348)" xlink:href="#Bitstream_Charter-48"/>
      </g>
     </g>
    </g>
   </g>
   <g id="patch_8">
    <path d="M 452.616596 101.804209 
Q 468.670502 101.804209 483.606375 101.804209 
" style="fill:none;stroke:#008000;stroke-linecap:round;"/>
    <path d="M 478.806375 99.404209 
L 483.606375 101.804209 
L 478.806375 104.204209 
" style="fill:none;stroke:#008000;stroke-linecap:round;"/>
   </g>
   <g id="text_5">
    <!-- $\vec x$ -->
    <defs>
     <path d="M 2.8125 63.046875 
L 36.8125 63.046875 
L 30.421875 59.15625 
L 33.609375 54.859375 
L 47.609375 65.25 
L 47.609375 66.75 
L 33.609375 77.25 
L 30.421875 72.953125 
L 36.8125 69.046875 
L 2.8125 69.046875 
z
" id="MathDesign_CH_Regular_Italic_MathItalic_10-126"/>
    </defs>
    <g style="fill:#008000;" transform="translate(468.670502248 97.8042094661)scale(0.12 -0.12)">
     <use transform="translate(1.81720586375 0.0)scale(0.956420138348)" xlink:href="#MathDesign_CH_Regular_Italic_MathItalic_10-126"/>
     <use transform="scale(0.956420138348)" xlink:href="#Bitstream_Charter_Italic-120"/>
    </g>
   </g>
   <g id="patch_9">
    <path d="M 99.430648 69.696396 
Q 99.430648 53.642489 99.430648 38.706617 
" style="fill:none;stroke:#008000;stroke-linecap:round;"/>
    <path d="M 97.030648 43.506617 
L 99.430648 38.706617 
L 101.830648 43.506617 
" style="fill:none;stroke:#008000;stroke-linecap:round;"/>
   </g>
   <g id="text_6">
    <!-- $\vec y$ -->
    <defs>
     <path d="M 8.296875 48.921875 
L -1.5 46.046875 
L -1.5 43.8125 
L 7 43.109375 
C 8.796875 40.65625 10.09375 37.21875 11 32.53125 
L 17.203125 1.9375 
L 17.5 2.140625 
C 11.59375 -9.484375 6.09375 -15.546875 0 -15.546875 
L -5.90625 -9.75 
C -9.203125 -10.25 -11.296875 -12.578125 -11.296875 -15.3125 
C -11.296875 -18.96875 -7.796875 -22 -2.90625 -22 
C 5.40625 -22 14.5 -13.46875 23.703125 3.484375 
C 32 18.71875 36 32.84375 43.296875 41.1875 
L 48.40625 44.21875 
L 48.40625 46.359375 
L 40.5 49 
L 38.59375 49 
C 32.296875 34.0625 27.09375 21.25 22.90625 10.375 
L 19.59375 27.375 
C 16.703125 42.0625 16 49 9.59375 49 
C 9.203125 49 8.703125 49 8.296875 48.921875 
" id="Bitstream_Charter_Italic-121"/>
    </defs>
    <g style="fill:#008000;" transform="translate(102.430647991 53.6424893456)scale(0.12 -0.12)">
     <use transform="scale(0.956420138348)" xlink:href="#MathDesign_CH_Regular_Italic_MathItalic_10-126"/>
     <use transform="translate(1.05206975307 0.0)scale(0.956420138348)" xlink:href="#Bitstream_Charter_Italic-121"/>
    </g>
   </g>
   <g id="patch_10">
    <path d="M 88.83507 112.399788 
Q 83.53728 117.697577 79.030061 122.204797 
" style="fill:none;stroke:#008000;stroke-linecap:round;"/>
    <path d="M 84.121229 120.507741 
L 79.030061 122.204797 
L 80.727117 117.113628 
" style="fill:none;stroke:#008000;stroke-linecap:round;"/>
   </g>
   <g id="text_7">
    <!-- $\vec z$ -->
    <defs>
     <path d="M 37.296875 49.703125 
L 35.40625 44.765625 
C 34.296875 44.265625 33.296875 43.953125 32.40625 43.953125 
C 30.296875 43.953125 28.203125 44.96875 25.59375 46.28125 
C 22.90625 47.6875 20.40625 49 17.40625 49 
C 10.5 49 3.90625 41.921875 3.90625 34.875 
C 3.90625 31.125 5.796875 28.90625 8.59375 28.90625 
C 10.59375 28.90625 12.09375 30.015625 13.296875 32.140625 
L 8 38.609375 
C 9.5 40.734375 11.703125 41.84375 14.296875 41.84375 
C 16.40625 41.84375 19.40625 40.828125 23.09375 38.90625 
L 33 41.140625 
L -1.40625 2.125 
L 4.09375 -0.90625 
L 6.5 3.4375 
C 7.59375 4.03125 8.59375 4.34375 9.703125 4.34375 
C 14.5 4.34375 19.59375 0 25.296875 0 
C 32.59375 0 39.203125 7.171875 39.203125 14.140625 
C 39.203125 17.78125 37.09375 20.203125 34.296875 20.203125 
C 32.59375 20.203125 30.90625 18.984375 29.5 16.5625 
L 35 10.390625 
C 33.40625 7.96875 31.296875 6.75 28.796875 6.75 
C 26.90625 6.75 23.5 7.859375 18.59375 10.09375 
L 8.90625 7.5625 
L 43.40625 46.484375 
z
" id="Bitstream_Charter_Italic-122"/>
    </defs>
    <g style="fill:#008000;" transform="translate(82.5372803509 129.697577106)scale(0.12 -0.12)">
     <use transform="translate(1.62589143252 0.143474422089)scale(0.956420138348)" xlink:href="#MathDesign_CH_Regular_Italic_MathItalic_10-126"/>
     <use transform="scale(0.956420138348)" xlink:href="#Bitstream_Charter_Italic-122"/>
    </g>
   </g>
   <g id="text_8">
    <!-- $O$ -->
    <defs>
     <path d="M 40.5 69 
C 30.296875 69 20.296875 63.859375 13.5 54.78125 
C 7.40625 46.703125 4.09375 36.828125 4.09375 26.328125 
C 4.09375 10.28125 15 -1 30.5 -1 
C 40.90625 -1 50.796875 4.140625 57.703125 13.21875 
C 63.59375 20.984375 66.90625 31.28125 66.90625 42.5625 
C 66.90625 51.4375 63 59.328125 56.203125 64.359375 
C 52.203125 67.296875 46.796875 69 40.5 69 
M 57.09375 42.46875 
C 57.09375 32.484375 54 22.40625 49.203125 15.234375 
C 44.09375 7.671875 37.90625 3.828125 31 3.828125 
C 20.703125 3.828125 13.703125 12.203125 13.703125 25.734375 
C 13.703125 35.609375 16.703125 45.703125 21.59375 52.96875 
C 26.703125 60.53125 33 64.359375 39.796875 64.359375 
C 50.203125 64.359375 57.09375 56.203125 57.09375 42.46875 
" id="Bitstream_Charter_Italic-79"/>
    </defs>
    <g transform="translate(105.430647991 97.8042094661)scale(0.12 -0.12)">
     <use transform="scale(0.956420138348)" xlink:href="#Bitstream_Charter_Italic-79"/>
    </g>
   </g>
   <g id="text_9">
    <!-- $A$ -->
    <defs>
     <path d="M 34.5 68.5 
L -2.40625 4.4375 
L -7.90625 3.828125 
L -7.90625 0 
L 11.90625 0 
L 11.90625 3.828125 
L 5.796875 4.34375 
L 5 5.75 
L 15.703125 25 
L 40 25 
L 43.09375 5.75 
L 42.40625 4.34375 
L 36.5 3.828125 
L 36.5 0 
L 58.40625 0 
L 58.40625 3.828125 
L 53.5 4.34375 
L 51.796875 6.171875 
L 41.09375 68.5 
z
M 34.5 58.390625 
L 39.09375 29.34375 
L 18.203125 29.34375 
z
" id="Bitstream_Charter_Italic-65"/>
    </defs>
    <g transform="translate(185.700181525 97.8042094661)scale(0.12 -0.12)">
     <use transform="scale(0.956420138348)" xlink:href="#Bitstream_Charter_Italic-65"/>
    </g>
   </g>
   <g id="text_10">
    <!-- $B$ -->
    <defs>
     <path d="M 8.40625 68 
L 8.40625 64.171875 
L 14.796875 63.671875 
L 15.796875 62.125 
L 5.203125 5.875 
L 3.5 4.453125 
L -2.796875 3.84375 
L -2.796875 0 
L 22.203125 0 
C 42.40625 0 52.40625 7.40625 52.40625 22.640625 
C 52.40625 30.953125 47 35.625 36.59375 35.625 
C 48.203125 38.625 54.296875 45.40625 54.296875 55.171875 
C 54.296875 64.09375 47.59375 68 34.09375 68 
z
M 19.90625 37.140625 
L 24.703125 63.765625 
C 27.09375 63.96875 28.90625 63.96875 30.203125 63.96875 
C 39.796875 63.96875 44.40625 60.921875 44.40625 54.203125 
C 44.40625 43.84375 37.203125 36.9375 25 36.9375 
C 23.703125 36.9375 22.09375 36.9375 19.90625 37.140625 
M 13.703125 4.34375 
L 19.09375 32.5 
C 22.40625 32.796875 25 33 26.796875 33 
C 37.5 33 42.59375 29.671875 42.59375 21.796875 
C 42.59375 10.078125 35.09375 4.140625 20.296875 4.140625 
C 18.203125 4.140625 16 4.140625 13.703125 4.34375 
" id="Bitstream_Charter_Italic-66"/>
    </defs>
    <g transform="translate(426.508782127 97.8042094661)scale(0.12 -0.12)">
     <use transform="scale(0.956420138348)" xlink:href="#Bitstream_Charter_Italic-66"/>
    </g>
   </g>
   <g id="text_11">
    <!-- $\vec f(x)$ -->
    <defs>
     <path d="M 35.40625 62.3125 
C 38.5 62.90625 40.296875 64.921875 40.296875 67.546875 
C 40.296875 70.578125 36.796875 73.5 32 73.5 
C 22.703125 73.5 14.296875 64.109375 11 46.75 
L 3.40625 43.625 
L 3.296875 40.296875 
L 10 41 
L 5.796875 12.125 
C 3.90625 -1.28125 2.203125 -10.4375 -2.5 -15.359375 
L -12.90625 -12.640625 
C -14.296875 -13.640625 -15.09375 -15.0625 -15.09375 -16.671875 
C -15.09375 -19.875 -12.90625 -22 -9.703125 -22 
C -4.90625 -22 0.59375 -18.171875 5.90625 -10.625 
C 10.296875 -4.390625 12.09375 3.15625 13.40625 12.421875 
L 17.40625 41 
L 32.296875 41 
L 32.296875 45.53125 
L 18.203125 45.53125 
C 20.40625 58.65625 23.40625 66.546875 27.203125 69.0625 
z
" id="Bitstream_Charter_Italic-102"/>
     <path d="M 14.09375 28.796875 
C 14.09375 56.203125 22.09375 69.796875 33.59375 71.796875 
L 33.59375 76.40625 
C 17 74.40625 5.59375 59 5.59375 28.796875 
C 5.59375 -1.40625 17 -16.796875 33.59375 -18.796875 
L 33.59375 -14.203125 
C 22.09375 -12.203125 14.09375 1.40625 14.09375 28.796875 
" id="MathDesign_CH_Regular_OT1_10-40"/>
     <path d="M 25.09375 28.796875 
C 25.09375 1.40625 17.09375 -12.203125 5.59375 -14.203125 
L 5.59375 -18.796875 
C 22.203125 -16.796875 33.59375 -1.40625 33.59375 28.796875 
C 33.59375 59 22.203125 74.40625 5.59375 76.40625 
L 5.59375 71.796875 
C 17.09375 69.796875 25.09375 56.203125 25.09375 28.796875 
" id="MathDesign_CH_Regular_OT1_10-41"/>
    </defs>
    <g style="fill:#ff0000;" transform="translate(203.781041585 64.6963960525)scale(0.12 -0.12)">
     <use transform="translate(4.63873268213 23.5279658069)scale(0.956420138348)" xlink:href="#MathDesign_CH_Regular_Italic_MathItalic_10-126"/>
     <use transform="scale(0.956420138348)" xlink:href="#Bitstream_Charter_Italic-102"/>
     <use transform="translate(50.4990593137 0.0)scale(0.956420138348)" xlink:href="#MathDesign_CH_Regular_OT1_10-40"/>
     <use transform="translate(95.2594609813 0.0)scale(0.956420138348)" xlink:href="#Bitstream_Charter_Italic-120"/>
     <use transform="translate(149.679774454 0.0)scale(0.956420138348)" xlink:href="#MathDesign_CH_Regular_OT1_10-41"/>
    </g>
   </g>
   <g id="patch_11">
    <path clip-path="url(#p4b35a6e31c)" d="M 99.430648 105.817686 
C 100.495034 105.817686 101.51597 105.394801 102.268605 104.642166 
C 103.021239 103.889531 103.444125 102.868596 103.444125 101.804209 
C 103.444125 100.739823 103.021239 99.718888 102.268605 98.966253 
C 101.51597 98.213618 100.495034 97.790733 99.430648 97.790733 
C 98.366262 97.790733 97.345326 98.213618 96.592691 98.966253 
C 95.840057 99.718888 95.417171 100.739823 95.417171 101.804209 
C 95.417171 102.868596 95.840057 103.889531 96.592691 104.642166 
C 97.345326 105.394801 98.366262 105.817686 99.430648 105.817686 
z
" style="fill:#ffffff;stroke:#000000;stroke-linejoin:miter;"/>
   </g>
   <g id="patch_12">
    <path clip-path="url(#p4b35a6e31c)" d="M 99.430648 103.810948 
C 99.962841 103.810948 100.473309 103.599505 100.849626 103.223188 
C 101.225944 102.84687 101.437386 102.336403 101.437386 101.804209 
C 101.437386 101.272016 101.225944 100.761549 100.849626 100.385231 
C 100.473309 100.008914 99.962841 99.797471 99.430648 99.797471 
C 98.898455 99.797471 98.387987 100.008914 98.01167 100.385231 
C 97.635352 100.761549 97.42391 101.272016 97.42391 101.804209 
C 97.42391 102.336403 97.635352 102.84687 98.01167 103.223188 
C 98.387987 103.599505 98.898455 103.810948 99.430648 103.810948 
z
" style="stroke:#000000;stroke-linejoin:miter;"/>
   </g>
  </g>
 </g>
 <defs>
  <clipPath id="p4b35a6e31c">
   <rect height="104.350393594" width="417.401574377" x="67.322834577" y="37.5885826388"/>
  </clipPath>
 </defs>
</svg>
